<svg width="34" height="34" viewBox="0 0 34 34" fill="none" xmlns="http://www.w3.org/2000/svg">
<path fill-rule="evenodd" clip-rule="evenodd" d="M29.5643 20.3171C28.9624 20.6919 28.2537 20.7384 27.7151 20.439C27.0307 20.0583 26.6545 19.1669 26.6545 17.9271V14.2178C26.6545 12.4266 25.9357 11.152 24.7337 10.8078C22.6967 10.2232 21.1649 12.6787 20.5891 13.6008L16.9967 19.3393V12.3254C16.9563 10.7116 16.4243 9.74638 15.4143 9.45531C14.7459 9.26292 13.746 9.34004 12.7747 10.8045L4.72621 23.5372C3.64872 21.5218 3.08701 19.2778 3.08992 17C3.08992 9.33009 9.32869 3.09068 16.9967 3.09068C24.6647 3.09068 30.9026 9.33009 30.9026 17C30.9026 17.0133 30.906 17.0249 30.9068 17.0373C30.9068 17.0505 30.9042 17.0621 30.9052 17.0754C30.9775 18.5607 30.4893 19.7415 29.5643 20.3171ZM33.9924 17.0008V16.9618L33.9916 16.9237C33.9487 7.58283 26.3422 0 16.9958 0C7.62506 0 0 7.62595 0 17C0 26.3732 7.62506 34 16.9967 34C21.297 34 25.4012 32.3895 28.5518 29.4663C29.1779 28.8859 29.2149 27.9081 28.6342 27.283C28.4975 27.1344 28.332 27.0143 28.1477 26.9295C27.9632 26.8448 27.7635 26.7971 27.5601 26.7895C27.3568 26.7817 27.154 26.814 26.9635 26.8846C26.7729 26.9551 26.5987 27.0622 26.4508 27.2C23.897 29.5824 20.5137 30.91 16.9967 30.9093C12.8908 30.9093 9.19653 29.1189 6.64868 26.2795L13.9068 14.7975V20.0906C13.9068 22.6332 14.9076 23.455 15.7467 23.6955C16.5867 23.9359 17.8704 23.7718 19.218 21.6157L23.2102 15.2395C23.3382 15.0338 23.4559 14.8563 23.5637 14.7029V17.9271C23.5637 20.3037 24.53 22.2045 26.2142 23.1407C27.7327 23.9849 29.6417 23.9086 31.1972 22.9417C33.0826 21.7682 34.0986 19.6064 33.9924 17.0008Z" fill="white"/>
</svg>
