<svg width="23" height="19" viewBox="0 0 23 19" fill="none" xmlns="http://www.w3.org/2000/svg">
<path d="M7.58587 3.54629V18.2484C7.58587 18.4566 7.5319 18.6352 7.42791 18.78C7.32311 18.9241 7.16752 19 6.96272 19C6.81904 19 6.67932 18.9656 6.54437 18.8991L0.634273 15.9791C0.454867 15.8969 0.306419 15.7542 0.183375 15.5601C0.0603317 15.3651 0 15.1702 0 14.9775V0.688114C0 0.521321 0.0412786 0.378803 0.127807 0.262126C0.211159 0.14545 0.334204 0.0859375 0.49694 0.0859375C0.61522 0.0859375 0.800979 0.147799 1.05659 0.273873L7.55095 3.48208C7.57158 3.50949 7.58587 3.52985 7.58587 3.54629Z" fill="white"/>
<path d="M8.39844 4.81299L15.1825 15.6673L8.39844 12.3329V4.81299Z" fill="white"/>
<path d="M22.7686 5.03857V18.2488C22.7686 18.4571 22.7083 18.627 22.59 18.7546C22.4718 18.8854 22.3113 18.9497 22.1066 18.9497C21.9026 18.9497 21.7048 18.8949 21.5096 18.7868L15.9082 16.0303L22.7686 5.03857Z" fill="white"/>
<path d="M22.7322 3.53386C22.7322 3.55892 21.6447 5.31213 19.472 8.79118C17.3 12.2726 16.0267 14.3077 15.6551 14.9012L10.6992 6.95573L14.8161 0.350801C14.9598 0.117455 15.1805 0 15.4757 0C15.594 0 15.7036 0.0258391 15.806 0.0759543L22.6807 3.46103C22.7133 3.47435 22.7322 3.49941 22.7322 3.53386Z" fill="white"/>
</svg>
