<svg width="44" height="38" viewBox="0 0 44 38" fill="none" xmlns="http://www.w3.org/2000/svg">
<path d="M32.8992 11.6331C32.1211 11.19 31.1209 11.19 30.2318 11.6331L24.0078 15.2889L19.7844 17.6154L13.6716 21.2711C12.8936 21.7143 11.8934 21.7143 11.0042 21.2711L6.22507 18.3908C5.44708 17.9477 4.89136 17.0615 4.89136 16.0644V10.5253C4.89136 9.63911 5.33594 8.75283 6.22507 8.19892L11.0042 5.42939C11.7822 4.98626 12.7825 4.98626 13.6716 5.42939L18.4507 8.3097C19.2287 8.75283 19.7844 9.63911 19.7844 10.6361V14.2919L24.0078 11.8547V8.08814C24.0078 7.20188 23.5633 6.31564 22.6741 5.76173L13.7827 0.555001C13.0048 0.111875 12.0044 0.111875 11.1153 0.555001L2.00167 5.87251C1.11254 6.31564 0.667969 7.20188 0.667969 8.08814V18.5016C0.667969 19.3878 1.11254 20.2741 2.00167 20.828L11.0042 26.0347C11.7822 26.4778 12.7825 26.4778 13.6716 26.0347L19.7844 22.4897L24.0078 20.0526L30.1206 16.5076C30.8986 16.0644 31.8989 16.0644 32.788 16.5076L37.5671 19.277C38.3452 19.7202 38.9008 20.6065 38.9008 21.6035V27.1425C38.9008 28.0288 38.4563 28.9151 37.5671 29.469L32.8992 32.2385C32.1211 32.6816 31.1209 32.6816 30.2318 32.2385L25.4526 29.469C24.6747 29.0258 24.1189 28.1396 24.1189 27.1425V23.5975L19.8956 26.0347V29.6905C19.8956 30.5767 20.3401 31.4631 21.2293 32.017L30.2318 37.2237C31.0097 37.6668 32.01 37.6668 32.8992 37.2237L41.9017 32.017C42.6796 31.5738 43.2354 30.6875 43.2354 29.6905V19.1663C43.2354 18.28 42.7908 17.3938 41.9017 16.8399L32.8992 11.6331Z" fill="#8247E5"/>
</svg>
