<svg width="64" height="71" viewBox="0 0 64 71" fill="none" xmlns="http://www.w3.org/2000/svg">
<path d="M31.5576 67.8192C31.2434 67.8192 30.9883 67.5663 30.9883 67.2548V35.5023C30.9883 35.1908 31.2434 34.938 31.5576 34.938C31.8719 34.938 32.127 35.1908 32.127 35.5023V67.2548C32.127 67.5663 31.8719 67.8192 31.5576 67.8192Z" fill="url(#paint0_linear_1468_1881)"/>
<path d="M31.5586 36.0662C31.3628 36.0662 31.1716 35.9647 31.0645 35.784C30.9074 35.5132 31.0008 35.17 31.274 35.0143L59.0121 19.1391C59.2855 18.9833 59.6339 19.0758 59.791 19.3467C59.9482 19.6176 59.8548 19.9608 59.5814 20.1189L31.8434 35.9939C31.7523 36.0414 31.6543 36.0662 31.5586 36.0662Z" fill="url(#paint1_linear_1468_1881)"/>
<path d="M31.5587 36.0663C31.463 36.0663 31.3651 36.0415 31.2741 35.9918L3.80921 20.2702C3.53594 20.1145 3.44256 19.769 3.5997 19.4981C3.75684 19.2272 4.10526 19.1347 4.37855 19.2904L31.8434 35.0097C32.1166 35.1656 32.21 35.511 32.0505 35.7796C31.9481 35.9647 31.7568 36.0663 31.5587 36.0663Z" fill="url(#paint2_linear_1468_1881)"/>
<path d="M49.5443 25.2075L31.5623 35.4997L13.5781 25.2075L31.5623 14.9131L49.5443 25.2075Z" fill="#1E1E1E"/>
<path d="M49.5389 45.7923L31.557 56.0867L31.5547 35.5001H31.557L49.5389 25.208V45.7923Z" fill="#1E1E1E"/>
<path d="M13.5742 25.208L31.5584 35.5001V56.0867L13.5742 45.7923V25.208Z" fill="#1E1E1E"/>
<path d="M31.5597 67.819C31.4594 67.819 31.3593 67.7919 31.2728 67.7445L3.53466 51.8671C3.35931 51.7656 3.25 51.5804 3.25 51.3772V19.6248C3.25 19.4058 3.37525 19.2161 3.55972 19.1236L31.2751 3.25979C31.4504 3.1582 31.669 3.1582 31.8444 3.25979L59.5825 19.1371C59.7715 19.2455 59.8762 19.4464 59.8672 19.6519V51.3795C59.8672 51.5804 59.7579 51.7677 59.5825 51.8694L31.8444 67.7468C31.7578 67.7919 31.6599 67.819 31.5597 67.819ZM4.38867 51.0499L31.5574 66.6022L58.7284 51.0499V19.9498L31.5597 4.39986L4.38867 19.9498V51.0499Z" fill="white"/>
<path d="M49.5404 25.2075L31.5584 35.4997L13.5742 25.2075L31.5584 14.9131L49.5404 25.2075Z" fill="url(#paint3_linear_1468_1881)"/>
<path d="M31.5614 36.064C31.4634 36.064 31.3656 36.0392 31.2768 35.9896L13.2925 25.6951C13.1171 25.5935 13.0078 25.4084 13.0078 25.2052C13.0078 25.0043 13.1171 24.8169 13.2925 24.7153L31.2768 14.4209C31.4521 14.3193 31.6707 14.3193 31.8461 14.4209L49.8302 24.7153C50.0056 24.8169 50.1149 25.002 50.1149 25.2052C50.1149 25.4061 50.0056 25.5935 49.8302 25.6951L31.8461 35.9896C31.7572 36.0392 31.6593 36.064 31.5614 36.064ZM14.7158 25.2075L31.5614 34.8495L48.407 25.2075L31.5614 15.5655L14.7158 25.2075Z" fill="#1E1E1E"/>
<path d="M49.5389 45.7923L31.557 56.0867L31.5547 35.5001H31.557L49.5389 25.208V45.7923Z" fill="url(#paint4_linear_1468_1881)"/>
<path d="M31.5616 56.6508C31.4636 56.6508 31.3657 56.626 31.2768 56.5741C31.1015 56.4724 30.9922 56.2874 30.9922 56.0865V35.4999C30.9922 35.299 31.1015 35.1115 31.2768 35.01L49.2611 24.7178C49.4365 24.6162 49.6551 24.6162 49.8304 24.7178C50.0058 24.8193 50.1151 25.0044 50.1151 25.2077V45.792C50.1151 45.9929 50.0058 46.1803 49.8304 46.2819L31.8463 56.5764C31.7574 56.626 31.6595 56.6508 31.5616 56.6508ZM32.1309 35.8272V55.109L48.9765 45.4669V26.1852L32.1309 35.8272Z" fill="#1E1E1E"/>
<path d="M13.5742 25.208L31.5584 35.5001V56.0867L13.5742 45.7923V25.208Z" fill="url(#paint5_linear_1468_1881)"/>
<path d="M31.5574 56.651C31.4595 56.651 31.3615 56.6262 31.2727 56.5743L13.2886 46.2799C13.1132 46.1782 13.0039 45.9931 13.0039 45.79V25.2034C13.0039 25.0024 13.1132 24.815 13.2886 24.7135C13.4639 24.6118 13.6825 24.6118 13.8579 24.7135L31.8422 35.0078C32.0175 35.1094 32.1268 35.2945 32.1268 35.4977V56.0844C32.1268 56.2853 32.0175 56.4726 31.8422 56.572C31.7533 56.6262 31.6554 56.651 31.5574 56.651ZM14.1425 45.4672L30.9881 55.1091V35.8273L14.1425 26.1853V45.4672Z" fill="#1E1E1E"/>
<path d="M40.5506 25.2078L31.5596 30.3551L22.5664 25.2078L31.5596 20.0605L40.5506 25.2078Z" fill="#1E1E1E"/>
<path d="M36.58 25.2079L31.5606 28.0817L26.5391 25.2079L31.5606 22.334L36.58 25.2079Z" fill="white"/>
<path d="M45.0457 43.2209L36.0547 48.3681V38.0737L45.0457 32.9287V43.2209Z" fill="#1E1E1E"/>
<path d="M43.0606 42.0856L38.0391 44.9594V39.2118L43.0606 36.3379V42.0856Z" fill="white"/>
<path d="M18.0703 32.9263L27.0613 38.0734V48.3679L18.0703 43.2207V32.9263Z" fill="#1E1E1E"/>
<path d="M20.0547 36.335L25.0762 39.2111V44.9566L20.0547 42.0827V36.335Z" fill="white"/>
<path d="M3.82044 51.9417C3.62459 51.9417 3.43329 51.8402 3.32626 51.6596C3.16913 51.3887 3.2625 51.0455 3.53577 50.8898L22.2829 40.1596C22.5562 40.0038 22.9046 40.0964 23.0617 40.3672C23.2189 40.6381 23.1255 40.9813 22.8523 41.1371L4.10511 51.8673C4.01402 51.9169 3.91609 51.9417 3.82044 51.9417Z" fill="url(#paint6_linear_1468_1881)"/>
<path d="M31.5616 25.7723C31.2473 25.7723 30.9922 25.5195 30.9922 25.2079V4.02532C30.9922 3.71378 31.2473 3.46094 31.5616 3.46094C31.8758 3.46094 32.1309 3.71378 32.1309 4.02532V25.2079C32.1309 25.5195 31.8758 25.7723 31.5616 25.7723Z" fill="url(#paint7_linear_1468_1881)"/>
<path d="M59.2981 51.9415C59.2024 51.9415 59.1044 51.9167 59.0133 51.8671L40.2663 41.1369C39.993 40.9811 39.8996 40.6358 40.0567 40.3649C40.2139 40.094 40.5623 40.0013 40.8356 40.1572L59.5827 50.8873C59.8559 51.043 59.9493 51.3885 59.7922 51.6571C59.6852 51.84 59.4939 51.9415 59.2981 51.9415Z" fill="url(#paint8_linear_1468_1881)"/>
<path d="M31.5575 7.4861C33.4857 7.4861 35.0487 5.93664 35.0487 4.02528C35.0487 2.11392 33.4857 0.564453 31.5575 0.564453C29.6294 0.564453 28.0664 2.11392 28.0664 4.02528C28.0664 5.93664 29.6294 7.4861 31.5575 7.4861Z" fill="url(#paint9_linear_1468_1881)"/>
<path d="M31.5565 8.05043C29.3179 8.05043 27.4961 6.24439 27.4961 4.02521C27.4961 1.80604 29.3179 0 31.5565 0C33.7952 0 35.6171 1.80604 35.6171 4.02521C35.6171 6.24439 33.7952 8.05043 31.5565 8.05043ZM31.5565 1.12878C29.9465 1.12878 28.6347 2.42686 28.6347 4.02521C28.6347 5.62356 29.9442 6.92165 31.5565 6.92165C33.1666 6.92165 34.4784 5.62356 34.4784 4.02521C34.4784 2.42686 33.1666 1.12878 31.5565 1.12878Z" fill="#1E1E1E"/>
<path d="M59.0536 23.2415C60.9817 23.2415 62.5448 21.6921 62.5448 19.7807C62.5448 17.8693 60.9817 16.3198 59.0536 16.3198C57.1255 16.3198 55.5625 17.8693 55.5625 19.7807C55.5625 21.6921 57.1255 23.2415 59.0536 23.2415Z" fill="url(#paint10_linear_1468_1881)"/>
<path d="M59.0528 23.8059C56.8141 23.8059 54.9922 21.9998 54.9922 19.7806C54.9922 17.5615 56.8141 15.7554 59.0528 15.7554C61.2914 15.7554 63.1133 17.5615 63.1133 19.7806C63.1133 21.9998 61.2914 23.8059 59.0528 23.8059ZM59.0528 16.8842C57.4427 16.8842 56.1309 18.1822 56.1309 19.7806C56.1309 21.3768 57.4404 22.6771 59.0528 22.6771C60.6628 22.6771 61.9746 21.3789 61.9746 19.7806C61.9746 18.1845 60.6628 16.8842 59.0528 16.8842Z" fill="#1E1E1E"/>
<path d="M59.0536 54.6848C60.9817 54.6848 62.5448 53.1353 62.5448 51.2239C62.5448 49.3125 60.9817 47.7632 59.0536 47.7632C57.1255 47.7632 55.5625 49.3125 55.5625 51.2239C55.5625 53.1353 57.1255 54.6848 59.0536 54.6848Z" fill="url(#paint11_linear_1468_1881)"/>
<path d="M59.0528 55.2491C56.8141 55.2491 54.9922 53.4431 54.9922 51.2239C54.9922 49.0047 56.8141 47.1987 59.0528 47.1987C61.2914 47.1987 63.1133 49.0047 63.1133 51.2239C63.1133 53.4431 61.2914 55.2491 59.0528 55.2491ZM59.0528 48.3275C57.4427 48.3275 56.1309 49.6256 56.1309 51.2239C56.1309 52.8201 57.4404 54.1204 59.0528 54.1204C60.6628 54.1204 61.9746 52.8223 61.9746 51.2239C61.9746 49.6279 60.6628 48.3275 59.0528 48.3275Z" fill="#1E1E1E"/>
<path d="M31.5615 70.4377C33.4895 70.4377 35.0526 68.8882 35.0526 66.9768C35.0526 65.0656 33.4895 63.5161 31.5615 63.5161C29.6333 63.5161 28.0703 65.0656 28.0703 66.9768C28.0703 68.8882 29.6333 70.4377 31.5615 70.4377Z" fill="url(#paint12_linear_1468_1881)"/>
<path d="M31.5604 71.0001C29.3218 71.0001 27.5 69.1941 27.5 66.9749C27.5 64.7557 29.3218 62.9497 31.5604 62.9497C33.7991 62.9497 35.621 64.7557 35.621 66.9749C35.621 69.1962 33.7991 71.0001 31.5604 71.0001ZM31.5604 64.0807C29.9504 64.0807 28.6386 65.3787 28.6386 66.9771C28.6386 68.5733 29.9481 69.8736 31.5604 69.8736C33.1705 69.8736 34.4823 68.5754 34.4823 66.9771C34.4823 65.3787 33.1728 64.0807 31.5604 64.0807Z" fill="#1E1E1E"/>
<path d="M4.06149 54.6511C5.98961 54.6511 7.55266 53.1016 7.55266 51.1902C7.55266 49.2788 5.98961 47.7295 4.06149 47.7295C2.13337 47.7295 0.570312 49.2788 0.570312 51.1902C0.570312 53.1016 2.13337 54.6511 4.06149 54.6511Z" fill="url(#paint13_linear_1468_1881)"/>
<path d="M4.06051 55.2156C1.82188 55.2156 0 53.4094 0 51.1902C0 48.9711 1.82188 47.165 4.06051 47.165C6.29915 47.165 8.12103 48.9711 8.12103 51.1902C8.12103 53.4094 6.29915 55.2156 4.06051 55.2156ZM4.06051 48.2938C2.45043 48.2938 1.13868 49.5919 1.13868 51.1902C1.13868 52.7864 2.44815 54.0868 4.06051 54.0868C5.6706 54.0868 6.98235 52.7886 6.98235 51.1902C6.98235 49.5919 5.6706 48.2938 4.06051 48.2938Z" fill="#1E1E1E"/>
<path d="M4.06149 23.2078C5.98961 23.2078 7.55266 21.6584 7.55266 19.747C7.55266 17.8356 5.98961 16.2861 4.06149 16.2861C2.13337 16.2861 0.570312 17.8356 0.570312 19.747C0.570312 21.6584 2.13337 23.2078 4.06149 23.2078Z" fill="url(#paint14_linear_1468_1881)"/>
<path d="M4.06051 23.7722C1.82188 23.7722 0 21.9661 0 19.7469C0 17.5277 1.82188 15.7217 4.06051 15.7217C6.29915 15.7217 8.12103 17.5277 8.12103 19.7469C8.12103 21.9661 6.29915 23.7722 4.06051 23.7722ZM4.06051 16.8505C2.44815 16.8505 1.13868 18.1508 1.13868 19.7469C1.13868 21.3431 2.44815 22.6434 4.06051 22.6434C5.6706 22.6434 6.98235 21.3452 6.98235 19.7469C6.98235 18.1508 5.6706 16.8505 4.06051 16.8505Z" fill="#1E1E1E"/>
<defs>
<linearGradient id="paint0_linear_1468_1881" x1="-2.40838" y1="17.7055" x2="68.3504" y2="89.0844" gradientUnits="userSpaceOnUse">
<stop stop-color="#00FF50"/>
<stop offset="1" stop-color="#00A2FF"/>
</linearGradient>
<linearGradient id="paint1_linear_1468_1881" x1="16.5365" y1="-1.07655" x2="87.2953" y2="70.3027" gradientUnits="userSpaceOnUse">
<stop stop-color="#00FF50"/>
<stop offset="1" stop-color="#00A2FF"/>
</linearGradient>
<linearGradient id="paint2_linear_1468_1881" x1="2.69837" y1="12.6436" x2="73.4571" y2="84.0229" gradientUnits="userSpaceOnUse">
<stop stop-color="#00FF50"/>
<stop offset="1" stop-color="#00A2FF"/>
</linearGradient>
<linearGradient id="paint3_linear_1468_1881" x1="10.7897" y1="4.62013" x2="81.5484" y2="75.9993" gradientUnits="userSpaceOnUse">
<stop stop-color="#00FF50"/>
<stop offset="1" stop-color="#00A2FF"/>
</linearGradient>
<linearGradient id="paint4_linear_1468_1881" x1="7.49642" y1="7.88375" x2="78.2553" y2="79.2629" gradientUnits="userSpaceOnUse">
<stop stop-color="#00FF50"/>
<stop offset="1" stop-color="#00A2FF"/>
</linearGradient>
<linearGradient id="paint5_linear_1468_1881" x1="-1.49172" y1="16.7975" x2="69.2671" y2="88.1767" gradientUnits="userSpaceOnUse">
<stop stop-color="#00FF50"/>
<stop offset="1" stop-color="#00A2FF"/>
</linearGradient>
<linearGradient id="paint6_linear_1468_1881" x1="-8.88397" y1="24.1254" x2="61.8748" y2="95.5046" gradientUnits="userSpaceOnUse">
<stop stop-color="#00FF50"/>
<stop offset="1" stop-color="#00A2FF"/>
</linearGradient>
<linearGradient id="paint7_linear_1468_1881" x1="16.135" y1="-0.675353" x2="86.8937" y2="70.7045" gradientUnits="userSpaceOnUse">
<stop stop-color="#00FF50"/>
<stop offset="1" stop-color="#00A2FF"/>
</linearGradient>
<linearGradient id="paint8_linear_1468_1881" x1="9.48081" y1="5.91932" x2="80.2395" y2="77.2985" gradientUnits="userSpaceOnUse">
<stop stop-color="#00FF50"/>
<stop offset="1" stop-color="#00A2FF"/>
</linearGradient>
<linearGradient id="paint9_linear_1468_1881" x1="21.4746" y1="-5.97017" x2="92.2334" y2="65.409" gradientUnits="userSpaceOnUse">
<stop stop-color="#00FF50"/>
<stop offset="1" stop-color="#00A2FF"/>
</linearGradient>
<linearGradient id="paint10_linear_1468_1881" x1="27.2752" y1="-11.7209" x2="98.0339" y2="59.6581" gradientUnits="userSpaceOnUse">
<stop stop-color="#00FF50"/>
<stop offset="1" stop-color="#00A2FF"/>
</linearGradient>
<linearGradient id="paint11_linear_1468_1881" x1="11.416" y1="4.00062" x2="82.1746" y2="75.3797" gradientUnits="userSpaceOnUse">
<stop stop-color="#00FF50"/>
<stop offset="1" stop-color="#00A2FF"/>
</linearGradient>
<linearGradient id="paint12_linear_1468_1881" x1="-10.2739" y1="25.5038" x2="60.4848" y2="96.883" gradientUnits="userSpaceOnUse">
<stop stop-color="#00FF50"/>
<stop offset="1" stop-color="#00A2FF"/>
</linearGradient>
<linearGradient id="paint13_linear_1468_1881" x1="-16.0622" y1="31.2411" x2="54.6967" y2="102.62" gradientUnits="userSpaceOnUse">
<stop stop-color="#00FF50"/>
<stop offset="1" stop-color="#00A2FF"/>
</linearGradient>
<linearGradient id="paint14_linear_1468_1881" x1="-0.203297" y1="15.5201" x2="70.5554" y2="86.8993" gradientUnits="userSpaceOnUse">
<stop stop-color="#00FF50"/>
<stop offset="1" stop-color="#00A2FF"/>
</linearGradient>
</defs>
</svg>
