<svg width="71" height="71" viewBox="0 0 71 71" fill="none" xmlns="http://www.w3.org/2000/svg">
<path d="M66.3711 23.8593C66.0175 23.8593 65.7306 23.5743 65.7306 23.223V14.3731C65.7306 9.33599 61.6054 5.23554 56.5323 5.23554H42.6249C42.2713 5.23554 41.9844 4.95046 41.9844 4.59921C41.9844 4.24797 42.2713 3.96289 42.6249 3.96289H56.5323C62.31 3.96289 67.0116 8.63349 67.0116 14.3731V23.223C67.0116 23.5743 66.7246 23.8593 66.3711 23.8593Z" fill="url(#paint0_linear_1468_1927)"/>
<path d="M4.62881 28.922C4.27524 28.922 3.98828 28.6368 3.98828 28.2857V14.3731C3.98828 8.63349 8.68985 3.96289 14.4676 3.96289H23.3583C23.7118 3.96289 23.9988 4.24797 23.9988 4.59921C23.9988 4.95046 23.7118 5.23554 23.3583 5.23554H14.4676C9.397 5.23554 5.26936 9.33345 5.26936 14.3731V28.2857C5.26936 28.6368 4.9824 28.922 4.62881 28.922Z" fill="url(#paint1_linear_1468_1927)"/>
<path d="M56.5312 66.5694H47.6405C47.2869 66.5694 47 66.2844 47 65.9331C47 65.5819 47.2869 65.2968 47.6405 65.2968H56.5312C61.6017 65.2968 65.7294 61.1989 65.7294 56.1592V42.3282C65.7294 41.9769 66.0164 41.6919 66.3699 41.6919C66.7235 41.6919 67.0104 41.9769 67.0104 42.3282V56.1592C67.0104 61.8989 62.3088 66.5694 56.5312 66.5694Z" fill="url(#paint2_linear_1468_1927)"/>
<path d="M28.3698 66.5694H14.4676C8.68985 66.5694 3.98828 61.8987 3.98828 56.1592V47.3448C3.98828 46.9937 4.27524 46.7085 4.62881 46.7085C4.9824 46.7085 5.26936 46.9937 5.26936 47.3448V56.1592C5.26936 61.1963 9.39445 65.2968 14.4676 65.2968H28.3698C28.7234 65.2968 29.0103 65.5818 29.0103 65.9331C29.0103 66.2843 28.7234 66.5694 28.3698 66.5694Z" fill="url(#paint3_linear_1468_1927)"/>
<path d="M0 47.345L4.62983 42.7456L9.26221 47.345H0Z" fill="url(#paint4_linear_1468_1927)"/>
<path d="M35.5033 58.1317C34.5373 58.1317 33.5714 57.8848 32.708 57.391L17.6117 48.7345C15.8874 47.7469 14.8164 45.9041 14.8164 43.9265V26.6109C14.8164 24.6332 15.8874 22.7904 17.6117 21.8028L32.708 13.1438C34.4323 12.1562 36.5743 12.1562 38.2961 13.1438L53.3923 21.8028C55.1166 22.7929 56.1876 24.6332 56.1876 26.6109V43.9265C56.1876 45.9041 55.1166 47.7469 53.3923 48.7345L38.2961 57.391C37.4351 57.8848 36.4692 58.1317 35.5033 58.1317ZM33.3485 14.2434L18.2522 22.9024C16.9225 23.6634 16.0974 25.0837 16.0974 26.6084V43.9239C16.0974 45.4485 16.9225 46.8688 18.2522 47.6298L33.3485 56.2863C34.6783 57.0473 36.3283 57.0499 37.6555 56.2863L52.7517 47.6298C54.0816 46.8688 54.9066 45.4485 54.9066 43.9239V26.6084C54.9066 25.0837 54.0816 23.6634 52.7517 22.9024L37.6555 14.2434C36.3283 13.4823 34.6783 13.4823 33.3485 14.2434Z" fill="white"/>
<path d="M48.1704 28.0008L35.5006 35.2676L22.8281 28.0008L35.5006 20.7314L48.1704 28.0008Z" fill="url(#paint5_linear_1468_1927)"/>
<path d="M35.5018 35.9038C35.3917 35.9038 35.2815 35.8758 35.1816 35.8197L22.5117 28.553C22.3145 28.4385 22.1914 28.2298 22.1914 28.0007C22.1914 27.7741 22.3145 27.563 22.5117 27.4484L35.1816 20.1816C35.3789 20.0671 35.6249 20.0671 35.8222 20.1816L48.492 27.4484C48.6893 27.563 48.8124 27.7716 48.8124 28.0007C48.8124 28.2272 48.6893 28.4385 48.492 28.553L35.8222 35.8197C35.7223 35.8758 35.612 35.9038 35.5018 35.9038ZM24.1105 28.0007L35.4993 34.5344L46.8882 28.0007L35.4993 21.467L24.1105 28.0007Z" fill="#1E1E1E"/>
<path d="M48.1699 42.5343L35.5 49.8011V35.2675L48.1699 28.0007V42.5343Z" fill="url(#paint6_linear_1468_1927)"/>
<path d="M35.4999 50.4372C35.3897 50.4372 35.2796 50.4092 35.1796 50.3532C34.9823 50.2386 34.8594 50.03 34.8594 49.8009V35.2673C34.8594 35.0408 34.9823 34.8295 35.1796 34.7174L47.8495 27.4507C48.0467 27.3361 48.2927 27.3361 48.49 27.4507C48.6874 27.5652 48.8103 27.774 48.8103 28.0031V42.5366C48.8103 42.7632 48.6874 42.9744 48.49 43.0889L35.8201 50.3557C35.7202 50.4092 35.6101 50.4372 35.4999 50.4372ZM36.1404 35.6338V48.6988L47.5293 42.165V29.1001L36.1404 35.6338Z" fill="#1E1E1E"/>
<path d="M22.8281 28.0007L35.498 35.2675H35.5006L35.498 49.8011L22.8281 42.5343V28.0007Z" fill="url(#paint7_linear_1468_1927)"/>
<path d="M35.498 50.4374C35.3878 50.4374 35.2776 50.4094 35.1778 50.3534L22.5079 43.0867C22.3106 42.9722 22.1875 42.7634 22.1875 42.5343V28.0007C22.1875 27.7742 22.3106 27.563 22.5079 27.4485C22.7051 27.3339 22.9511 27.3339 23.1484 27.4485L35.8183 34.7152C36.0156 34.8298 36.1385 35.0384 36.1385 35.265V49.7986C36.1385 50.0251 36.0156 50.2364 35.8183 50.3508C35.7209 50.4094 35.6107 50.4374 35.498 50.4374ZM23.4686 42.1678L34.8574 48.7015V35.6366L23.4686 29.1029V42.1678Z" fill="#1E1E1E"/>
<path d="M23.2812 0L27.9111 4.59932L23.2812 9.20121V0Z" fill="url(#paint8_linear_1468_1927)"/>
<path d="M71.0005 23.2231L66.3707 27.8249L61.7383 23.2231H71.0005Z" fill="url(#paint9_linear_1468_1927)"/>
<path d="M47.6415 70.5323L43.0117 65.933L47.6415 61.3311V70.5323Z" fill="url(#paint10_linear_1468_1927)"/>
<path d="M35.5012 7.84448C37.3054 7.84448 38.768 6.39153 38.768 4.59924C38.768 2.80694 37.3054 1.354 35.5012 1.354C33.6971 1.354 32.2344 2.80694 32.2344 4.59924C32.2344 6.39153 33.6971 7.84448 35.5012 7.84448Z" fill="white"/>
<path d="M67.6233 38.2652C69.2902 37.5793 70.0817 35.6808 69.3913 34.025C68.7008 32.3691 66.7898 31.5827 65.123 32.2686C63.4561 32.9545 62.6645 34.853 63.355 36.5088C64.0455 38.1648 65.9565 38.9511 67.6233 38.2652Z" fill="white"/>
<path d="M37.811 68.2269C39.0868 66.9596 39.0868 64.9049 37.811 63.6376C36.5353 62.3702 34.4669 62.3702 33.1911 63.6376C31.9155 64.9049 31.9155 66.9596 33.1911 68.2269C34.4669 69.4943 36.5353 69.4943 37.811 68.2269Z" fill="white"/>
<path d="M7.80986 36.015C8.22446 34.2708 7.13718 32.5228 5.38135 32.111C3.62553 31.6991 1.86605 32.7793 1.45145 34.5236C1.03685 36.2677 2.12413 38.0157 3.87995 38.4275C5.63579 38.8394 7.39526 37.7593 7.80986 36.015Z" fill="white"/>
<defs>
<linearGradient id="paint0_linear_1468_1927" x1="30.0811" y1="-16.7892" x2="109.72" y2="63.3783" gradientUnits="userSpaceOnUse">
<stop stop-color="#00FF50"/>
<stop offset="1" stop-color="#00A2FF"/>
</linearGradient>
<linearGradient id="paint1_linear_1468_1927" x1="5.31051" y1="7.81646" x2="84.9499" y2="87.9839" gradientUnits="userSpaceOnUse">
<stop stop-color="#00FF50"/>
<stop offset="1" stop-color="#00A2FF"/>
</linearGradient>
<linearGradient id="paint2_linear_1468_1927" x1="7.84737" y1="5.29711" x2="87.4867" y2="85.4646" gradientUnits="userSpaceOnUse">
<stop stop-color="#00FF50"/>
<stop offset="1" stop-color="#00A2FF"/>
</linearGradient>
<linearGradient id="paint3_linear_1468_1927" x1="-16.9028" y1="29.8836" x2="62.7365" y2="110.051" gradientUnits="userSpaceOnUse">
<stop stop-color="#00FF50"/>
<stop offset="1" stop-color="#00A2FF"/>
</linearGradient>
<linearGradient id="paint4_linear_1468_1927" x1="-14.9244" y1="27.9194" x2="64.7149" y2="108.087" gradientUnits="userSpaceOnUse">
<stop stop-color="#00FF50"/>
<stop offset="1" stop-color="#00A2FF"/>
</linearGradient>
<linearGradient id="paint5_linear_1468_1927" x1="10.2467" y1="2.91318" x2="89.886" y2="83.0807" gradientUnits="userSpaceOnUse">
<stop stop-color="#00FF50"/>
<stop offset="1" stop-color="#00A2FF"/>
</linearGradient>
<linearGradient id="paint6_linear_1468_1927" x1="7.92691" y1="5.21709" x2="87.5663" y2="85.3846" gradientUnits="userSpaceOnUse">
<stop stop-color="#00FF50"/>
<stop offset="1" stop-color="#00A2FF"/>
</linearGradient>
<linearGradient id="paint7_linear_1468_1927" x1="1.59221" y1="11.5107" x2="81.2316" y2="91.6781" gradientUnits="userSpaceOnUse">
<stop stop-color="#00FF50"/>
<stop offset="1" stop-color="#00A2FF"/>
</linearGradient>
<linearGradient id="paint8_linear_1468_1927" x1="15.9162" y1="-2.71671" x2="95.5555" y2="77.4508" gradientUnits="userSpaceOnUse">
<stop stop-color="#00FF50"/>
<stop offset="1" stop-color="#00A2FF"/>
</linearGradient>
<linearGradient id="paint9_linear_1468_1927" x1="28.0864" y1="-14.8078" x2="107.726" y2="65.3597" gradientUnits="userSpaceOnUse">
<stop stop-color="#00FF50"/>
<stop offset="1" stop-color="#00A2FF"/>
</linearGradient>
<linearGradient id="paint10_linear_1468_1927" x1="-2.77386" y1="15.8492" x2="76.8655" y2="96.0168" gradientUnits="userSpaceOnUse">
<stop stop-color="#00FF50"/>
<stop offset="1" stop-color="#00A2FF"/>
</linearGradient>
</defs>
</svg>
