<svg width="71" height="71" viewBox="0 0 71 71" fill="none" xmlns="http://www.w3.org/2000/svg">
<path d="M66.3701 23.8593C66.0165 23.8593 65.7296 23.5743 65.7296 23.223V14.3731C65.7296 9.33599 61.6044 5.23554 56.5313 5.23554H42.6239C42.2703 5.23554 41.9834 4.95046 41.9834 4.59921C41.9834 4.24797 42.2703 3.96289 42.6239 3.96289H56.5313C62.309 3.96289 67.0106 8.63349 67.0106 14.3731V23.223C67.0106 23.5743 66.7236 23.8593 66.3701 23.8593Z" fill="url(#paint0_linear_785_2058)"/>
<path d="M4.63003 28.922C4.27646 28.922 3.9895 28.6368 3.9895 28.2857V14.3731C3.9895 8.63349 8.69107 3.96289 14.4688 3.96289H23.3595C23.7131 3.96289 24 4.24797 24 4.59921C24 4.95046 23.7131 5.23554 23.3595 5.23554H14.4688C9.39822 5.23554 5.27058 9.33345 5.27058 14.3731V28.2857C5.27058 28.6368 4.98362 28.922 4.63003 28.922Z" fill="url(#paint1_linear_785_2058)"/>
<path d="M56.5316 66.5694H47.6409C47.2873 66.5694 47.0004 66.2844 47.0004 65.9331C47.0004 65.5819 47.2873 65.2968 47.6409 65.2968H56.5316C61.6021 65.2968 65.7298 61.1989 65.7298 56.1592V42.3282C65.7298 41.9769 66.0167 41.6919 66.3703 41.6919C66.7239 41.6919 67.0108 41.9769 67.0108 42.3282V56.1592C67.0108 61.8989 62.3092 66.5694 56.5316 66.5694Z" fill="url(#paint2_linear_785_2058)"/>
<path d="M28.371 66.5694H14.4688C8.69107 66.5694 3.9895 61.8987 3.9895 56.1592V47.3448C3.9895 46.9937 4.27646 46.7085 4.63003 46.7085C4.98362 46.7085 5.27058 46.9937 5.27058 47.3448V56.1592C5.27058 61.1963 9.39567 65.2968 14.4688 65.2968H28.371C28.7246 65.2968 29.0115 65.5818 29.0115 65.9331C29.0115 66.2843 28.7246 66.5694 28.371 66.5694Z" fill="url(#paint3_linear_785_2058)"/>
<path d="M0 47.345L4.62983 42.7456L9.26221 47.345H0Z" fill="url(#paint4_linear_785_2058)"/>
<path d="M35.5015 58.1317C34.5355 58.1317 33.5695 57.8848 32.7062 57.391L17.6099 48.7345C15.8856 47.7469 14.8146 45.9041 14.8146 43.9265V26.6109C14.8146 24.6332 15.8856 22.7904 17.6099 21.8028L32.7062 13.1438C34.4305 12.1562 36.5725 12.1562 38.2943 13.1438L53.3904 21.8028C55.1148 22.7929 56.1857 24.6332 56.1857 26.6109V43.9265C56.1857 45.9041 55.1148 47.7469 53.3904 48.7345L38.2943 57.391C37.4333 57.8848 36.4673 58.1317 35.5015 58.1317ZM33.3467 14.2434L18.2504 22.9024C16.9207 23.6634 16.0956 25.0837 16.0956 26.6084V43.9239C16.0956 45.4485 16.9207 46.8688 18.2504 47.6298L33.3467 56.2863C34.6765 57.0473 36.3265 57.0499 37.6536 56.2863L52.7499 47.6298C54.0798 46.8688 54.9047 45.4485 54.9047 43.9239V26.6084C54.9047 25.0837 54.0798 23.6634 52.7499 22.9024L37.6536 14.2434C36.3265 13.4823 34.6765 13.4823 33.3467 14.2434Z" fill="#BEC2CB"/>
<path d="M48.1713 28.0008L35.5016 35.2676L22.8291 28.0008L35.5016 20.7314L48.1713 28.0008Z" fill="url(#paint5_linear_785_2058)"/>
<path d="M35.5023 35.9038C35.3922 35.9038 35.282 35.8758 35.1821 35.8197L22.5121 28.553C22.315 28.4385 22.1919 28.2298 22.1919 28.0007C22.1919 27.7741 22.315 27.563 22.5121 27.4484L35.1821 20.1816C35.3794 20.0671 35.6254 20.0671 35.8227 20.1816L48.4925 27.4484C48.6898 27.563 48.8128 27.7716 48.8128 28.0007C48.8128 28.2272 48.6898 28.4385 48.4925 28.553L35.8227 35.8197C35.7228 35.8758 35.6125 35.9038 35.5023 35.9038ZM24.111 28.0007L35.4998 34.5344L46.8887 28.0007L35.4998 21.467L24.111 28.0007Z" fill="white"/>
<path d="M48.1712 42.5343L35.5013 49.8011V35.2675L48.1712 28.0007V42.5343Z" fill="url(#paint6_linear_785_2058)"/>
<path d="M35.5011 50.4372C35.3909 50.4372 35.2808 50.4092 35.1808 50.3532C34.9835 50.2386 34.8606 50.03 34.8606 49.8009V35.2673C34.8606 35.0408 34.9835 34.8295 35.1808 34.7174L47.8508 27.4507C48.0479 27.3361 48.2939 27.3361 48.4913 27.4507C48.6886 27.5652 48.8115 27.774 48.8115 28.0031V42.5366C48.8115 42.7632 48.6886 42.9744 48.4913 43.0889L35.8214 50.3557C35.7214 50.4092 35.6113 50.4372 35.5011 50.4372ZM36.1416 35.6338V48.6988L47.5305 42.165V29.1001L36.1416 35.6338Z" fill="white"/>
<path d="M22.8287 28.0007L35.4986 35.2675H35.5012L35.4986 49.8011L22.8287 42.5343V28.0007Z" fill="url(#paint7_linear_785_2058)"/>
<path d="M35.4989 50.4374C35.3887 50.4374 35.2784 50.4094 35.1786 50.3534L22.5087 43.0867C22.3114 42.9722 22.1884 42.7634 22.1884 42.5343V28.0007C22.1884 27.7742 22.3114 27.563 22.5087 27.4485C22.7059 27.3339 22.9519 27.3339 23.1492 27.4485L35.8191 34.7152C36.0165 34.8298 36.1394 35.0384 36.1394 35.265V49.7986C36.1394 50.0251 36.0165 50.2364 35.8191 50.3508C35.7218 50.4094 35.6115 50.4374 35.4989 50.4374ZM23.4695 42.1678L34.8583 48.7015V35.6366L23.4695 29.1029V42.1678Z" fill="white"/>
<path d="M23.2797 0L27.9095 4.59932L23.2797 9.20121V0Z" fill="url(#paint8_linear_785_2058)"/>
<path d="M71 23.2231L66.3702 27.8249L61.7378 23.2231H71Z" fill="url(#paint9_linear_785_2058)"/>
<path d="M47.641 70.5323L43.0112 65.933L47.641 61.3311V70.5323Z" fill="url(#paint10_linear_785_2058)"/>
<path d="M35.5015 7.84448C37.3057 7.84448 38.7682 6.39153 38.7682 4.59924C38.7682 2.80694 37.3057 1.354 35.5015 1.354C33.6973 1.354 32.2346 2.80694 32.2346 4.59924C32.2346 6.39153 33.6973 7.84448 35.5015 7.84448Z" fill="#BEC2CB"/>
<path d="M67.623 38.2652C69.2898 37.5793 70.0814 35.6808 69.3909 34.025C68.7004 32.3691 66.7895 31.5827 65.1226 32.2686C63.4557 32.9545 62.6642 34.853 63.3546 36.5088C64.0451 38.1648 65.9561 38.9511 67.623 38.2652Z" fill="#BEC2CB"/>
<path d="M37.8106 68.2269C39.0864 66.9596 39.0864 64.9049 37.8106 63.6376C36.5349 62.3702 34.4666 62.3702 33.1908 63.6376C31.9151 64.9049 31.9151 66.9596 33.1908 68.2269C34.4666 69.4943 36.5349 69.4943 37.8106 68.2269Z" fill="#BEC2CB"/>
<path d="M7.80938 36.015C8.22398 34.2708 7.13669 32.5228 5.38087 32.111C3.62504 31.6991 1.86556 32.7793 1.45096 34.5236C1.03636 36.2677 2.12364 38.0157 3.87946 38.4275C5.6353 38.8394 7.39478 37.7593 7.80938 36.015Z" fill="#BEC2CB"/>
<defs>
<linearGradient id="paint0_linear_785_2058" x1="30.0801" y1="-16.7892" x2="109.719" y2="63.3783" gradientUnits="userSpaceOnUse">
<stop stop-color="#00FF50"/>
<stop offset="1" stop-color="#00A2FF"/>
</linearGradient>
<linearGradient id="paint1_linear_785_2058" x1="5.31173" y1="7.81646" x2="84.9511" y2="87.9839" gradientUnits="userSpaceOnUse">
<stop stop-color="#00FF50"/>
<stop offset="1" stop-color="#00A2FF"/>
</linearGradient>
<linearGradient id="paint2_linear_785_2058" x1="7.84774" y1="5.29711" x2="87.4871" y2="85.4646" gradientUnits="userSpaceOnUse">
<stop stop-color="#00FF50"/>
<stop offset="1" stop-color="#00A2FF"/>
</linearGradient>
<linearGradient id="paint3_linear_785_2058" x1="-16.9015" y1="29.8836" x2="62.7377" y2="110.051" gradientUnits="userSpaceOnUse">
<stop stop-color="#00FF50"/>
<stop offset="1" stop-color="#00A2FF"/>
</linearGradient>
<linearGradient id="paint4_linear_785_2058" x1="-14.9244" y1="27.9194" x2="64.7149" y2="108.087" gradientUnits="userSpaceOnUse">
<stop stop-color="#00FF50"/>
<stop offset="1" stop-color="#00A2FF"/>
</linearGradient>
<linearGradient id="paint5_linear_785_2058" x1="10.2477" y1="2.91318" x2="89.887" y2="83.0807" gradientUnits="userSpaceOnUse">
<stop stop-color="#00FF50"/>
<stop offset="1" stop-color="#00A2FF"/>
</linearGradient>
<linearGradient id="paint6_linear_785_2058" x1="7.92825" y1="5.21709" x2="87.5676" y2="85.3846" gradientUnits="userSpaceOnUse">
<stop stop-color="#00FF50"/>
<stop offset="1" stop-color="#00A2FF"/>
</linearGradient>
<linearGradient id="paint7_linear_785_2058" x1="1.59282" y1="11.5107" x2="81.2322" y2="91.6781" gradientUnits="userSpaceOnUse">
<stop stop-color="#00FF50"/>
<stop offset="1" stop-color="#00A2FF"/>
</linearGradient>
<linearGradient id="paint8_linear_785_2058" x1="15.9146" y1="-2.71671" x2="95.5539" y2="77.4508" gradientUnits="userSpaceOnUse">
<stop stop-color="#00FF50"/>
<stop offset="1" stop-color="#00A2FF"/>
</linearGradient>
<linearGradient id="paint9_linear_785_2058" x1="28.0859" y1="-14.8078" x2="107.725" y2="65.3597" gradientUnits="userSpaceOnUse">
<stop stop-color="#00FF50"/>
<stop offset="1" stop-color="#00A2FF"/>
</linearGradient>
<linearGradient id="paint10_linear_785_2058" x1="-2.77435" y1="15.8492" x2="76.8651" y2="96.0168" gradientUnits="userSpaceOnUse">
<stop stop-color="#00FF50"/>
<stop offset="1" stop-color="#00A2FF"/>
</linearGradient>
</defs>
</svg>
