<svg width="64" height="70" viewBox="0 0 64 70" fill="none" xmlns="http://www.w3.org/2000/svg">
<path d="M26.2922 20.6553L18.2202 28.8011V40.3188L26.2922 48.4647H37.7078L45.7775 40.3188V28.8011L37.7078 20.6553H26.2922Z" stroke="#BEC2CB" stroke-width="1.5" stroke-miterlimit="10" stroke-linecap="round" stroke-linejoin="round"/>
<path d="M37.1114 34.56L31.9989 39.7193L26.8864 34.56L31.9989 29.4009L37.1114 34.56Z" fill="url(#paint0_linear_785_2047)"/>
<path d="M38.3336 66.2086C38.0714 66.2086 37.8366 66.0218 37.78 65.7527C37.7168 65.4449 37.9155 65.1439 38.2206 65.0802C45.0839 63.6621 51.3328 59.8616 55.8195 54.3763C60.3649 48.8181 62.8681 41.7802 62.8681 34.56C62.8681 27.4218 60.4146 20.4479 55.9619 14.9215C51.5722 9.47274 45.4341 5.64262 38.6792 4.14021C38.3742 4.0718 38.1822 3.7686 38.25 3.46081C38.3177 3.15303 38.6181 2.95925 38.9232 3.02764C45.9265 4.58706 52.2884 8.55625 56.8406 14.2034C61.4561 19.9326 64 27.162 64 34.5623C64 42.047 61.4042 49.3425 56.6916 55.1036C52.0421 60.7895 45.5629 64.7291 38.4488 66.1996C38.4104 66.2042 38.372 66.2086 38.3336 66.2086Z" fill="url(#paint1_linear_785_2047)"/>
<path d="M25.1219 66.0931C25.0813 66.0931 25.0406 66.0886 24.9978 66.0794C18.0124 64.5064 11.6686 60.5326 7.13445 54.89C2.53478 49.1676 0 41.9474 0 34.5629C0 27.1763 2.53478 19.9561 7.13672 14.2314C11.6731 8.58885 18.0191 4.61509 25.0045 3.04429C25.3094 2.97818 25.61 3.16968 25.6777 3.47747C25.7455 3.78524 25.5534 4.08846 25.2485 4.15685C18.5093 5.67294 12.387 9.50535 8.01101 14.9496C3.574 20.4736 1.12958 27.4385 1.12958 34.5629C1.12958 41.6874 3.574 48.6524 8.01101 54.1741C12.387 59.6183 18.5048 63.4508 25.2439 64.9691C25.5489 65.0376 25.7409 65.343 25.6732 65.6508C25.6145 65.913 25.3795 66.0931 25.1219 66.0931Z" fill="url(#paint2_linear_785_2047)"/>
<path d="M31.9988 58.831C26.7282 58.831 21.7242 57.1416 17.529 53.9477C13.4692 50.8585 10.4306 46.4652 8.97118 41.5795C8.88081 41.2786 9.05026 40.9594 9.34846 40.8682C9.64668 40.777 9.96295 40.948 10.0533 41.2489C11.445 45.9044 14.3412 50.0924 18.2112 53.0357C22.2099 56.0792 26.9791 57.6888 32.0011 57.6888C37.0482 57.6888 41.8353 56.0655 45.8454 52.9947C49.7266 50.0218 52.6184 45.804 53.9896 41.1144C54.0777 40.8135 54.3918 40.6403 54.6922 40.7291C54.9905 40.8181 55.1621 41.135 55.074 41.4359C53.6349 46.3557 50.6008 50.7832 46.5299 53.8998C42.3187 57.1258 37.2943 58.831 31.9988 58.831Z" fill="url(#paint3_linear_785_2047)"/>
<path d="M9.45232 28.4753C9.40036 28.4753 9.34614 28.4684 9.29417 28.4524C8.9937 28.3635 8.82201 28.0489 8.91012 27.7457C10.3379 22.8099 13.3697 18.3665 17.4475 15.2362C21.6609 12.0011 26.6921 10.2913 31.9988 10.2913C37.2852 10.2913 42.3007 11.9897 46.505 15.2021C50.5715 18.3094 53.6078 22.7255 55.0537 27.6316C55.1417 27.9326 54.9723 28.2518 54.674 28.3407C54.3759 28.4296 54.0596 28.2586 53.9714 27.9576C52.5934 23.2795 49.6994 19.0732 45.8227 16.1116C41.8172 13.0499 37.0368 11.4335 31.9988 11.4335C26.9405 11.4335 22.1444 13.0636 18.1298 16.1459C14.244 19.1301 11.3545 23.3638 9.99226 28.0694C9.92222 28.3134 9.69856 28.4753 9.45232 28.4753Z" fill="url(#paint4_linear_785_2047)"/>
<path d="M31.999 5.67679C33.5523 5.67679 34.8117 4.40599 34.8117 2.83839C34.8117 1.27079 33.5523 0 31.999 0C30.4456 0 29.1863 1.27079 29.1863 2.83839C29.1863 4.40599 30.4456 5.67679 31.999 5.67679Z" fill="#BEC2CB"/>
<path d="M31.8566 69.1199C33.4099 69.1199 34.6693 67.8491 34.6693 66.2815C34.6693 64.7139 33.4099 63.4431 31.8566 63.4431C30.3032 63.4431 29.044 64.7139 29.044 66.2815C29.044 67.8491 30.3032 69.1199 31.8566 69.1199Z" fill="#BEC2CB"/>
<path d="M8.5147 37.3985C10.0681 37.3985 11.3274 36.1277 11.3274 34.5601C11.3274 32.9925 10.0681 31.7217 8.5147 31.7217C6.9613 31.7217 5.70203 32.9925 5.70203 34.5601C5.70203 36.1277 6.9613 37.3985 8.5147 37.3985Z" fill="#BEC2CB"/>
<path d="M55.4852 37.3985C57.0386 37.3985 58.2979 36.1277 58.2979 34.5601C58.2979 32.9925 57.0386 31.7217 55.4852 31.7217C53.9318 31.7217 52.6725 32.9925 52.6725 34.5601C52.6725 36.1277 53.9318 37.3985 55.4852 37.3985Z" fill="#BEC2CB"/>
<defs>
<linearGradient id="paint0_linear_785_2047" x1="10.2261" y1="12.5876" x2="89.0274" y2="90.6746" gradientUnits="userSpaceOnUse">
<stop stop-color="#00FF50"/>
<stop offset="1" stop-color="#00A2FF"/>
</linearGradient>
<linearGradient id="paint1_linear_785_2047" x1="15.2241" y1="7.54368" x2="94.0254" y2="85.6307" gradientUnits="userSpaceOnUse">
<stop stop-color="#00FF50"/>
<stop offset="1" stop-color="#00A2FF"/>
</linearGradient>
<linearGradient id="paint2_linear_785_2047" x1="5.06495" y1="17.7988" x2="83.8662" y2="95.8858" gradientUnits="userSpaceOnUse">
<stop stop-color="#00FF50"/>
<stop offset="1" stop-color="#00A2FF"/>
</linearGradient>
<linearGradient id="paint3_linear_785_2047" x1="5.89185" y1="16.9613" x2="84.6932" y2="95.0482" gradientUnits="userSpaceOnUse">
<stop stop-color="#00FF50"/>
<stop offset="1" stop-color="#00A2FF"/>
</linearGradient>
<linearGradient id="paint4_linear_785_2047" x1="14.5399" y1="8.23425" x2="93.3412" y2="86.3213" gradientUnits="userSpaceOnUse">
<stop stop-color="#00FF50"/>
<stop offset="1" stop-color="#00A2FF"/>
</linearGradient>
</defs>
</svg>
