<svg width="64" height="70" viewBox="0 0 64 70" fill="none" xmlns="http://www.w3.org/2000/svg">
<path d="M26.2908 20.6553L18.2188 28.8011V40.3188L26.2908 48.4647H37.7064L45.7761 40.3188V28.8011L37.7064 20.6553H26.2908Z" stroke="white" stroke-width="1.5" stroke-miterlimit="10" stroke-linecap="round" stroke-linejoin="round"/>
<path d="M37.1117 34.56L31.9992 39.7193L26.8867 34.56L31.9992 29.4009L37.1117 34.56Z" fill="url(#paint0_linear_1468_1916)"/>
<path d="M38.3349 66.2086C38.0727 66.2086 37.8378 66.0218 37.7813 65.7527C37.718 65.4449 37.9168 65.1439 38.2218 65.0802C45.0852 63.6621 51.334 59.8616 55.8208 54.3763C60.3662 48.8181 62.8694 41.7802 62.8694 34.56C62.8694 27.4218 60.4159 20.4479 55.9632 14.9215C51.5735 9.47274 45.4354 5.64262 38.6805 4.14021C38.3754 4.0718 38.1834 3.7686 38.2513 3.46081C38.319 3.15303 38.6194 2.95925 38.9244 3.02764C45.9278 4.58706 52.2897 8.55625 56.8419 14.2034C61.4574 19.9326 64.0013 27.162 64.0013 34.5623C64.0013 42.047 61.4055 49.3425 56.6929 55.1036C52.0434 60.7895 45.5642 64.7291 38.4501 66.1996C38.4117 66.2042 38.3733 66.2086 38.3349 66.2086Z" fill="url(#paint1_linear_1468_1916)"/>
<path d="M25.1219 66.0931C25.0813 66.0931 25.0406 66.0886 24.9978 66.0794C18.0124 64.5064 11.6686 60.5326 7.13445 54.89C2.53478 49.1676 0 41.9474 0 34.5629C0 27.1763 2.53478 19.9561 7.13672 14.2314C11.6731 8.58885 18.0191 4.61509 25.0045 3.04429C25.3094 2.97818 25.61 3.16968 25.6777 3.47747C25.7455 3.78524 25.5534 4.08846 25.2485 4.15685C18.5093 5.67294 12.387 9.50535 8.01101 14.9496C3.574 20.4736 1.12958 27.4385 1.12958 34.5629C1.12958 41.6874 3.574 48.6524 8.01101 54.1741C12.387 59.6183 18.5048 63.4508 25.2439 64.9691C25.5489 65.0376 25.7409 65.343 25.6732 65.6508C25.6145 65.913 25.3795 66.0931 25.1219 66.0931Z" fill="url(#paint2_linear_1468_1916)"/>
<path d="M31.9973 58.831C26.7266 58.831 21.7226 57.1416 17.5274 53.9477C13.4676 50.8585 10.429 46.4652 8.96963 41.5795C8.87926 41.2786 9.0487 40.9594 9.34691 40.8682C9.64512 40.777 9.96139 40.948 10.0518 41.2489C11.4434 45.9044 14.3397 50.0924 18.2096 53.0357C22.2084 56.0792 26.9775 57.6888 31.9996 57.6888C37.0466 57.6888 41.8337 56.0655 45.8438 52.9947C49.725 50.0218 52.6168 45.804 53.9881 41.1144C54.0761 40.8135 54.3902 40.6403 54.6907 40.7291C54.9889 40.8181 55.1606 41.135 55.0725 41.4359C53.6334 46.3557 50.5993 50.7832 46.5284 53.8998C42.3172 57.1258 37.2928 58.831 31.9973 58.831Z" fill="url(#paint3_linear_1468_1916)"/>
<path d="M9.45201 28.4753C9.40006 28.4753 9.34583 28.4684 9.29387 28.4524C8.9934 28.3635 8.8217 28.0489 8.90982 27.7457C10.3376 22.8099 13.3694 18.3665 17.4472 15.2362C21.6606 12.0011 26.6918 10.2913 31.9985 10.2913C37.2849 10.2913 42.3004 11.9897 46.5046 15.2021C50.5712 18.3094 53.6075 22.7255 55.0534 27.6316C55.1414 27.9326 54.972 28.2518 54.6737 28.3407C54.3756 28.4296 54.0593 28.2586 53.9711 27.9576C52.5931 23.2795 49.6991 19.0732 45.8224 16.1116C41.8169 13.0499 37.0365 11.4335 31.9985 11.4335C26.9402 11.4335 22.1441 13.0636 18.1295 16.1459C14.2437 19.1301 11.3542 23.3638 9.99195 28.0694C9.92191 28.3134 9.69826 28.4753 9.45201 28.4753Z" fill="url(#paint4_linear_1468_1916)"/>
<path d="M32.0002 5.67679C33.5535 5.67679 34.8128 4.40599 34.8128 2.83839C34.8128 1.27079 33.5535 0 32.0002 0C30.4468 0 29.1875 1.27079 29.1875 2.83839C29.1875 4.40599 30.4468 5.67679 32.0002 5.67679Z" fill="white"/>
<path d="M31.8556 69.1199C33.4089 69.1199 34.6683 67.8491 34.6683 66.2815C34.6683 64.7139 33.4089 63.4431 31.8556 63.4431C30.3022 63.4431 29.043 64.7139 29.043 66.2815C29.043 67.8491 30.3022 69.1199 31.8556 69.1199Z" fill="white"/>
<path d="M8.5158 37.3985C10.0692 37.3985 11.3285 36.1277 11.3285 34.5601C11.3285 32.9925 10.0692 31.7217 8.5158 31.7217C6.9624 31.7217 5.70312 32.9925 5.70312 34.5601C5.70312 36.1277 6.9624 37.3985 8.5158 37.3985Z" fill="white"/>
<path d="M55.4846 37.3985C57.038 37.3985 58.2972 36.1277 58.2972 34.5601C58.2972 32.9925 57.038 31.7217 55.4846 31.7217C53.9311 31.7217 52.6719 32.9925 52.6719 34.5601C52.6719 36.1277 53.9311 37.3985 55.4846 37.3985Z" fill="white"/>
<defs>
<linearGradient id="paint0_linear_1468_1916" x1="10.2264" y1="12.5876" x2="89.0277" y2="90.6746" gradientUnits="userSpaceOnUse">
<stop stop-color="#00FF50"/>
<stop offset="1" stop-color="#00A2FF"/>
</linearGradient>
<linearGradient id="paint1_linear_1468_1916" x1="15.2254" y1="7.54368" x2="94.0266" y2="85.6307" gradientUnits="userSpaceOnUse">
<stop stop-color="#00FF50"/>
<stop offset="1" stop-color="#00A2FF"/>
</linearGradient>
<linearGradient id="paint2_linear_1468_1916" x1="5.06495" y1="17.7988" x2="83.8662" y2="95.8858" gradientUnits="userSpaceOnUse">
<stop stop-color="#00FF50"/>
<stop offset="1" stop-color="#00A2FF"/>
</linearGradient>
<linearGradient id="paint3_linear_1468_1916" x1="5.89029" y1="16.9613" x2="84.6917" y2="95.0482" gradientUnits="userSpaceOnUse">
<stop stop-color="#00FF50"/>
<stop offset="1" stop-color="#00A2FF"/>
</linearGradient>
<linearGradient id="paint4_linear_1468_1916" x1="14.5396" y1="8.23425" x2="93.3409" y2="86.3213" gradientUnits="userSpaceOnUse">
<stop stop-color="#00FF50"/>
<stop offset="1" stop-color="#00A2FF"/>
</linearGradient>
</defs>
</svg>
