<svg width="616" height="635" viewBox="0 0 616 635" fill="none" xmlns="http://www.w3.org/2000/svg">
<rect x="304.971" y="158.814" width="212.267" height="212.267" transform="rotate(45 304.971 158.814)" fill="#3EFF71" fill-opacity="0.05"/>
<rect x="304.971" y="158.814" width="212.267" height="212.267" transform="rotate(45 304.971 158.814)" stroke="#25C452"/>
<rect x="305.688" y="199.222" width="155.855" height="155.855" transform="rotate(45 305.688 199.222)" fill="url(#paint0_linear_785_2079)"/>
<path d="M339.718 289.464L305.778 269.605L272.684 289.107L272.613 328.396L305.989 348.254L339.718 328.824V289.464ZM305.849 275.606L330.916 290.321L305.989 305.037L280.922 290.321L305.849 275.606ZM302.962 340.111L277.753 325.467V296.179L302.891 310.894V340.111H302.962ZM309.44 311.323L334.577 296.607V325.824L309.44 340.611V311.323Z" fill="white"/>
<path d="M551.645 344.171V353.025H549.901V349.428H545.943V353.025H544.199V344.171H545.943V347.744H549.901V344.171H551.645ZM552.927 353.025L556.921 343.823H557.017L561.011 353.025H558.99L558.304 351.293H555.369L554.647 353.025H552.927ZM555.983 349.825H557.727L556.873 347.672L555.983 349.825ZM564.984 344.171C566.099 344.171 566.953 344.444 567.546 344.989C568.148 345.527 568.448 346.248 568.448 347.155C568.448 347.66 568.34 348.157 568.124 348.646C567.915 349.135 567.558 349.524 567.053 349.813L569.11 353.025H567.077L565.213 350.21H564.046V353.025H562.301V344.171H564.984ZM565.285 348.526C565.638 348.526 565.91 348.454 566.103 348.309C566.303 348.157 566.444 347.981 566.524 347.78C566.604 347.572 566.644 347.383 566.644 347.215C566.644 347.119 566.628 346.998 566.596 346.854C566.572 346.702 566.516 346.549 566.428 346.397C566.339 346.244 566.203 346.116 566.019 346.012C565.842 345.908 565.602 345.855 565.297 345.855H564.046V348.526H565.285ZM570.548 353.025V343.81H570.56L575.047 350.174L579.642 343.81H579.666V353.025H577.922V348.803L575.035 352.905H575.011L572.232 349.067V353.025H570.548ZM581.413 348.61C581.413 348.001 581.53 347.423 581.762 346.878C581.995 346.333 582.316 345.851 582.725 345.434C583.142 345.009 583.623 344.677 584.168 344.436C584.713 344.195 585.299 344.075 585.924 344.075C586.542 344.075 587.123 344.195 587.669 344.436C588.214 344.677 588.695 345.009 589.112 345.434C589.537 345.851 589.866 346.333 590.099 346.878C590.339 347.423 590.459 348.001 590.459 348.61C590.459 349.236 590.339 349.821 590.099 350.366C589.866 350.912 589.537 351.393 589.112 351.81C588.695 352.219 588.214 352.54 587.669 352.772C587.123 353.005 586.542 353.121 585.924 353.121C585.299 353.121 584.713 353.005 584.168 352.772C583.623 352.54 583.142 352.219 582.725 351.81C582.316 351.393 581.995 350.912 581.762 350.366C581.53 349.821 581.413 349.236 581.413 348.61ZM583.218 348.61C583.218 349.131 583.338 349.609 583.579 350.042C583.827 350.467 584.16 350.808 584.577 351.064C584.994 351.313 585.463 351.437 585.985 351.437C586.49 351.437 586.943 351.313 587.344 351.064C587.753 350.808 588.074 350.467 588.306 350.042C588.539 349.609 588.655 349.131 588.655 348.61C588.655 348.073 588.535 347.592 588.294 347.167C588.054 346.734 587.729 346.393 587.32 346.144C586.911 345.888 586.45 345.759 585.936 345.759C585.423 345.759 584.962 345.888 584.553 346.144C584.144 346.393 583.819 346.734 583.579 347.167C583.338 347.592 583.218 348.073 583.218 348.61ZM600.126 353.386L593.931 347.792L593.967 353.025H592.198V343.823H592.271L598.454 349.5L598.418 344.171H600.174V353.386H600.126ZM604.751 350.27L601.492 344.171H603.645L605.678 348.261L607.663 344.171H609.816L606.496 350.27V353.025H604.751V350.27Z" fill="#161616"/>
<g filter="url(#filter0_bd_785_2079)">
<circle cx="577.059" cy="306.083" r="28.9325" fill="white" fill-opacity="0.6" shape-rendering="crispEdges"/>
</g>
<path d="M584.619 290.217C582.913 290.216 581.276 290.936 580.068 292.219C578.86 293.502 578.179 295.243 578.174 297.06V304.647C577.511 304.695 576.832 304.725 576.128 304.725C575.425 304.725 574.75 304.755 574.083 304.798V297.06C574.055 295.259 573.365 293.541 572.159 292.277C570.954 291.013 569.33 290.304 567.639 290.304C565.948 290.304 564.324 291.013 563.119 292.277C561.913 293.541 561.223 295.259 561.195 297.06V315.194C561.223 316.996 561.913 318.714 563.119 319.977C564.324 321.241 565.948 321.95 567.639 321.95C569.33 321.95 570.954 321.241 572.159 319.977C573.365 318.714 574.055 316.996 574.083 315.194V307.607C574.746 307.559 575.425 307.529 576.128 307.529C576.832 307.529 577.507 307.499 578.174 307.456V315.194C578.201 316.996 578.892 318.714 580.098 319.977C581.303 321.241 582.926 321.95 584.618 321.95C586.309 321.95 587.932 321.241 589.138 319.977C590.343 318.714 591.034 316.996 591.061 315.194V297.06C591.057 295.243 590.376 293.502 589.168 292.219C587.96 290.936 586.324 290.216 584.619 290.217ZM567.638 293.021C568.645 293.02 569.611 293.445 570.324 294.203C571.037 294.96 571.438 295.988 571.441 297.06V305.095C569.556 305.386 567.715 305.94 565.966 306.744C565.208 307.098 564.494 307.552 563.842 308.095V297.06C563.845 295.989 564.246 294.962 564.957 294.205C565.669 293.448 566.633 293.022 567.638 293.021ZM571.441 315.194C571.441 316.268 571.04 317.299 570.327 318.059C569.614 318.819 568.647 319.246 567.638 319.246C566.63 319.246 565.662 318.819 564.949 318.059C564.236 317.299 563.835 316.268 563.835 315.194V313.375C563.835 311.768 565.03 310.246 567.033 309.298C568.444 308.65 569.924 308.189 571.441 307.925V315.194ZM584.619 319.233C583.612 319.234 582.646 318.809 581.933 318.051C581.22 317.294 580.818 316.266 580.816 315.194V307.159C582.701 306.868 584.542 306.314 586.291 305.51C587.049 305.156 587.762 304.702 588.415 304.16V315.194C588.412 316.265 588.011 317.292 587.3 318.049C586.588 318.806 585.624 319.232 584.619 319.233ZM585.224 302.945C583.813 303.594 582.332 304.055 580.816 304.319V297.06C580.816 295.986 581.216 294.955 581.93 294.195C582.643 293.435 583.61 293.009 584.619 293.009C585.627 293.009 586.594 293.435 587.308 294.195C588.021 294.955 588.421 295.986 588.421 297.06V298.879C588.421 300.479 587.227 302.001 585.224 302.945Z" fill="url(#paint1_linear_785_2079)"/>
<path d="M410.955 115.301H416.488V116.986H412.699V118.994H415.983V120.679H412.699V124.155H410.955V115.301ZM416.323 124.155L420.317 114.953H420.413L424.407 124.155H422.386L421.7 122.423H418.765L418.044 124.155H416.323ZM419.379 120.955H421.123L420.269 118.802L419.379 120.955ZM433.625 124.516L427.43 118.922L427.466 124.155H425.698V114.953H425.77L431.953 120.63L431.917 115.301H433.673V124.516H433.625ZM435.352 115.301H441.318V116.986H439.165V124.155H437.421V116.986H435.352V115.301ZM442.155 119.74C442.155 119.131 442.271 118.553 442.504 118.008C442.736 117.463 443.057 116.982 443.466 116.565C443.883 116.14 444.364 115.807 444.909 115.566C445.455 115.326 446.04 115.205 446.666 115.205C447.283 115.205 447.865 115.326 448.41 115.566C448.955 115.807 449.436 116.14 449.853 116.565C450.278 116.982 450.607 117.463 450.84 118.008C451.08 118.553 451.201 119.131 451.201 119.74C451.201 120.366 451.08 120.951 450.84 121.497C450.607 122.042 450.278 122.523 449.853 122.94C449.436 123.349 448.955 123.67 448.41 123.902C447.865 124.135 447.283 124.251 446.666 124.251C446.04 124.251 445.455 124.135 444.909 123.902C444.364 123.67 443.883 123.349 443.466 122.94C443.057 122.523 442.736 122.042 442.504 121.497C442.271 120.951 442.155 120.366 442.155 119.74ZM443.959 119.74C443.959 120.262 444.079 120.739 444.32 121.172C444.569 121.597 444.901 121.938 445.318 122.194C445.735 122.443 446.205 122.567 446.726 122.567C447.231 122.567 447.684 122.443 448.085 122.194C448.494 121.938 448.815 121.597 449.047 121.172C449.28 120.739 449.396 120.262 449.396 119.74C449.396 119.203 449.276 118.722 449.035 118.297C448.795 117.864 448.47 117.523 448.061 117.274C447.652 117.018 447.191 116.889 446.678 116.889C446.164 116.889 445.703 117.018 445.294 117.274C444.885 117.523 444.561 117.864 444.32 118.297C444.079 118.722 443.959 119.203 443.959 119.74ZM452.94 124.155V114.941H452.952L457.439 121.304L462.034 114.941H462.058V124.155H460.314V119.933L457.427 124.035H457.403L454.624 120.197V124.155H452.94Z" fill="#161616"/>
<g filter="url(#filter1_bd_785_2079)">
<ellipse cx="437.09" cy="159.536" rx="28.9325" ry="28.8621" fill="white" fill-opacity="0.6" shape-rendering="crispEdges"/>
</g>
<path d="M446.622 148.108L438.779 143.997C437.912 143.548 436.63 143.548 435.763 143.997L427.92 148.108C427.656 148.258 427.43 148.445 427.241 148.669H426.902V170.87H427.241C427.392 171.094 427.618 171.281 427.92 171.431L435.763 175.542C436.178 175.766 436.743 175.879 437.271 175.879C437.799 175.879 438.365 175.766 438.779 175.542L446.622 171.431C446.924 171.281 447.15 171.094 447.301 170.87H447.64V148.669H447.301C447.15 148.445 446.924 148.258 446.622 148.108ZM428.787 151.36L434.858 154.537L428.787 157.714V151.36ZM436.328 155.845V163.208L429.315 159.508L436.328 155.845ZM438.214 155.845L445.227 159.545L438.214 163.245V155.845ZM439.684 154.537L445.755 151.36V157.714L439.684 154.537ZM436.63 145.641C436.932 145.492 437.573 145.492 437.874 145.641L445.227 149.491L437.912 153.341C437.611 153.49 436.97 153.49 436.668 153.341L429.277 149.491L436.63 145.641ZM437.912 173.898C437.611 174.047 436.97 174.047 436.668 173.898L429.277 170.048L428.787 169.525V161.377L435.763 165.04C436.178 165.264 436.743 165.376 437.271 165.376C437.799 165.376 438.365 165.264 438.779 165.04L445.755 161.377V169.525L445.265 170.048L437.912 173.898Z" fill="#3367F6"/>
<path d="M448.248 145.267L448.059 145.155L447.079 146.762L447.267 146.874C448.587 147.659 448.926 147.846 448.926 149.528H450.812C450.812 146.911 449.907 146.239 448.248 145.267Z" fill="#3367F6"/>
<path d="M425.472 169.674H423.587C423.587 172.29 424.492 172.963 426.151 173.935L426.34 174.047L427.32 172.44L427.131 172.328C425.774 171.543 425.472 171.356 425.472 169.674Z" fill="#3367F6"/>
<path d="M410.219 482.069C411.318 482.069 412.16 482.342 412.746 482.887C413.331 483.424 413.624 484.146 413.624 485.052C413.624 485.413 413.568 485.778 413.455 486.147C413.351 486.508 413.179 486.837 412.938 487.134C412.705 487.43 412.389 487.671 411.988 487.855C411.595 488.032 411.11 488.12 410.532 488.12H409.281V490.923H407.537V482.069H410.219ZM410.52 486.424C410.873 486.424 411.146 486.348 411.338 486.195C411.539 486.035 411.679 485.85 411.759 485.642C411.839 485.433 411.879 485.253 411.879 485.101C411.879 485.012 411.863 484.896 411.831 484.752C411.807 484.599 411.751 484.447 411.663 484.295C411.575 484.142 411.438 484.014 411.254 483.91C411.078 483.805 410.837 483.753 410.532 483.753H409.281V486.424H410.52ZM414.643 486.508C414.643 485.899 414.759 485.321 414.992 484.776C415.224 484.23 415.545 483.749 415.954 483.332C416.371 482.907 416.852 482.574 417.398 482.334C417.943 482.093 418.529 481.973 419.154 481.973C419.772 481.973 420.353 482.093 420.898 482.334C421.444 482.574 421.925 482.907 422.342 483.332C422.767 483.749 423.096 484.23 423.328 484.776C423.569 485.321 423.689 485.899 423.689 486.508C423.689 487.134 423.569 487.719 423.328 488.264C423.096 488.81 422.767 489.291 422.342 489.708C421.925 490.117 421.444 490.438 420.898 490.67C420.353 490.903 419.772 491.019 419.154 491.019C418.529 491.019 417.943 490.903 417.398 490.67C416.852 490.438 416.371 490.117 415.954 489.708C415.545 489.291 415.224 488.81 414.992 488.264C414.759 487.719 414.643 487.134 414.643 486.508ZM416.447 486.508C416.447 487.029 416.568 487.506 416.808 487.939C417.057 488.365 417.39 488.705 417.807 488.962C418.224 489.211 418.693 489.335 419.214 489.335C419.719 489.335 420.173 489.211 420.574 488.962C420.983 488.705 421.303 488.365 421.536 487.939C421.768 487.506 421.885 487.029 421.885 486.508C421.885 485.971 421.764 485.49 421.524 485.064C421.283 484.631 420.958 484.291 420.549 484.042C420.14 483.785 419.679 483.657 419.166 483.657C418.653 483.657 418.192 483.785 417.783 484.042C417.374 484.291 417.049 484.631 416.808 485.064C416.568 485.49 416.447 485.971 416.447 486.508ZM425.428 482.069H427.172V489.239H431.334V490.923H425.428V482.069ZM433.987 488.168L430.727 482.069H432.88L434.913 486.159L436.898 482.069H439.051L435.731 488.168V490.923H433.987V488.168ZM446.648 490.033C446.543 490.145 446.379 490.261 446.154 490.381C445.93 490.494 445.669 490.598 445.373 490.694C445.084 490.79 444.787 490.867 444.482 490.923C444.178 490.987 443.889 491.019 443.616 491.019C442.662 491.019 441.832 490.835 441.126 490.466C440.42 490.097 439.875 489.591 439.49 488.95C439.113 488.308 438.925 487.575 438.925 486.749C438.925 485.939 439.045 485.237 439.286 484.643C439.534 484.042 439.867 483.545 440.284 483.152C440.709 482.751 441.194 482.454 441.74 482.262C442.293 482.069 442.87 481.973 443.472 481.973C444.041 481.973 444.563 482.037 445.036 482.165C445.509 482.286 445.91 482.438 446.239 482.623L445.673 484.246C445.529 484.166 445.336 484.086 445.096 484.006C444.855 483.926 444.611 483.862 444.362 483.813C444.113 483.757 443.893 483.729 443.7 483.729C442.746 483.729 442.012 483.97 441.499 484.451C440.986 484.924 440.729 485.638 440.729 486.592C440.729 487.146 440.854 487.623 441.102 488.024C441.351 488.425 441.696 488.733 442.137 488.95C442.586 489.166 443.095 489.275 443.664 489.275C443.913 489.275 444.142 489.259 444.35 489.227C444.559 489.187 444.735 489.126 444.879 489.046V487.976H443.352V486.291H446.648V490.033ZM448.088 486.508C448.088 485.899 448.204 485.321 448.437 484.776C448.669 484.23 448.99 483.749 449.399 483.332C449.816 482.907 450.297 482.574 450.842 482.334C451.388 482.093 451.973 481.973 452.599 481.973C453.216 481.973 453.798 482.093 454.343 482.334C454.888 482.574 455.369 482.907 455.786 483.332C456.212 483.749 456.54 484.23 456.773 484.776C457.013 485.321 457.134 485.899 457.134 486.508C457.134 487.134 457.013 487.719 456.773 488.264C456.54 488.81 456.212 489.291 455.786 489.708C455.369 490.117 454.888 490.438 454.343 490.67C453.798 490.903 453.216 491.019 452.599 491.019C451.973 491.019 451.388 490.903 450.842 490.67C450.297 490.438 449.816 490.117 449.399 489.708C448.99 489.291 448.669 488.81 448.437 488.264C448.204 487.719 448.088 487.134 448.088 486.508ZM449.892 486.508C449.892 487.029 450.012 487.506 450.253 487.939C450.502 488.365 450.834 488.705 451.251 488.962C451.668 489.211 452.138 489.335 452.659 489.335C453.164 489.335 453.617 489.211 454.018 488.962C454.427 488.705 454.748 488.365 454.981 487.939C455.213 487.506 455.329 487.029 455.329 486.508C455.329 485.971 455.209 485.49 454.968 485.064C454.728 484.631 454.403 484.291 453.994 484.042C453.585 483.785 453.124 483.657 452.611 483.657C452.097 483.657 451.636 483.785 451.227 484.042C450.818 484.291 450.494 484.631 450.253 485.064C450.012 485.49 449.892 485.971 449.892 486.508ZM466.8 491.284L460.605 485.69L460.641 490.923H458.873V481.72H458.945L465.128 487.398L465.092 482.069H466.848V491.284H466.8Z" fill="#161616"/>
<g filter="url(#filter2_bd_785_2079)">
<circle cx="437.085" cy="443.898" r="28.9325" fill="white" fill-opacity="0.6" shape-rendering="crispEdges"/>
</g>
<path d="M448.564 438.337C447.832 437.946 446.838 437.946 446.001 438.337L439.985 441.609L435.904 443.709L430.045 447.03C429.313 447.421 428.319 447.421 427.482 447.03L422.879 444.442C422.146 444.051 421.571 443.221 421.571 442.342V437.312C421.571 436.53 421.989 435.7 422.879 435.212L427.43 432.721C428.162 432.33 429.156 432.33 429.993 432.721L434.597 435.309C435.329 435.7 435.904 436.53 435.904 437.409V440.73L439.985 438.533V435.114C439.985 434.333 439.566 433.502 438.677 433.014L430.15 428.326C429.418 427.935 428.424 427.935 427.587 428.326L418.798 433.112C417.909 433.502 417.49 434.333 417.49 435.114V444.539C417.49 445.321 417.909 446.151 418.798 446.639L427.43 451.327C428.162 451.718 429.156 451.718 429.993 451.327L435.904 448.104L439.985 445.907L445.896 442.684C446.629 442.293 447.622 442.293 448.459 442.684L453.063 445.174C453.795 445.565 454.371 446.395 454.371 447.274V452.255C454.371 453.037 453.952 453.867 453.063 454.355L448.564 456.846C447.832 457.237 446.838 457.237 446.001 456.846L441.397 454.355C440.665 453.965 440.089 453.134 440.089 452.255V449.032L436.009 451.23V454.551C436.009 455.332 436.428 456.162 437.317 456.651L446.001 461.339C446.733 461.73 447.727 461.73 448.564 461.339L457.248 456.699C457.98 456.309 458.556 455.479 458.556 454.599V445.125C458.556 444.344 458.137 443.514 457.248 443.025L448.564 438.337Z" fill="#8248E5"/>
<path d="M1.67542 353.025L5.66914 343.823H5.76537L9.75909 353.025H7.73817L7.05251 351.293H4.11736L3.39561 353.025H1.67542ZM4.73086 349.825H6.4751L5.62102 347.672L4.73086 349.825ZM11.0575 344.171L13.0784 349.164L14.979 344.171H17.0481L13.0062 353.434L8.96441 344.171H11.0575ZM16.3831 353.025L20.3768 343.823H20.473L24.4668 353.025H22.4458L21.7602 351.293H18.825L18.1033 353.025H16.3831ZM19.4385 349.825H21.1828L20.3287 347.672L19.4385 349.825ZM25.7574 344.171H27.5016V351.341H31.6637V353.025H25.7574V344.171ZM32.4652 353.025L36.4589 343.823H36.5551L40.5488 353.025H38.5279L37.8423 351.293H34.9071L34.1854 353.025H32.4652ZM35.5206 349.825H37.2649L36.4108 347.672L35.5206 349.825ZM49.7667 353.386L43.5717 347.792L43.6078 353.025H41.8395V343.823H41.9116L48.0947 349.5L48.0586 344.171H49.8149V353.386H49.7667ZM58.735 352.291C58.6388 352.371 58.4584 352.48 58.1937 352.616C57.9371 352.752 57.6203 352.873 57.2434 352.977C56.8665 353.081 56.4495 353.129 55.9924 353.121C55.2947 353.105 54.6691 352.981 54.1158 352.748C53.5705 352.508 53.1053 352.183 52.7204 351.774C52.3435 351.365 52.0548 350.896 51.8543 350.366C51.6538 349.837 51.5536 349.272 51.5536 348.67C51.5536 347.772 51.734 346.978 52.0949 346.289C52.4558 345.599 52.957 345.058 53.5985 344.665C54.2481 344.272 55.002 344.075 55.86 344.075C56.4535 344.075 56.9788 344.155 57.4359 344.316C57.893 344.476 58.2659 344.649 58.5546 344.833L57.8689 346.481C57.6684 346.329 57.3998 346.172 57.063 346.012C56.7342 345.843 56.3532 345.759 55.9202 345.759C55.4711 345.759 55.0501 345.884 54.6571 346.132C54.2722 346.381 53.9594 346.718 53.7188 347.143C53.4863 347.56 53.37 348.037 53.37 348.574C53.37 349.143 53.4782 349.645 53.6948 350.078C53.9113 350.503 54.2201 350.836 54.621 351.076C55.022 351.317 55.4911 351.437 56.0285 351.437C56.5016 351.437 56.9066 351.361 57.2434 351.208C57.5802 351.056 57.8369 350.896 58.0133 350.727L58.735 352.291ZM67.9286 344.171V353.025H66.1843V349.428H62.2267V353.025H60.4825V344.171H62.2267V347.744H66.1843V344.171H67.9286ZM70.2093 344.171H76.248V345.855H71.9535V347.744H75.7548V349.428H71.9535V351.341H76.4164V353.025H70.2093V344.171Z" fill="#161616"/>
<g filter="url(#filter3_bd_785_2079)">
<circle cx="39.5099" cy="306.083" r="28.9325" fill="white" fill-opacity="0.6" shape-rendering="crispEdges"/>
</g>
<circle cx="39.4402" cy="306.012" r="18.0388" fill="white"/>
<path fill-rule="evenodd" clip-rule="evenodd" d="M39.7514 326.818C51.3362 326.818 60.7275 317.427 60.7275 305.842C60.7275 294.258 51.3362 284.866 39.7514 284.866C28.1667 284.866 18.7754 294.258 18.7754 305.842C18.7754 317.427 28.1667 326.818 39.7514 326.818ZM33.4134 315.345H28.4926C27.3259 315.345 26.7426 315.345 26.3932 315.119C26.0156 314.875 25.7774 314.466 25.7522 314.017C25.7288 313.602 26.0177 313.095 26.5956 312.083L26.5958 312.083L37.3696 293.208C37.956 292.181 38.2492 291.667 38.6223 291.476C39.0253 291.27 39.5032 291.269 39.9065 291.475C40.2799 291.666 40.5738 292.179 41.1617 293.206L43.6465 297.544L43.6466 297.544C44.0741 298.29 44.2878 298.664 44.3818 299.057C44.4841 299.486 44.4843 299.933 44.3824 300.361C44.2887 300.755 44.0753 301.129 43.6484 301.875L37.2058 313.146C36.7727 313.904 36.5561 314.282 36.2594 314.566C35.9364 314.874 35.5448 315.101 35.1167 315.228C34.7234 315.345 34.2868 315.345 33.4134 315.345ZM50.9693 315.345H45.2642C44.087 315.345 43.4983 315.345 43.1478 315.117C42.7691 314.871 42.5316 314.458 42.5092 314.008C42.4885 313.59 42.7848 313.082 43.3773 312.066L46.2251 307.18C46.8101 306.176 47.1027 305.674 47.473 305.486C47.8733 305.283 48.3466 305.283 48.7471 305.485C49.1178 305.673 49.411 306.174 49.9973 307.177L49.9975 307.177L52.8548 312.063C53.4495 313.08 53.7469 313.589 53.7266 314.006C53.7046 314.457 53.4672 314.871 53.0884 315.117C52.7379 315.345 52.1484 315.345 50.9693 315.345Z" fill="#D74F4A"/>
<path d="M280.034 608.472C280.956 608.472 281.69 608.661 282.236 609.038C282.781 609.407 283.054 609.96 283.054 610.698C283.054 611.147 282.957 611.536 282.765 611.865C282.58 612.193 282.324 612.458 281.995 612.658C282.452 612.875 282.813 613.16 283.078 613.513C283.342 613.857 283.475 614.258 283.475 614.715C283.475 615.197 283.386 615.606 283.21 615.942C283.041 616.271 282.809 616.54 282.512 616.748C282.224 616.949 281.895 617.097 281.526 617.193C281.157 617.282 280.776 617.326 280.383 617.326H277.436V608.472H280.034ZM280.239 612.093C280.584 612.093 280.836 611.989 280.997 611.78C281.165 611.572 281.249 611.335 281.249 611.071C281.249 610.766 281.145 610.537 280.936 610.385C280.736 610.233 280.463 610.156 280.118 610.156H279.18V612.093H280.239ZM280.299 615.702C280.684 615.702 281.009 615.626 281.273 615.473C281.538 615.313 281.67 615.06 281.67 614.715C281.67 614.459 281.598 614.266 281.454 614.138C281.309 614.002 281.121 613.909 280.888 613.861C280.664 613.805 280.427 613.777 280.179 613.777H279.18V615.702H280.299ZM285.224 608.472H286.969V617.326H285.224V608.472ZM297.181 617.687L290.986 612.093L291.022 617.326H289.254V608.123H289.326L295.509 613.801L295.473 608.472H297.229V617.687H297.181ZM298.511 617.326L302.504 608.123H302.601L306.594 617.326H304.573L303.888 615.594H300.953L300.231 617.326H298.511ZM301.566 614.126H303.31L302.456 611.973L301.566 614.126ZM315.812 617.687L309.617 612.093L309.653 617.326H307.885V608.123H307.957L314.14 613.801L314.104 608.472H315.86V617.687H315.812ZM324.781 616.592C324.684 616.672 324.504 616.78 324.239 616.917C323.983 617.053 323.666 617.173 323.289 617.278C322.912 617.382 322.495 617.43 322.038 617.422C321.34 617.406 320.715 617.282 320.161 617.049C319.616 616.809 319.151 616.484 318.766 616.075C318.389 615.666 318.1 615.197 317.9 614.667C317.699 614.138 317.599 613.573 317.599 612.971C317.599 612.073 317.779 611.279 318.14 610.589C318.501 609.9 319.002 609.358 319.644 608.965C320.294 608.573 321.047 608.376 321.906 608.376C322.499 608.376 323.024 608.456 323.481 608.617C323.938 608.777 324.311 608.949 324.6 609.134L323.914 610.782C323.714 610.63 323.445 610.473 323.108 610.313C322.78 610.144 322.399 610.06 321.966 610.06C321.517 610.06 321.096 610.184 320.703 610.433C320.318 610.682 320.005 611.018 319.764 611.443C319.532 611.861 319.415 612.338 319.415 612.875C319.415 613.444 319.524 613.946 319.74 614.379C319.957 614.804 320.266 615.136 320.667 615.377C321.067 615.618 321.537 615.738 322.074 615.738C322.547 615.738 322.952 615.662 323.289 615.509C323.626 615.357 323.882 615.197 324.059 615.028L324.781 616.592ZM326.528 608.472H332.567V610.156H328.272V612.045H332.073V613.729H328.272V615.642H332.735V617.326H326.528V608.472ZM267.415 627.613C267.078 627.429 266.733 627.277 266.38 627.156C266.035 627.036 265.71 626.976 265.406 626.976C265.029 626.976 264.732 627.052 264.516 627.204C264.299 627.357 264.191 627.585 264.191 627.89C264.191 628.099 264.271 628.287 264.431 628.456C264.6 628.616 264.812 628.76 265.069 628.889C265.334 629.017 265.606 629.133 265.887 629.237C266.232 629.366 266.565 629.53 266.885 629.731C267.206 629.923 267.471 630.192 267.679 630.537C267.888 630.873 267.992 631.322 267.992 631.884C267.992 632.333 267.876 632.75 267.643 633.135C267.411 633.52 267.07 633.833 266.621 634.073C266.172 634.306 265.618 634.422 264.961 634.422C264.455 634.422 263.938 634.346 263.409 634.193C262.888 634.041 262.394 633.801 261.929 633.472L262.699 632.112C263.004 632.337 263.353 632.521 263.746 632.666C264.139 632.81 264.491 632.882 264.804 632.882C265.013 632.882 265.221 632.854 265.43 632.798C265.646 632.734 265.823 632.63 265.959 632.485C266.103 632.341 266.176 632.14 266.176 631.884C266.176 631.619 266.047 631.391 265.791 631.198C265.542 630.998 265.241 630.829 264.888 630.693C264.616 630.589 264.335 630.468 264.046 630.332C263.758 630.196 263.485 630.031 263.228 629.839C262.98 629.638 262.775 629.394 262.615 629.105C262.463 628.808 262.386 628.448 262.386 628.022C262.386 627.509 262.499 627.064 262.723 626.687C262.956 626.31 263.281 626.014 263.698 625.797C264.115 625.573 264.596 625.448 265.141 625.424C265.855 625.424 266.432 625.508 266.873 625.677C267.322 625.845 267.723 626.046 268.076 626.278L267.415 627.613ZM269.7 634.326V625.111H269.712L274.199 631.475L278.794 625.111H278.818V634.326H277.074V630.104L274.187 634.206H274.163L271.384 630.368V634.326H269.7ZM280.108 634.326L284.102 625.123H284.198L288.192 634.326H286.171L285.486 632.594H282.55L281.829 634.326H280.108ZM283.164 631.126H284.908L284.054 628.973L283.164 631.126ZM292.165 625.472C293.28 625.472 294.134 625.745 294.728 626.29C295.329 626.828 295.63 627.549 295.63 628.456C295.63 628.961 295.521 629.458 295.305 629.947C295.096 630.436 294.74 630.825 294.234 631.114L296.291 634.326H294.258L292.394 631.511H291.227V634.326H289.483V625.472H292.165ZM292.466 629.827C292.819 629.827 293.092 629.755 293.284 629.61C293.484 629.458 293.625 629.282 293.705 629.081C293.785 628.873 293.825 628.684 293.825 628.516C293.825 628.419 293.809 628.299 293.777 628.155C293.753 628.002 293.697 627.85 293.609 627.698C293.521 627.545 293.384 627.417 293.2 627.313C293.023 627.208 292.783 627.156 292.478 627.156H291.227V629.827H292.466ZM296.952 625.472H302.918V627.156H300.765V634.326H299.021V627.156H296.952V625.472ZM315.154 633.592C315.057 633.672 314.877 633.78 314.612 633.917C314.356 634.053 314.039 634.173 313.662 634.278C313.285 634.382 312.868 634.43 312.411 634.422C311.713 634.406 311.088 634.282 310.534 634.049C309.989 633.809 309.524 633.484 309.139 633.075C308.762 632.666 308.473 632.197 308.273 631.667C308.072 631.138 307.972 630.573 307.972 629.971C307.972 629.073 308.153 628.279 308.513 627.589C308.874 626.9 309.376 626.358 310.017 625.965C310.667 625.573 311.42 625.376 312.279 625.376C312.872 625.376 313.397 625.456 313.854 625.617C314.312 625.777 314.684 625.949 314.973 626.134L314.287 627.782C314.087 627.63 313.818 627.473 313.482 627.313C313.153 627.144 312.772 627.06 312.339 627.06C311.89 627.06 311.469 627.184 311.076 627.433C310.691 627.682 310.378 628.018 310.137 628.443C309.905 628.861 309.789 629.338 309.789 629.875C309.789 630.444 309.897 630.946 310.113 631.379C310.33 631.804 310.639 632.136 311.04 632.377C311.441 632.618 311.91 632.738 312.447 632.738C312.92 632.738 313.325 632.662 313.662 632.509C313.999 632.357 314.255 632.197 314.432 632.028L315.154 633.592ZM324.347 625.472V634.326H322.603V630.729H318.645V634.326H316.901V625.472H318.645V629.045H322.603V625.472H324.347ZM325.629 634.326L329.623 625.123H329.719L333.713 634.326H331.692L331.006 632.594H328.071L327.35 634.326H325.629ZM328.685 631.126H330.429L329.575 628.973L328.685 631.126ZM335.004 625.472H336.748V634.326H335.004V625.472ZM346.96 634.687L340.765 629.093L340.801 634.326H339.033V625.123H339.105L345.288 630.801L345.252 625.472H347.008V634.687H346.96Z" fill="#161616"/>
<g filter="url(#filter4_bd_785_2079)">
<circle cx="305.291" cy="570.17" r="28.9325" fill="white" fill-opacity="0.6" shape-rendering="crispEdges"/>
</g>
<path d="M306.226 560.875L298.976 568.124L294.757 563.906L306.226 552.437L317.698 563.909L313.479 568.128L306.226 560.875Z" fill="#F0B90A"/>
<path d="M295.997 571.102L291.778 566.884L287.56 571.103L291.778 575.321L295.997 571.102Z" fill="#F0B90A"/>
<path d="M306.226 581.331L298.976 574.082L294.751 578.295L294.757 578.301L306.226 589.769L317.698 578.297L317.7 578.294L313.479 574.078L306.226 581.331Z" fill="#F0B90A"/>
<path d="M320.674 575.323L324.892 571.104L320.673 566.886L316.455 571.105L320.674 575.323Z" fill="#F0B90A"/>
<path d="M310.506 571.101H310.508L306.227 566.82L301.95 571.109L306.227 575.386L310.508 571.105L310.51 571.103L310.506 571.101Z" fill="#F0B90A"/>
<path d="M143.636 124.155V114.941H143.648L148.135 121.304L152.73 114.941H152.754V124.155H151.01V119.933L148.123 124.035H148.099L145.32 120.197V124.155H143.636ZM154.501 119.74C154.501 119.131 154.618 118.553 154.85 118.008C155.083 117.463 155.403 116.982 155.812 116.565C156.229 116.14 156.711 115.807 157.256 115.566C157.801 115.326 158.387 115.205 159.012 115.205C159.63 115.205 160.211 115.326 160.756 115.566C161.302 115.807 161.783 116.14 162.2 116.565C162.625 116.982 162.954 117.463 163.186 118.008C163.427 118.553 163.547 119.131 163.547 119.74C163.547 120.366 163.427 120.951 163.186 121.497C162.954 122.042 162.625 122.523 162.2 122.94C161.783 123.349 161.302 123.67 160.756 123.902C160.211 124.135 159.63 124.251 159.012 124.251C158.387 124.251 157.801 124.135 157.256 123.902C156.711 123.67 156.229 123.349 155.812 122.94C155.403 122.523 155.083 122.042 154.85 121.497C154.618 120.951 154.501 120.366 154.501 119.74ZM156.306 119.74C156.306 120.262 156.426 120.739 156.667 121.172C156.915 121.597 157.248 121.938 157.665 122.194C158.082 122.443 158.551 122.567 159.072 122.567C159.578 122.567 160.031 122.443 160.432 122.194C160.841 121.938 161.161 121.597 161.394 121.172C161.627 120.739 161.743 120.262 161.743 119.74C161.743 119.203 161.623 118.722 161.382 118.297C161.141 117.864 160.817 117.523 160.408 117.274C159.999 117.018 159.538 116.889 159.024 116.889C158.511 116.889 158.05 117.018 157.641 117.274C157.232 117.523 156.907 117.864 156.667 118.297C156.426 118.722 156.306 119.203 156.306 119.74ZM164.745 119.74C164.745 119.131 164.861 118.553 165.094 118.008C165.326 117.463 165.647 116.982 166.056 116.565C166.473 116.14 166.954 115.807 167.5 115.566C168.045 115.326 168.63 115.205 169.256 115.205C169.873 115.205 170.455 115.326 171 115.566C171.545 115.807 172.027 116.14 172.444 116.565C172.869 116.982 173.198 117.463 173.43 118.008C173.671 118.553 173.791 119.131 173.791 119.74C173.791 120.366 173.671 120.951 173.43 121.497C173.198 122.042 172.869 122.523 172.444 122.94C172.027 123.349 171.545 123.67 171 123.902C170.455 124.135 169.873 124.251 169.256 124.251C168.63 124.251 168.045 124.135 167.5 123.902C166.954 123.67 166.473 123.349 166.056 122.94C165.647 122.523 165.326 122.042 165.094 121.497C164.861 120.951 164.745 120.366 164.745 119.74ZM166.549 119.74C166.549 120.262 166.67 120.739 166.91 121.172C167.159 121.597 167.492 121.938 167.909 122.194C168.326 122.443 168.795 122.567 169.316 122.567C169.821 122.567 170.274 122.443 170.675 122.194C171.084 121.938 171.405 121.597 171.638 121.172C171.87 120.739 171.987 120.262 171.987 119.74C171.987 119.203 171.866 118.722 171.626 118.297C171.385 117.864 171.06 117.523 170.651 117.274C170.242 117.018 169.781 116.889 169.268 116.889C168.755 116.889 168.294 117.018 167.885 117.274C167.476 117.523 167.151 117.864 166.91 118.297C166.67 118.722 166.549 119.203 166.549 119.74ZM183.457 124.516L177.262 118.922L177.298 124.155H175.53V114.953H175.602L181.785 120.63L181.749 115.301H183.505V124.516H183.457ZM188.468 115.301C189.583 115.301 190.437 115.574 191.03 116.119C191.632 116.657 191.932 117.379 191.932 118.285C191.932 118.79 191.824 119.287 191.608 119.776C191.399 120.266 191.042 120.655 190.537 120.943L192.594 124.155H190.561L188.696 121.34H187.53V124.155H185.785V115.301H188.468ZM188.769 119.656C189.121 119.656 189.394 119.584 189.587 119.44C189.787 119.287 189.927 119.111 190.008 118.91C190.088 118.702 190.128 118.513 190.128 118.345C190.128 118.249 190.112 118.128 190.08 117.984C190.056 117.832 190 117.679 189.911 117.527C189.823 117.375 189.687 117.246 189.502 117.142C189.326 117.038 189.085 116.986 188.781 116.986H187.53V119.656H188.769ZM194.032 115.301H195.776V124.155H194.032V115.301ZM199.397 115.301L201.417 120.294L203.318 115.301H205.387L201.345 124.564L197.303 115.301H199.397ZM206.919 115.301H212.957V116.986H208.663V118.874H212.464V120.558H208.663V122.471H213.126V124.155H206.919V115.301ZM217.613 115.301C218.728 115.301 219.582 115.574 220.175 116.119C220.777 116.657 221.077 117.379 221.077 118.285C221.077 118.79 220.969 119.287 220.753 119.776C220.544 120.266 220.187 120.655 219.682 120.943L221.739 124.155H219.706L217.842 121.34H216.675V124.155H214.93V115.301H217.613ZM217.914 119.656C218.267 119.656 218.539 119.584 218.732 119.44C218.932 119.287 219.073 119.111 219.153 118.91C219.233 118.702 219.273 118.513 219.273 118.345C219.273 118.249 219.257 118.128 219.225 117.984C219.201 117.832 219.145 117.679 219.057 117.527C218.968 117.375 218.832 117.246 218.648 117.142C218.471 117.038 218.231 116.986 217.926 116.986H216.675V119.656H217.914Z" fill="#161616"/>
<g filter="url(#filter5_bd_785_2079)">
<circle cx="182.376" cy="443.898" r="28.9325" fill="white" fill-opacity="0.6" shape-rendering="crispEdges"/>
</g>
<path opacity="0.3" d="M161.935 483.749C161.598 483.565 161.253 483.413 160.901 483.292C160.556 483.172 160.231 483.112 159.926 483.112C159.549 483.112 159.253 483.188 159.036 483.34C158.82 483.493 158.711 483.721 158.711 484.026C158.711 484.235 158.791 484.423 158.952 484.591C159.12 484.752 159.333 484.896 159.589 485.024C159.854 485.153 160.127 485.269 160.407 485.373C160.752 485.502 161.085 485.666 161.406 485.866C161.727 486.059 161.991 486.328 162.2 486.672C162.408 487.009 162.513 487.458 162.513 488.02C162.513 488.469 162.396 488.886 162.164 489.271C161.931 489.656 161.59 489.968 161.141 490.209C160.692 490.442 160.139 490.558 159.481 490.558C158.976 490.558 158.459 490.482 157.929 490.329C157.408 490.177 156.915 489.936 156.45 489.608L157.22 488.248C157.524 488.473 157.873 488.657 158.266 488.802C158.659 488.946 159.012 489.018 159.325 489.018C159.533 489.018 159.742 488.99 159.95 488.934C160.167 488.87 160.343 488.766 160.48 488.621C160.624 488.477 160.696 488.276 160.696 488.02C160.696 487.755 160.568 487.527 160.311 487.334C160.063 487.134 159.762 486.965 159.409 486.829C159.136 486.725 158.856 486.604 158.567 486.468C158.278 486.332 158.006 486.167 157.749 485.975C157.5 485.774 157.296 485.53 157.135 485.241C156.983 484.944 156.907 484.583 156.907 484.158C156.907 483.645 157.019 483.2 157.244 482.823C157.476 482.446 157.801 482.149 158.218 481.933C158.635 481.708 159.116 481.584 159.662 481.56C160.375 481.56 160.953 481.644 161.394 481.813C161.843 481.981 162.244 482.182 162.597 482.414L161.935 483.749ZM163.679 486.047C163.679 485.437 163.796 484.86 164.028 484.315C164.261 483.769 164.582 483.288 164.991 482.871C165.408 482.446 165.889 482.113 166.434 481.873C166.979 481.632 167.565 481.512 168.19 481.512C168.808 481.512 169.389 481.632 169.935 481.873C170.48 482.113 170.961 482.446 171.378 482.871C171.803 483.288 172.132 483.769 172.365 484.315C172.605 484.86 172.725 485.437 172.725 486.047C172.725 486.672 172.605 487.258 172.365 487.803C172.132 488.349 171.803 488.83 171.378 489.247C170.961 489.656 170.48 489.976 169.935 490.209C169.389 490.442 168.808 490.558 168.19 490.558C167.565 490.558 166.979 490.442 166.434 490.209C165.889 489.976 165.408 489.656 164.991 489.247C164.582 488.83 164.261 488.349 164.028 487.803C163.796 487.258 163.679 486.672 163.679 486.047ZM165.484 486.047C165.484 486.568 165.604 487.045 165.845 487.478C166.093 487.903 166.426 488.244 166.843 488.501C167.26 488.75 167.729 488.874 168.251 488.874C168.756 488.874 169.209 488.75 169.61 488.501C170.019 488.244 170.34 487.903 170.572 487.478C170.805 487.045 170.921 486.568 170.921 486.047C170.921 485.51 170.801 485.028 170.56 484.603C170.32 484.17 169.995 483.83 169.586 483.581C169.177 483.324 168.716 483.196 168.202 483.196C167.689 483.196 167.228 483.324 166.819 483.581C166.41 483.83 166.085 484.17 165.845 484.603C165.604 485.028 165.484 485.51 165.484 486.047ZM174.464 481.608H176.209V488.778H180.371V490.462H174.464V481.608ZM181.172 490.462L185.166 481.259H185.262L189.256 490.462H187.235L186.549 488.729H183.614L182.892 490.462H181.172ZM184.228 487.262H185.972L185.118 485.109L184.228 487.262ZM198.474 490.823L192.279 485.229L192.315 490.462H190.547V481.259H190.619L196.802 486.937L196.766 481.608H198.522V490.823H198.474ZM199.804 490.462L203.797 481.259H203.893L207.887 490.462H205.866L205.181 488.729H202.245L201.524 490.462H199.804ZM202.859 487.262H204.603L203.749 485.109L202.859 487.262Z" fill="#161616"/>
<g filter="url(#filter6_bd_785_2079)">
<circle cx="183.105" cy="159.605" r="28.9325" fill="white" fill-opacity="0.6" shape-rendering="crispEdges"/>
</g>
<path d="M171.396 169.489C170.91 169.489 170.518 169.092 170.518 168.6V162.852C170.518 162.361 170.91 161.964 171.396 161.964C171.882 161.964 172.274 162.361 172.274 162.852V168.6C172.274 169.092 171.882 169.489 171.396 169.489Z" fill="#65C7C7"/>
<path d="M174.747 170.112C174.262 170.112 173.869 169.715 173.869 169.223V161.112C173.869 160.62 174.262 160.223 174.747 160.223C175.233 160.223 175.626 160.62 175.626 161.112V169.223C175.644 169.715 175.233 170.112 174.747 170.112Z" fill="#65C7C7"/>
<path d="M181.446 169.055C180.96 169.055 180.568 168.658 180.568 168.166V162.229C180.568 161.738 180.96 161.341 181.446 161.341C181.932 161.341 182.324 161.738 182.324 162.229V168.166C182.324 168.658 181.932 169.055 181.446 169.055Z" fill="#65C7C7"/>
<path d="M184.797 166.674C184.312 166.674 183.919 166.277 183.919 165.785V164.443C183.919 163.951 184.312 163.554 184.797 163.554C185.283 163.554 185.676 163.951 185.676 164.443V165.785C185.676 166.258 185.283 166.674 184.797 166.674Z" fill="#65C7C7"/>
<path d="M178.107 178.205C177.621 178.205 177.229 177.808 177.229 177.316V161.113C177.229 160.621 177.621 160.224 178.107 160.224C178.593 160.224 178.985 160.621 178.985 161.113V177.316C178.985 177.808 178.593 178.205 178.107 178.205Z" fill="#65C7C7"/>
<path d="M188.14 174.766C187.655 174.766 187.262 174.369 187.262 173.878V165.634C187.262 165.142 187.655 164.745 188.14 164.745C188.626 164.745 189.019 165.142 189.019 165.634V173.878C189.037 174.369 188.626 174.766 188.14 174.766Z" fill="#65C7C7"/>
<path d="M191.496 173.862C191.01 173.862 190.617 173.465 190.617 172.973V166.11C190.617 165.618 191.01 165.221 191.496 165.221C191.981 165.221 192.374 165.618 192.374 166.11V172.973C192.374 173.465 191.981 173.862 191.496 173.862Z" fill="#65C7C7"/>
<path d="M194.851 169.003C194.365 169.003 193.973 168.606 193.973 168.114V165.24C193.973 164.749 194.365 164.352 194.851 164.352C195.337 164.352 195.729 164.749 195.729 165.24V168.114C195.729 168.606 195.337 169.003 194.851 169.003Z" fill="#65C7C7"/>
<path d="M190.386 163.382C186.873 163.382 185.098 162.153 183.398 160.962C181.828 159.865 180.352 158.844 177.363 158.844C174.373 158.844 172.897 159.865 171.327 160.962C171.028 161.17 170.73 161.378 170.412 161.586C170.02 161.832 169.496 161.718 169.253 161.34C169.011 160.943 169.123 160.414 169.496 160.168C169.795 159.979 170.076 159.79 170.375 159.582C172.075 158.391 173.85 157.162 177.363 157.162C180.875 157.162 182.65 158.391 184.351 159.582C185.92 160.678 187.396 161.699 190.386 161.699C193.151 161.699 194.571 160.867 196.141 159.79C196.533 159.525 197.056 159.62 197.318 160.017C197.58 160.414 197.486 160.943 197.094 161.208C195.394 162.342 193.618 163.382 190.386 163.382Z" fill="#65C7C7"/>
<path d="M177.339 154.8C183.86 154.8 183.86 159.338 190.362 159.338C193.426 159.338 195.052 158.336 196.584 157.277L196.64 157.239C196.752 156.54 196.808 155.802 196.808 155.065C196.827 147.445 190.717 141.281 183.206 141.281C175.676 141.281 169.585 147.445 169.585 155.065C169.585 155.954 169.678 156.823 169.827 157.674C171.696 156.407 173.77 154.8 177.339 154.8Z" fill="#F1B71C"/>
<path opacity="0.3" d="M75.5298 308.19C75.1393 308.58 75.1393 309.214 75.5298 309.604L81.8938 315.968C82.2843 316.359 82.9175 316.359 83.308 315.968C83.6985 315.578 83.6985 314.944 83.308 314.554L77.6512 308.897L83.308 303.24C83.6985 302.85 83.6985 302.216 83.308 301.826C82.9175 301.435 82.2843 301.435 81.8938 301.826L75.5298 308.19ZM183.734 309.604C184.124 309.214 184.124 308.58 183.734 308.19L177.37 301.826C176.979 301.435 176.346 301.435 175.956 301.826C175.565 302.216 175.565 302.85 175.956 303.24L181.612 308.897L175.956 314.554C175.565 314.944 175.565 315.578 175.956 315.968C176.346 316.359 176.979 316.359 177.37 315.968L183.734 309.604ZM76.2369 309.897H183.027V307.897H76.2369V309.897Z" fill="#25C452"/>
<path opacity="0.3" d="M421.151 308.19C420.761 308.58 420.761 309.214 421.151 309.604L427.515 315.968C427.906 316.359 428.539 316.359 428.929 315.968C429.32 315.578 429.32 314.944 428.929 314.554L423.272 308.897L428.929 303.24C429.32 302.85 429.32 302.216 428.929 301.826C428.539 301.435 427.906 301.435 427.515 301.826L421.151 308.19ZM539.457 309.604C539.847 309.214 539.847 308.58 539.457 308.19L533.093 301.826C532.702 301.435 532.069 301.435 531.679 301.826C531.288 302.216 531.288 302.85 531.679 303.24L537.336 308.897L531.679 314.554C531.288 314.944 531.288 315.578 531.679 315.968C532.069 316.359 532.702 316.359 533.093 315.968L539.457 309.604ZM421.858 309.897H538.75V307.897H421.858V309.897Z" fill="#25C452"/>
<path opacity="0.3" d="M304.981 188.385C305.371 188.775 306.005 188.775 306.395 188.385L312.759 182.021C313.15 181.63 313.15 180.997 312.759 180.606C312.369 180.216 311.735 180.216 311.345 180.606L305.688 186.263L300.031 180.606C299.641 180.216 299.007 180.216 298.617 180.606C298.226 180.997 298.226 181.63 298.617 182.021L304.981 188.385ZM306.688 187.677L306.688 59.2412L304.688 59.2412L304.688 187.677L306.688 187.677Z" fill="#25C452"/>
<path opacity="0.3" d="M255.856 239.183C256.407 239.211 256.877 238.787 256.905 238.236L257.365 229.247C257.393 228.696 256.969 228.226 256.417 228.198C255.865 228.169 255.395 228.594 255.367 229.145L254.959 237.135L246.969 236.727C246.418 236.698 245.948 237.123 245.92 237.674C245.892 238.226 246.316 238.696 246.867 238.724L255.856 239.183ZM209.057 185.234C208.505 185.206 208.035 185.63 208.007 186.182L207.548 195.17C207.52 195.722 207.944 196.192 208.496 196.22C209.047 196.248 209.517 195.824 209.545 195.272L209.953 187.283L217.943 187.691C218.495 187.719 218.965 187.295 218.993 186.743C219.021 186.192 218.597 185.722 218.045 185.693L209.057 185.234ZM256.649 237.514L209.748 185.563L208.264 186.903L255.164 238.855L256.649 237.514Z" fill="#25C452"/>
<path opacity="0.3" d="M365.627 239.183C365.076 239.211 364.606 238.787 364.577 238.236L364.118 229.247C364.09 228.696 364.514 228.226 365.066 228.198C365.617 228.169 366.087 228.594 366.115 229.145L366.524 237.135L374.513 236.727C375.065 236.698 375.535 237.123 375.563 237.674C375.591 238.226 375.167 238.696 374.615 238.724L365.627 239.183ZM412.426 185.234C412.977 185.206 413.447 185.63 413.476 186.182L413.935 195.17C413.963 195.722 413.539 196.192 412.987 196.22C412.436 196.248 411.966 195.824 411.937 195.272L411.529 187.283L403.54 187.691C402.988 187.719 402.518 187.295 402.49 186.743C402.462 186.192 402.886 185.722 403.438 185.693L412.426 185.234ZM364.834 237.514L411.735 185.563L413.219 186.903L366.318 238.855L364.834 237.514Z" fill="#25C452"/>
<path opacity="0.3" d="M250.41 370.951C250.41 370.399 249.962 369.951 249.41 369.951L240.41 369.951C239.857 369.951 239.41 370.399 239.41 370.951C239.41 371.504 239.857 371.951 240.41 371.951L248.41 371.951L248.41 379.951C248.41 380.504 248.857 380.951 249.41 380.951C249.962 380.951 250.41 380.504 250.41 379.951L250.41 370.951ZM205.116 414.244C205.116 414.797 205.564 415.244 206.116 415.244L215.116 415.244C215.669 415.244 216.116 414.797 216.116 414.244C216.116 413.692 215.669 413.244 215.116 413.244L207.116 413.244L207.116 405.244C207.116 404.692 206.669 404.244 206.116 404.244C205.564 404.244 205.116 404.692 205.116 405.244L205.116 414.244ZM248.702 370.244L205.409 413.537L206.824 414.951L250.117 371.658L248.702 370.244Z" fill="#25C452"/>
<path opacity="0.3" d="M369.63 369.516C369.625 368.964 370.07 368.513 370.622 368.508L379.622 368.436C380.174 368.432 380.625 368.876 380.63 369.428C380.634 369.98 380.19 370.432 379.638 370.436L371.638 370.5L371.702 378.5C371.706 379.052 371.262 379.503 370.71 379.508C370.158 379.512 369.706 379.068 369.702 378.516L369.63 369.516ZM417.088 414.236C417.092 414.789 416.648 415.24 416.096 415.244L407.096 415.316C406.544 415.321 406.092 414.877 406.088 414.324C406.084 413.772 406.528 413.321 407.08 413.316L415.08 413.252L415.016 405.253C415.011 404.7 415.455 404.249 416.008 404.245C416.56 404.24 417.011 404.684 417.016 405.237L417.088 414.236ZM371.331 368.795L416.789 413.532L415.386 414.957L369.928 370.221L371.331 368.795Z" fill="#25C452"/>
<path opacity="0.3" d="M305.706 530.399C306.097 530.79 306.73 530.79 307.12 530.399L313.484 524.035C313.875 523.645 313.875 523.012 313.484 522.621C313.094 522.231 312.461 522.231 312.07 522.621L306.413 528.278L300.757 522.621C300.366 522.231 299.733 522.231 299.342 522.621C298.952 523.012 298.952 523.645 299.342 524.035L305.706 530.399ZM307.12 430.133C306.73 429.742 306.097 429.742 305.706 430.133L299.342 436.496C298.952 436.887 298.952 437.52 299.342 437.911C299.733 438.301 300.366 438.301 300.757 437.911L306.413 432.254L312.07 437.911C312.461 438.301 313.094 438.301 313.484 437.911C313.875 437.52 313.875 436.887 313.484 436.496L307.12 430.133ZM307.413 529.692L307.413 430.84L305.413 430.84L305.413 529.692H307.413Z" fill="#25C452"/>
<path d="M168.874 199.218C168.872 198.666 168.422 198.22 167.87 198.222L158.87 198.258C158.318 198.26 157.872 198.709 157.874 199.261C157.876 199.814 158.326 200.26 158.878 200.257L166.878 200.226L166.909 208.226C166.912 208.778 167.361 209.224 167.913 209.222C168.466 209.22 168.912 208.77 168.909 208.218L168.874 199.218ZM75.9583 290.863C75.9604 291.415 76.4099 291.861 76.9622 291.859L85.9621 291.823C86.5144 291.821 86.9604 291.372 86.9582 290.82C86.956 290.267 86.5065 289.821 85.9542 289.823L77.9543 289.855L77.9227 281.855C77.9205 281.303 77.471 280.857 76.9187 280.859C76.3664 280.861 75.9205 281.311 75.9227 281.863L75.9583 290.863ZM167.164 198.518L76.2484 290.155L77.6681 291.563L168.584 199.926L167.164 198.518Z" fill="#25C452"/>
<path d="M305.869 58.5193L306.577 57.8129L305.884 57.119L305.177 57.7976L305.869 58.5193ZM220.273 139.637C220.261 140.189 220.699 140.646 221.252 140.657L230.25 140.845C230.802 140.857 231.259 140.418 231.27 139.866C231.282 139.314 230.843 138.857 230.291 138.846L222.293 138.679L222.46 130.68C222.471 130.128 222.033 129.671 221.481 129.66C220.929 129.648 220.472 130.087 220.46 130.639L220.273 139.637ZM395.887 149.713C396.439 149.714 396.887 149.267 396.888 148.714L396.897 139.714C396.897 139.162 396.45 138.714 395.898 138.713C395.345 138.713 394.897 139.16 394.897 139.712L394.889 147.712L386.889 147.705C386.337 147.704 385.889 148.151 385.888 148.704C385.887 149.256 386.335 149.704 386.887 149.705L395.887 149.713ZM305.177 57.7976L220.58 138.936L221.965 140.379L306.561 59.241L305.177 57.7976ZM305.161 59.2257L395.18 149.42L396.596 148.007L306.577 57.8129L305.161 59.2257Z" fill="#25C452"/>
<path d="M74.6326 323.051C74.0804 323.041 73.6247 323.481 73.6147 324.033L73.4518 333.031C73.4418 333.583 73.8813 334.039 74.4335 334.049C74.9857 334.059 75.4414 333.62 75.4514 333.068L75.5963 325.069L83.5949 325.214C84.1471 325.224 84.6029 324.784 84.6129 324.232C84.6229 323.68 84.1833 323.224 83.6312 323.214L74.6326 323.051ZM162.087 415.768C162.639 415.778 163.095 415.338 163.105 414.786L163.268 405.787C163.278 405.235 162.838 404.78 162.286 404.77C161.734 404.76 161.278 405.199 161.268 405.751L161.123 413.75L153.124 413.605C152.572 413.595 152.116 414.035 152.106 414.587C152.096 415.139 152.536 415.595 153.088 415.605L162.087 415.768ZM73.8947 324.745L161.385 415.462L162.825 414.074L75.3343 323.357L73.8947 324.745Z" fill="#25C452"/>
<path d="M451.164 203.534C451.173 202.982 451.628 202.542 452.18 202.551L461.179 202.7C461.731 202.709 462.172 203.164 462.162 203.716C462.153 204.268 461.698 204.709 461.146 204.699L453.147 204.567L453.015 212.566C453.006 213.118 452.551 213.559 451.999 213.549C451.446 213.54 451.006 213.085 451.015 212.533L451.164 203.534ZM539.028 292.318C539.019 292.87 538.564 293.311 538.012 293.302L529.013 293.153C528.461 293.144 528.021 292.689 528.03 292.136C528.039 291.584 528.494 291.144 529.046 291.153L537.045 291.285L537.177 283.286C537.187 282.734 537.642 282.294 538.194 282.303C538.746 282.312 539.186 282.767 539.177 283.319L539.028 292.318ZM452.882 202.855L538.747 291.606L537.31 292.997L451.445 204.246L452.882 202.855Z" fill="#25C452"/>
<path d="M210.892 463.299C210.897 462.747 211.349 462.304 211.901 462.309L220.901 462.393C221.453 462.398 221.896 462.85 221.891 463.402C221.886 463.955 221.434 464.398 220.882 464.393L212.882 464.318L212.807 472.318C212.802 472.87 212.35 473.314 211.798 473.308C211.246 473.303 210.802 472.851 210.808 472.299L210.892 463.299ZM289.376 541.246C289.371 541.798 288.919 542.242 288.367 542.236L279.367 542.152C278.815 542.147 278.371 541.695 278.377 541.143C278.382 540.591 278.834 540.147 279.386 540.152L287.386 540.227L287.46 532.228C287.465 531.675 287.917 531.232 288.47 531.237C289.022 531.242 289.465 531.694 289.46 532.246L289.376 541.246ZM212.605 462.608L289.09 540.536L287.662 541.937L211.178 464.009L212.605 462.608Z" fill="#25C452"/>
<path d="M540.715 323.05C541.267 323.04 541.723 323.48 541.733 324.032L541.896 333.03C541.906 333.583 541.466 334.038 540.914 334.048C540.362 334.058 539.906 333.619 539.896 333.067L539.751 325.068L531.752 325.213C531.2 325.223 530.745 324.783 530.735 324.231C530.725 323.679 531.164 323.223 531.716 323.213L540.715 323.05ZM453.261 415.767C452.708 415.777 452.253 415.337 452.243 414.785L452.08 405.787C452.07 405.234 452.509 404.779 453.062 404.769C453.614 404.759 454.07 405.198 454.079 405.75L454.224 413.749L462.223 413.604C462.775 413.594 463.231 414.034 463.241 414.586C463.251 415.138 462.811 415.594 462.259 415.604L453.261 415.767ZM541.453 324.744L453.962 415.461L452.523 414.073L540.013 323.356L541.453 324.744Z" fill="#25C452"/>
<path d="M404.812 463.302C404.808 462.75 404.358 462.305 403.805 462.309L394.806 462.372C394.253 462.376 393.809 462.827 393.813 463.379C393.816 463.931 394.267 464.376 394.82 464.372L402.819 464.316L402.876 472.316C402.879 472.868 403.33 473.313 403.883 473.309C404.435 473.305 404.879 472.854 404.876 472.302L404.812 463.302ZM326.328 540.883C326.332 541.435 326.783 541.88 327.335 541.876L336.335 541.813C336.887 541.809 337.331 541.358 337.328 540.806C337.324 540.253 336.873 539.809 336.321 539.813L328.321 539.869L328.265 531.869C328.261 531.317 327.81 530.872 327.258 530.876C326.705 530.88 326.261 531.331 326.265 531.883L326.328 540.883ZM403.1 462.607L326.616 540.174L328.04 541.578L404.524 464.011L403.1 462.607Z" fill="#25C452"/>
<path d="M271.204 11.8779H277.243V13.562H272.949V15.4506H276.75V17.1347H272.949V19.0473H277.411V20.7314H271.204V11.8779ZM278.615 11.8779H284.581V13.562H282.428V20.7314H280.684V13.562H278.615V11.8779ZM293.711 11.8779V20.7314H291.966V17.1347H288.009V20.7314H286.264V11.8779H288.009V15.4506L291.966 15.4506V11.8779H293.711ZM295.991 11.8779H302.03V13.562H297.735V15.4506H301.537V17.1347H297.735V19.0473H302.198V20.7314H295.991V11.8779ZM306.685 11.8779C307.8 11.8779 308.654 12.1506 309.248 12.6959C309.849 13.2332 310.15 13.955 310.15 14.8612C310.15 15.3664 310.042 15.8636 309.825 16.3528C309.617 16.842 309.26 17.2309 308.754 17.5196L310.811 20.7314H308.779L306.914 17.9166H305.747V20.7314H304.003V11.8779H306.685ZM306.986 16.2325C307.339 16.2325 307.612 16.1603 307.804 16.016C308.005 15.8636 308.145 15.6872 308.225 15.4867C308.305 15.2782 308.345 15.0897 308.345 14.9213C308.345 14.8251 308.329 14.7048 308.297 14.5604C308.273 14.4081 308.217 14.2557 308.129 14.1033C308.041 13.9509 307.904 13.8226 307.72 13.7184C307.544 13.6141 307.303 13.562 306.998 13.562H305.747V16.2325H306.986ZM312.25 11.8779H318.288V13.562H313.994V15.4506H317.795V17.1347H313.994V19.0473H318.457V20.7314L312.25 20.7314V11.8779ZM321.825 17.4595C321.825 17.7402 321.909 18.0088 322.078 18.2654C322.246 18.5221 322.467 18.7306 322.739 18.891C323.02 19.0514 323.325 19.1316 323.653 19.1316C324.014 19.1316 324.335 19.0514 324.616 18.891C324.897 18.7306 325.117 18.5221 325.277 18.2654C325.446 18.0088 325.53 17.7402 325.53 17.4595V11.8779H327.25V17.4956C327.25 18.1452 327.09 18.7226 326.769 19.2278C326.448 19.725 326.015 20.118 325.47 20.4067C324.925 20.6873 324.319 20.8277 323.653 20.8277C322.996 20.8277 322.394 20.6873 321.849 20.4067C321.312 20.118 320.883 19.725 320.562 19.2278C320.241 18.7226 320.081 18.1452 320.081 17.4956V11.8779H321.825V17.4595ZM329.354 20.7314V11.517H329.366L333.853 17.8805L338.448 11.517H338.472V20.7314H336.728V16.5092L333.841 20.6112H333.817L331.038 16.7738V20.7314H329.354Z" fill="#161616"/>
<g filter="url(#filter7_bd_785_2079)">
<circle cx="305.042" cy="55.7054" r="28.9325" fill="white" fill-opacity="0.6" shape-rendering="crispEdges"/>
</g>
<g opacity="0.3">
<path d="M170.993 450.751C171.129 450.614 171.4 450.476 171.806 450.476H197.957C198.499 450.476 198.634 451.026 198.363 451.438L193.214 456.655C193.079 456.793 192.808 456.93 192.401 456.93H166.251C165.709 456.93 165.573 456.381 165.844 455.969L170.993 450.751Z" fill="url(#paint2_linear_785_2079)"/>
<path d="M170.993 431.114C171.129 430.977 171.4 430.839 171.806 430.839H197.957C198.499 430.839 198.634 431.389 198.363 431.801L193.214 437.018C193.079 437.156 192.808 437.293 192.401 437.293H166.251C165.709 437.293 165.573 436.744 165.844 436.332L170.993 431.114Z" fill="url(#paint3_linear_785_2079)"/>
<path d="M193.079 440.864C192.943 440.727 192.672 440.589 192.266 440.589H166.251C165.709 440.589 165.573 441.139 165.844 441.551L170.993 446.769C171.129 446.906 171.4 447.043 171.806 447.043H197.957C198.499 447.043 198.634 446.494 198.363 446.082L193.079 440.864Z" fill="url(#paint4_linear_785_2079)"/>
</g>
<path d="M305.048 64.9414V74.3136L316.669 58.1465L305.048 64.9414Z" fill="#7B79EC"/>
<path d="M305.048 50.7427V62.786L316.669 55.9911L305.048 50.7427Z" fill="#7B79EC"/>
<path d="M305.048 36.8713V50.7423L316.669 55.9908L305.048 36.8713Z" fill="#7B79EC"/>
<path d="M305.047 64.9414V74.3136L293.425 58.1465L305.047 64.9414Z" fill="#7B79EC"/>
<path d="M305.047 50.7427V62.786L293.425 55.9911L305.047 50.7427Z" fill="#7B79EC"/>
<path d="M305.047 36.8716V50.7425L293.426 55.991L305.047 36.8716Z" fill="#7B79EC"/>
<defs>
<filter id="filter0_bd_785_2079" x="518.127" y="247.15" width="117.865" height="117.865" filterUnits="userSpaceOnUse" color-interpolation-filters="sRGB">
<feFlood flood-opacity="0" result="BackgroundImageFix"/>
<feGaussianBlur in="BackgroundImage" stdDeviation="15"/>
<feComposite in2="SourceAlpha" operator="in" result="effect1_backgroundBlur_785_2079"/>
<feColorMatrix in="SourceAlpha" type="matrix" values="0 0 0 0 0 0 0 0 0 0 0 0 0 0 0 0 0 0 127 0" result="hardAlpha"/>
<feOffset dy="4"/>
<feGaussianBlur stdDeviation="5"/>
<feComposite in2="hardAlpha" operator="out"/>
<feColorMatrix type="matrix" values="0 0 0 0 0 0 0 0 0 0 0 0 0 0 0 0 0 0 0.05 0"/>
<feBlend mode="normal" in2="effect1_backgroundBlur_785_2079" result="effect2_dropShadow_785_2079"/>
<feBlend mode="normal" in="SourceGraphic" in2="effect2_dropShadow_785_2079" result="shape"/>
</filter>
<filter id="filter1_bd_785_2079" x="378.157" y="100.674" width="117.865" height="117.724" filterUnits="userSpaceOnUse" color-interpolation-filters="sRGB">
<feFlood flood-opacity="0" result="BackgroundImageFix"/>
<feGaussianBlur in="BackgroundImage" stdDeviation="15"/>
<feComposite in2="SourceAlpha" operator="in" result="effect1_backgroundBlur_785_2079"/>
<feColorMatrix in="SourceAlpha" type="matrix" values="0 0 0 0 0 0 0 0 0 0 0 0 0 0 0 0 0 0 127 0" result="hardAlpha"/>
<feOffset dy="4"/>
<feGaussianBlur stdDeviation="5"/>
<feComposite in2="hardAlpha" operator="out"/>
<feColorMatrix type="matrix" values="0 0 0 0 0 0 0 0 0 0 0 0 0 0 0 0 0 0 0.05 0"/>
<feBlend mode="normal" in2="effect1_backgroundBlur_785_2079" result="effect2_dropShadow_785_2079"/>
<feBlend mode="normal" in="SourceGraphic" in2="effect2_dropShadow_785_2079" result="shape"/>
</filter>
<filter id="filter2_bd_785_2079" x="378.153" y="384.966" width="117.865" height="117.865" filterUnits="userSpaceOnUse" color-interpolation-filters="sRGB">
<feFlood flood-opacity="0" result="BackgroundImageFix"/>
<feGaussianBlur in="BackgroundImage" stdDeviation="15"/>
<feComposite in2="SourceAlpha" operator="in" result="effect1_backgroundBlur_785_2079"/>
<feColorMatrix in="SourceAlpha" type="matrix" values="0 0 0 0 0 0 0 0 0 0 0 0 0 0 0 0 0 0 127 0" result="hardAlpha"/>
<feOffset dy="4"/>
<feGaussianBlur stdDeviation="5"/>
<feComposite in2="hardAlpha" operator="out"/>
<feColorMatrix type="matrix" values="0 0 0 0 0 0 0 0 0 0 0 0 0 0 0 0 0 0 0.05 0"/>
<feBlend mode="normal" in2="effect1_backgroundBlur_785_2079" result="effect2_dropShadow_785_2079"/>
<feBlend mode="normal" in="SourceGraphic" in2="effect2_dropShadow_785_2079" result="shape"/>
</filter>
<filter id="filter3_bd_785_2079" x="-19.4226" y="247.15" width="117.865" height="117.865" filterUnits="userSpaceOnUse" color-interpolation-filters="sRGB">
<feFlood flood-opacity="0" result="BackgroundImageFix"/>
<feGaussianBlur in="BackgroundImage" stdDeviation="15"/>
<feComposite in2="SourceAlpha" operator="in" result="effect1_backgroundBlur_785_2079"/>
<feColorMatrix in="SourceAlpha" type="matrix" values="0 0 0 0 0 0 0 0 0 0 0 0 0 0 0 0 0 0 127 0" result="hardAlpha"/>
<feOffset dy="4"/>
<feGaussianBlur stdDeviation="5"/>
<feComposite in2="hardAlpha" operator="out"/>
<feColorMatrix type="matrix" values="0 0 0 0 0 0 0 0 0 0 0 0 0 0 0 0 0 0 0.05 0"/>
<feBlend mode="normal" in2="effect1_backgroundBlur_785_2079" result="effect2_dropShadow_785_2079"/>
<feBlend mode="normal" in="SourceGraphic" in2="effect2_dropShadow_785_2079" result="shape"/>
</filter>
<filter id="filter4_bd_785_2079" x="246.359" y="511.237" width="117.865" height="117.865" filterUnits="userSpaceOnUse" color-interpolation-filters="sRGB">
<feFlood flood-opacity="0" result="BackgroundImageFix"/>
<feGaussianBlur in="BackgroundImage" stdDeviation="15"/>
<feComposite in2="SourceAlpha" operator="in" result="effect1_backgroundBlur_785_2079"/>
<feColorMatrix in="SourceAlpha" type="matrix" values="0 0 0 0 0 0 0 0 0 0 0 0 0 0 0 0 0 0 127 0" result="hardAlpha"/>
<feOffset dy="4"/>
<feGaussianBlur stdDeviation="5"/>
<feComposite in2="hardAlpha" operator="out"/>
<feColorMatrix type="matrix" values="0 0 0 0 0 0 0 0 0 0 0 0 0 0 0 0 0 0 0.05 0"/>
<feBlend mode="normal" in2="effect1_backgroundBlur_785_2079" result="effect2_dropShadow_785_2079"/>
<feBlend mode="normal" in="SourceGraphic" in2="effect2_dropShadow_785_2079" result="shape"/>
</filter>
<filter id="filter5_bd_785_2079" x="123.443" y="384.966" width="117.865" height="117.865" filterUnits="userSpaceOnUse" color-interpolation-filters="sRGB">
<feFlood flood-opacity="0" result="BackgroundImageFix"/>
<feGaussianBlur in="BackgroundImage" stdDeviation="15"/>
<feComposite in2="SourceAlpha" operator="in" result="effect1_backgroundBlur_785_2079"/>
<feColorMatrix in="SourceAlpha" type="matrix" values="0 0 0 0 0 0 0 0 0 0 0 0 0 0 0 0 0 0 127 0" result="hardAlpha"/>
<feOffset dy="4"/>
<feGaussianBlur stdDeviation="5"/>
<feComposite in2="hardAlpha" operator="out"/>
<feColorMatrix type="matrix" values="0 0 0 0 0 0 0 0 0 0 0 0 0 0 0 0 0 0 0.05 0"/>
<feBlend mode="normal" in2="effect1_backgroundBlur_785_2079" result="effect2_dropShadow_785_2079"/>
<feBlend mode="normal" in="SourceGraphic" in2="effect2_dropShadow_785_2079" result="shape"/>
</filter>
<filter id="filter6_bd_785_2079" x="124.173" y="100.672" width="117.865" height="117.865" filterUnits="userSpaceOnUse" color-interpolation-filters="sRGB">
<feFlood flood-opacity="0" result="BackgroundImageFix"/>
<feGaussianBlur in="BackgroundImage" stdDeviation="15"/>
<feComposite in2="SourceAlpha" operator="in" result="effect1_backgroundBlur_785_2079"/>
<feColorMatrix in="SourceAlpha" type="matrix" values="0 0 0 0 0 0 0 0 0 0 0 0 0 0 0 0 0 0 127 0" result="hardAlpha"/>
<feOffset dy="4"/>
<feGaussianBlur stdDeviation="5"/>
<feComposite in2="hardAlpha" operator="out"/>
<feColorMatrix type="matrix" values="0 0 0 0 0 0 0 0 0 0 0 0 0 0 0 0 0 0 0.05 0"/>
<feBlend mode="normal" in2="effect1_backgroundBlur_785_2079" result="effect2_dropShadow_785_2079"/>
<feBlend mode="normal" in="SourceGraphic" in2="effect2_dropShadow_785_2079" result="shape"/>
</filter>
<filter id="filter7_bd_785_2079" x="246.109" y="-3.22705" width="117.865" height="117.865" filterUnits="userSpaceOnUse" color-interpolation-filters="sRGB">
<feFlood flood-opacity="0" result="BackgroundImageFix"/>
<feGaussianBlur in="BackgroundImage" stdDeviation="15"/>
<feComposite in2="SourceAlpha" operator="in" result="effect1_backgroundBlur_785_2079"/>
<feColorMatrix in="SourceAlpha" type="matrix" values="0 0 0 0 0 0 0 0 0 0 0 0 0 0 0 0 0 0 127 0" result="hardAlpha"/>
<feOffset dy="4"/>
<feGaussianBlur stdDeviation="5"/>
<feComposite in2="hardAlpha" operator="out"/>
<feColorMatrix type="matrix" values="0 0 0 0 0 0 0 0 0 0 0 0 0 0 0 0 0 0 0.05 0"/>
<feBlend mode="normal" in2="effect1_backgroundBlur_785_2079" result="effect2_dropShadow_785_2079"/>
<feBlend mode="normal" in="SourceGraphic" in2="effect2_dropShadow_785_2079" result="shape"/>
</filter>
<linearGradient id="paint0_linear_785_2079" x1="383.616" y1="199.222" x2="383.616" y2="355.077" gradientUnits="userSpaceOnUse">
<stop stop-color="#4AA956"/>
</linearGradient>
<linearGradient id="paint1_linear_785_2079" x1="563.087" y1="319.586" x2="590.644" y2="293.65" gradientUnits="userSpaceOnUse">
<stop stop-color="#00AEE9"/>
<stop offset="1" stop-color="#69FABD"/>
</linearGradient>
<linearGradient id="paint2_linear_785_2079" x1="195.393" y1="427.714" x2="176.915" y2="462.639" gradientUnits="userSpaceOnUse">
<stop stop-color="#00FFA3"/>
<stop offset="1" stop-color="#DC1FFF"/>
</linearGradient>
<linearGradient id="paint3_linear_785_2079" x1="187.48" y1="423.526" x2="169.002" y2="458.451" gradientUnits="userSpaceOnUse">
<stop stop-color="#00FFA3"/>
<stop offset="1" stop-color="#DC1FFF"/>
</linearGradient>
<linearGradient id="paint4_linear_785_2079" x1="191.411" y1="425.607" x2="172.933" y2="460.532" gradientUnits="userSpaceOnUse">
<stop stop-color="#00FFA3"/>
<stop offset="1" stop-color="#DC1FFF"/>
</linearGradient>
</defs>
</svg>
