<svg width="610" height="635" viewBox="0 0 610 635" fill="none" xmlns="http://www.w3.org/2000/svg">
<rect x="304.327" y="37.5947" width="384.191" height="384.191" transform="rotate(45 304.327 37.5947)" fill="#3EFF71" fill-opacity="0.05"/>
<rect x="303.971" y="97.4822" width="299.16" height="299.16" transform="rotate(45 303.971 97.4822)" fill="#3EFF71" fill-opacity="0.05"/>
<rect x="303.971" y="158.814" width="212.267" height="212.267" transform="rotate(45 303.971 158.814)" fill="#3EFF71" fill-opacity="0.05"/>
<rect x="303.971" y="158.814" width="212.267" height="212.267" transform="rotate(45 303.971 158.814)" stroke="#25C452"/>
<rect x="304.688" y="199.222" width="155.855" height="155.855" transform="rotate(45 304.688 199.222)" fill="url(#paint0_linear_766_1235)"/>
<path d="M338.718 289.464L304.778 269.605L271.684 289.107L271.613 328.396L304.989 348.254L338.718 328.824V289.464ZM304.849 275.606L329.916 290.321L304.989 305.037L279.922 290.321L304.849 275.606ZM301.962 340.111L276.753 325.467V296.179L301.891 310.894V340.111H301.962ZM308.44 311.323L333.577 296.607V325.824L308.44 340.611V311.323Z" fill="white"/>
<path d="M550.645 344.171V353.025H548.901V349.428H544.943V353.025H543.199V344.171H544.943V347.744H548.901V344.171H550.645ZM551.927 353.025L555.921 343.823H556.017L560.011 353.025H557.99L557.304 351.293H554.369L553.647 353.025H551.927ZM554.983 349.825H556.727L555.873 347.672L554.983 349.825ZM563.984 344.171C565.099 344.171 565.953 344.444 566.546 344.989C567.148 345.527 567.448 346.248 567.448 347.155C567.448 347.66 567.34 348.157 567.124 348.646C566.915 349.135 566.558 349.524 566.053 349.813L568.11 353.025H566.077L564.213 350.21H563.046V353.025H561.301V344.171H563.984ZM564.285 348.526C564.638 348.526 564.91 348.454 565.103 348.309C565.303 348.157 565.444 347.981 565.524 347.78C565.604 347.572 565.644 347.383 565.644 347.215C565.644 347.119 565.628 346.998 565.596 346.854C565.572 346.702 565.516 346.549 565.428 346.397C565.339 346.244 565.203 346.116 565.019 346.012C564.842 345.908 564.602 345.855 564.297 345.855H563.046V348.526H564.285ZM569.548 353.025V343.81H569.56L574.047 350.174L578.642 343.81H578.666V353.025H576.922V348.803L574.035 352.905H574.011L571.232 349.067V353.025H569.548ZM580.413 348.61C580.413 348.001 580.53 347.423 580.762 346.878C580.995 346.333 581.316 345.851 581.725 345.434C582.142 345.009 582.623 344.677 583.168 344.436C583.713 344.195 584.299 344.075 584.924 344.075C585.542 344.075 586.123 344.195 586.669 344.436C587.214 344.677 587.695 345.009 588.112 345.434C588.537 345.851 588.866 346.333 589.099 346.878C589.339 347.423 589.459 348.001 589.459 348.61C589.459 349.236 589.339 349.821 589.099 350.366C588.866 350.912 588.537 351.393 588.112 351.81C587.695 352.219 587.214 352.54 586.669 352.772C586.123 353.005 585.542 353.121 584.924 353.121C584.299 353.121 583.713 353.005 583.168 352.772C582.623 352.54 582.142 352.219 581.725 351.81C581.316 351.393 580.995 350.912 580.762 350.366C580.53 349.821 580.413 349.236 580.413 348.61ZM582.218 348.61C582.218 349.131 582.338 349.609 582.579 350.042C582.827 350.467 583.16 350.808 583.577 351.064C583.994 351.313 584.463 351.437 584.985 351.437C585.49 351.437 585.943 351.313 586.344 351.064C586.753 350.808 587.074 350.467 587.306 350.042C587.539 349.609 587.655 349.131 587.655 348.61C587.655 348.073 587.535 347.592 587.294 347.167C587.054 346.734 586.729 346.393 586.32 346.144C585.911 345.888 585.45 345.759 584.936 345.759C584.423 345.759 583.962 345.888 583.553 346.144C583.144 346.393 582.819 346.734 582.579 347.167C582.338 347.592 582.218 348.073 582.218 348.61ZM599.126 353.386L592.931 347.792L592.967 353.025H591.198V343.823H591.271L597.454 349.5L597.418 344.171H599.174V353.386H599.126ZM603.751 350.27L600.492 344.171H602.645L604.678 348.261L606.663 344.171H608.816L605.496 350.27V353.025H603.751V350.27Z" fill="white"/>
<g filter="url(#filter0_b_766_1235)">
<circle cx="576.059" cy="306.083" r="28.9325" fill="black" fill-opacity="0.4"/>
</g>
<path d="M583.619 290.217C581.913 290.216 580.276 290.936 579.068 292.219C577.86 293.502 577.179 295.243 577.174 297.06V304.647C576.51 304.695 575.832 304.725 575.128 304.725C574.425 304.725 573.75 304.755 573.083 304.798V297.06C573.055 295.259 572.365 293.541 571.159 292.277C569.954 291.013 568.33 290.304 566.639 290.304C564.948 290.304 563.324 291.013 562.119 292.277C560.913 293.541 560.223 295.259 560.195 297.06V315.194C560.223 316.996 560.913 318.714 562.119 319.977C563.324 321.241 564.948 321.95 566.639 321.95C568.33 321.95 569.954 321.241 571.159 319.977C572.365 318.714 573.055 316.996 573.083 315.194V307.607C573.746 307.559 574.425 307.529 575.128 307.529C575.832 307.529 576.507 307.499 577.174 307.456V315.194C577.201 316.996 577.892 318.714 579.098 319.977C580.303 321.241 581.926 321.95 583.618 321.95C585.309 321.95 586.932 321.241 588.138 319.977C589.343 318.714 590.034 316.996 590.061 315.194V297.06C590.057 295.243 589.376 293.502 588.168 292.219C586.96 290.936 585.324 290.216 583.619 290.217ZM566.638 293.021C567.645 293.02 568.611 293.445 569.324 294.203C570.037 294.96 570.438 295.988 570.441 297.06V305.095C568.556 305.386 566.715 305.94 564.966 306.744C564.208 307.098 563.494 307.552 562.842 308.095V297.06C562.845 295.989 563.245 294.962 563.957 294.205C564.668 293.448 565.633 293.022 566.638 293.021ZM570.441 315.194C570.441 316.268 570.04 317.299 569.327 318.059C568.614 318.819 567.647 319.246 566.638 319.246C565.63 319.246 564.662 318.819 563.949 318.059C563.236 317.299 562.835 316.268 562.835 315.194V313.375C562.835 311.768 564.03 310.246 566.033 309.298C567.444 308.65 568.924 308.189 570.441 307.925V315.194ZM583.619 319.233C582.612 319.234 581.646 318.809 580.933 318.051C580.22 317.294 579.818 316.266 579.816 315.194V307.159C581.701 306.868 583.542 306.314 585.291 305.51C586.049 305.156 586.762 304.702 587.415 304.16V315.194C587.412 316.265 587.011 317.292 586.3 318.049C585.588 318.806 584.624 319.232 583.619 319.233ZM584.224 302.945C582.813 303.594 581.332 304.055 579.816 304.319V297.06C579.816 295.986 580.216 294.955 580.929 294.195C581.643 293.435 582.61 293.009 583.619 293.009C584.627 293.009 585.594 293.435 586.308 294.195C587.021 294.955 587.421 295.986 587.421 297.06V298.879C587.421 300.479 586.227 302.001 584.224 302.945Z" fill="url(#paint1_linear_766_1235)"/>
<path d="M409.955 115.301H415.488V116.986H411.699V118.994H414.983V120.679H411.699V124.155H409.955V115.301ZM415.323 124.155L419.317 114.953H419.413L423.407 124.155H421.386L420.7 122.423H417.765L417.044 124.155H415.323ZM418.379 120.955H420.123L419.269 118.802L418.379 120.955ZM432.625 124.516L426.43 118.922L426.466 124.155H424.698V114.953H424.77L430.953 120.63L430.917 115.301H432.673V124.516H432.625ZM434.352 115.301H440.318V116.986H438.165V124.155H436.421V116.986H434.352V115.301ZM441.155 119.74C441.155 119.131 441.271 118.553 441.504 118.008C441.736 117.463 442.057 116.982 442.466 116.565C442.883 116.14 443.364 115.807 443.909 115.566C444.455 115.326 445.04 115.205 445.666 115.205C446.283 115.205 446.865 115.326 447.41 115.566C447.955 115.807 448.436 116.14 448.853 116.565C449.278 116.982 449.607 117.463 449.84 118.008C450.08 118.553 450.201 119.131 450.201 119.74C450.201 120.366 450.08 120.951 449.84 121.497C449.607 122.042 449.278 122.523 448.853 122.94C448.436 123.349 447.955 123.67 447.41 123.902C446.865 124.135 446.283 124.251 445.666 124.251C445.04 124.251 444.455 124.135 443.909 123.902C443.364 123.67 442.883 123.349 442.466 122.94C442.057 122.523 441.736 122.042 441.504 121.497C441.271 120.951 441.155 120.366 441.155 119.74ZM442.959 119.74C442.959 120.262 443.079 120.739 443.32 121.172C443.569 121.597 443.901 121.938 444.318 122.194C444.735 122.443 445.205 122.567 445.726 122.567C446.231 122.567 446.684 122.443 447.085 122.194C447.494 121.938 447.815 121.597 448.047 121.172C448.28 120.739 448.396 120.262 448.396 119.74C448.396 119.203 448.276 118.722 448.035 118.297C447.795 117.864 447.47 117.523 447.061 117.274C446.652 117.018 446.191 116.889 445.678 116.889C445.164 116.889 444.703 117.018 444.294 117.274C443.885 117.523 443.561 117.864 443.32 118.297C443.079 118.722 442.959 119.203 442.959 119.74ZM451.94 124.155V114.941H451.952L456.439 121.304L461.034 114.941H461.058V124.155H459.314V119.933L456.427 124.035H456.403L453.624 120.197V124.155H451.94Z" fill="white"/>
<g filter="url(#filter1_b_766_1235)">
<ellipse cx="436.09" cy="159.536" rx="28.9325" ry="28.8621" fill="black" fill-opacity="0.4"/>
</g>
<path d="M445.622 148.108L437.779 143.997C436.912 143.548 435.63 143.548 434.763 143.997L426.92 148.108C426.656 148.258 426.43 148.445 426.241 148.669H425.902V170.87H426.241C426.392 171.094 426.618 171.281 426.92 171.431L434.763 175.542C435.178 175.766 435.743 175.879 436.271 175.879C436.799 175.879 437.365 175.766 437.779 175.542L445.622 171.431C445.924 171.281 446.15 171.094 446.301 170.87H446.64V148.669H446.301C446.15 148.445 445.924 148.258 445.622 148.108ZM427.787 151.36L433.858 154.537L427.787 157.714V151.36ZM435.328 155.845V163.208L428.315 159.508L435.328 155.845ZM437.214 155.845L444.227 159.545L437.214 163.245V155.845ZM438.684 154.537L444.755 151.36V157.714L438.684 154.537ZM435.63 145.641C435.932 145.492 436.573 145.492 436.874 145.641L444.227 149.491L436.912 153.341C436.61 153.49 435.969 153.49 435.668 153.341L428.277 149.491L435.63 145.641ZM436.912 173.898C436.61 174.047 435.969 174.047 435.668 173.898L428.277 170.048L427.787 169.525V161.377L434.763 165.04C435.178 165.264 435.743 165.376 436.271 165.376C436.799 165.376 437.365 165.264 437.779 165.04L444.755 161.377V169.525L444.265 170.048L436.912 173.898Z" fill="#3367F6"/>
<path d="M447.248 145.267L447.059 145.155L446.079 146.762L446.267 146.874C447.587 147.659 447.926 147.846 447.926 149.528H449.812C449.812 146.911 448.907 146.239 447.248 145.267Z" fill="#3367F6"/>
<path d="M424.472 169.674H422.587C422.587 172.29 423.492 172.963 425.151 173.935L425.34 174.047L426.32 172.44L426.131 172.328C424.774 171.543 424.472 171.356 424.472 169.674Z" fill="#3367F6"/>
<path d="M409.219 482.069C410.318 482.069 411.16 482.342 411.746 482.887C412.331 483.424 412.624 484.146 412.624 485.052C412.624 485.413 412.568 485.778 412.455 486.147C412.351 486.508 412.179 486.837 411.938 487.134C411.705 487.43 411.389 487.671 410.988 487.855C410.595 488.032 410.11 488.12 409.532 488.12H408.281V490.923H406.537V482.069H409.219ZM409.52 486.424C409.873 486.424 410.146 486.348 410.338 486.195C410.539 486.035 410.679 485.85 410.759 485.642C410.839 485.433 410.879 485.253 410.879 485.101C410.879 485.012 410.863 484.896 410.831 484.752C410.807 484.599 410.751 484.447 410.663 484.295C410.575 484.142 410.438 484.014 410.254 483.91C410.078 483.805 409.837 483.753 409.532 483.753H408.281V486.424H409.52ZM413.643 486.508C413.643 485.899 413.759 485.321 413.992 484.776C414.224 484.23 414.545 483.749 414.954 483.332C415.371 482.907 415.852 482.574 416.398 482.334C416.943 482.093 417.529 481.973 418.154 481.973C418.772 481.973 419.353 482.093 419.898 482.334C420.444 482.574 420.925 482.907 421.342 483.332C421.767 483.749 422.096 484.23 422.328 484.776C422.569 485.321 422.689 485.899 422.689 486.508C422.689 487.134 422.569 487.719 422.328 488.264C422.096 488.81 421.767 489.291 421.342 489.708C420.925 490.117 420.444 490.438 419.898 490.67C419.353 490.903 418.772 491.019 418.154 491.019C417.529 491.019 416.943 490.903 416.398 490.67C415.852 490.438 415.371 490.117 414.954 489.708C414.545 489.291 414.224 488.81 413.992 488.264C413.759 487.719 413.643 487.134 413.643 486.508ZM415.447 486.508C415.447 487.029 415.568 487.506 415.808 487.939C416.057 488.365 416.39 488.705 416.807 488.962C417.224 489.211 417.693 489.335 418.214 489.335C418.719 489.335 419.173 489.211 419.574 488.962C419.983 488.705 420.303 488.365 420.536 487.939C420.768 487.506 420.885 487.029 420.885 486.508C420.885 485.971 420.764 485.49 420.524 485.064C420.283 484.631 419.958 484.291 419.549 484.042C419.14 483.785 418.679 483.657 418.166 483.657C417.653 483.657 417.192 483.785 416.783 484.042C416.374 484.291 416.049 484.631 415.808 485.064C415.568 485.49 415.447 485.971 415.447 486.508ZM424.428 482.069H426.172V489.239H430.334V490.923H424.428V482.069ZM432.987 488.168L429.727 482.069H431.88L433.913 486.159L435.898 482.069H438.051L434.731 488.168V490.923H432.987V488.168ZM445.648 490.033C445.543 490.145 445.379 490.261 445.154 490.381C444.93 490.494 444.669 490.598 444.373 490.694C444.084 490.79 443.787 490.867 443.482 490.923C443.178 490.987 442.889 491.019 442.616 491.019C441.662 491.019 440.832 490.835 440.126 490.466C439.42 490.097 438.875 489.591 438.49 488.95C438.113 488.308 437.925 487.575 437.925 486.749C437.925 485.939 438.045 485.237 438.286 484.643C438.534 484.042 438.867 483.545 439.284 483.152C439.709 482.751 440.194 482.454 440.74 482.262C441.293 482.069 441.87 481.973 442.472 481.973C443.041 481.973 443.563 482.037 444.036 482.165C444.509 482.286 444.91 482.438 445.239 482.623L444.673 484.246C444.529 484.166 444.336 484.086 444.096 484.006C443.855 483.926 443.611 483.862 443.362 483.813C443.113 483.757 442.893 483.729 442.7 483.729C441.746 483.729 441.012 483.97 440.499 484.451C439.986 484.924 439.729 485.638 439.729 486.592C439.729 487.146 439.854 487.623 440.102 488.024C440.351 488.425 440.696 488.733 441.137 488.95C441.586 489.166 442.095 489.275 442.664 489.275C442.913 489.275 443.142 489.259 443.35 489.227C443.559 489.187 443.735 489.126 443.879 489.046V487.976H442.352V486.291H445.648V490.033ZM447.088 486.508C447.088 485.899 447.204 485.321 447.437 484.776C447.669 484.23 447.99 483.749 448.399 483.332C448.816 482.907 449.297 482.574 449.842 482.334C450.388 482.093 450.973 481.973 451.599 481.973C452.216 481.973 452.798 482.093 453.343 482.334C453.888 482.574 454.369 482.907 454.786 483.332C455.212 483.749 455.54 484.23 455.773 484.776C456.013 485.321 456.134 485.899 456.134 486.508C456.134 487.134 456.013 487.719 455.773 488.264C455.54 488.81 455.212 489.291 454.786 489.708C454.369 490.117 453.888 490.438 453.343 490.67C452.798 490.903 452.216 491.019 451.599 491.019C450.973 491.019 450.388 490.903 449.842 490.67C449.297 490.438 448.816 490.117 448.399 489.708C447.99 489.291 447.669 488.81 447.437 488.264C447.204 487.719 447.088 487.134 447.088 486.508ZM448.892 486.508C448.892 487.029 449.012 487.506 449.253 487.939C449.502 488.365 449.834 488.705 450.251 488.962C450.668 489.211 451.138 489.335 451.659 489.335C452.164 489.335 452.617 489.211 453.018 488.962C453.427 488.705 453.748 488.365 453.981 487.939C454.213 487.506 454.329 487.029 454.329 486.508C454.329 485.971 454.209 485.49 453.968 485.064C453.728 484.631 453.403 484.291 452.994 484.042C452.585 483.785 452.124 483.657 451.611 483.657C451.097 483.657 450.636 483.785 450.227 484.042C449.818 484.291 449.494 484.631 449.253 485.064C449.012 485.49 448.892 485.971 448.892 486.508ZM465.8 491.284L459.605 485.69L459.641 490.923H457.873V481.72H457.945L464.128 487.398L464.092 482.069H465.848V491.284H465.8Z" fill="white"/>
<g filter="url(#filter2_b_766_1235)">
<circle cx="436.085" cy="443.898" r="28.9325" fill="black" fill-opacity="0.4"/>
</g>
<path d="M447.564 438.337C446.832 437.946 445.838 437.946 445.001 438.337L438.985 441.609L434.904 443.709L429.045 447.03C428.313 447.421 427.319 447.421 426.482 447.03L421.879 444.442C421.146 444.051 420.571 443.221 420.571 442.342V437.312C420.571 436.53 420.989 435.7 421.879 435.212L426.43 432.721C427.162 432.33 428.156 432.33 428.993 432.721L433.597 435.309C434.329 435.7 434.904 436.53 434.904 437.409V440.73L438.985 438.533V435.114C438.985 434.333 438.566 433.502 437.677 433.014L429.15 428.326C428.418 427.935 427.424 427.935 426.587 428.326L417.798 433.112C416.909 433.502 416.49 434.333 416.49 435.114V444.539C416.49 445.321 416.909 446.151 417.798 446.639L426.43 451.327C427.162 451.718 428.156 451.718 428.993 451.327L434.904 448.104L438.985 445.907L444.896 442.684C445.629 442.293 446.622 442.293 447.459 442.684L452.063 445.174C452.795 445.565 453.371 446.395 453.371 447.274V452.255C453.371 453.037 452.952 453.867 452.063 454.355L447.564 456.846C446.832 457.237 445.838 457.237 445.001 456.846L440.397 454.355C439.665 453.965 439.089 453.134 439.089 452.255V449.032L435.009 451.23V454.551C435.009 455.332 435.428 456.162 436.317 456.651L445.001 461.339C445.733 461.73 446.727 461.73 447.564 461.339L456.248 456.699C456.98 456.309 457.556 455.479 457.556 454.599V445.125C457.556 444.344 457.137 443.514 456.248 443.025L447.564 438.337Z" fill="#8248E5"/>
<path d="M0.675422 353.025L4.66914 343.823H4.76537L8.75909 353.025H6.73817L6.05251 351.293H3.11736L2.39561 353.025H0.675422ZM3.73086 349.825H5.4751L4.62102 347.672L3.73086 349.825ZM10.0575 344.171L12.0784 349.164L13.979 344.171H16.0481L12.0062 353.434L7.96441 344.171H10.0575ZM15.3831 353.025L19.3768 343.823H19.473L23.4668 353.025H21.4458L20.7602 351.293H17.825L17.1033 353.025H15.3831ZM18.4385 349.825H20.1828L19.3287 347.672L18.4385 349.825ZM24.7574 344.171H26.5016V351.341H30.6637V353.025H24.7574V344.171ZM31.4652 353.025L35.4589 343.823H35.5551L39.5488 353.025H37.5279L36.8423 351.293H33.9071L33.1854 353.025H31.4652ZM34.5206 349.825H36.2649L35.4108 347.672L34.5206 349.825ZM48.7667 353.386L42.5717 347.792L42.6078 353.025H40.8395V343.823H40.9116L47.0947 349.5L47.0586 344.171H48.8149V353.386H48.7667ZM57.735 352.291C57.6388 352.371 57.4584 352.48 57.1937 352.616C56.9371 352.752 56.6203 352.873 56.2434 352.977C55.8665 353.081 55.4495 353.129 54.9924 353.121C54.2947 353.105 53.6691 352.981 53.1158 352.748C52.5705 352.508 52.1053 352.183 51.7204 351.774C51.3435 351.365 51.0548 350.896 50.8543 350.366C50.6538 349.837 50.5536 349.272 50.5536 348.67C50.5536 347.772 50.734 346.978 51.0949 346.289C51.4558 345.599 51.957 345.058 52.5985 344.665C53.2481 344.272 54.002 344.075 54.86 344.075C55.4535 344.075 55.9788 344.155 56.4359 344.316C56.893 344.476 57.2659 344.649 57.5546 344.833L56.8689 346.481C56.6684 346.329 56.3998 346.172 56.063 346.012C55.7342 345.843 55.3532 345.759 54.9202 345.759C54.4711 345.759 54.0501 345.884 53.6571 346.132C53.2722 346.381 52.9594 346.718 52.7188 347.143C52.4863 347.56 52.37 348.037 52.37 348.574C52.37 349.143 52.4782 349.645 52.6948 350.078C52.9113 350.503 53.2201 350.836 53.621 351.076C54.022 351.317 54.4911 351.437 55.0285 351.437C55.5016 351.437 55.9066 351.361 56.2434 351.208C56.5802 351.056 56.8369 350.896 57.0133 350.727L57.735 352.291ZM66.9286 344.171V353.025H65.1843V349.428H61.2267V353.025H59.4825V344.171H61.2267V347.744H65.1843V344.171H66.9286ZM69.2093 344.171H75.248V345.855H70.9535V347.744H74.7548V349.428H70.9535V351.341H75.4164V353.025H69.2093V344.171Z" fill="white"/>
<g filter="url(#filter3_b_766_1235)">
<circle cx="38.5099" cy="306.083" r="28.9325" fill="black" fill-opacity="0.4"/>
</g>
<circle cx="38.4402" cy="306.012" r="18.0388" fill="white"/>
<path fill-rule="evenodd" clip-rule="evenodd" d="M38.7514 326.818C50.3362 326.818 59.7275 317.427 59.7275 305.842C59.7275 294.258 50.3362 284.866 38.7514 284.866C27.1667 284.866 17.7754 294.258 17.7754 305.842C17.7754 317.427 27.1667 326.818 38.7514 326.818ZM32.4134 315.345H27.4926C26.3259 315.345 25.7426 315.345 25.3932 315.119C25.0156 314.875 24.7774 314.466 24.7522 314.017C24.7288 313.602 25.0177 313.095 25.5956 312.083L25.5958 312.083L36.3696 293.208C36.956 292.181 37.2492 291.667 37.6223 291.476C38.0253 291.27 38.5032 291.269 38.9065 291.475C39.2799 291.666 39.5738 292.179 40.1617 293.206L42.6465 297.544L42.6466 297.544C43.0741 298.29 43.2878 298.664 43.3818 299.057C43.4841 299.486 43.4843 299.933 43.3824 300.361C43.2887 300.755 43.0753 301.129 42.6484 301.875L36.2058 313.146C35.7727 313.904 35.5561 314.282 35.2594 314.566C34.9364 314.874 34.5448 315.101 34.1167 315.228C33.7234 315.345 33.2868 315.345 32.4134 315.345ZM49.9693 315.345H44.2642C43.087 315.345 42.4983 315.345 42.1478 315.117C41.7691 314.871 41.5316 314.458 41.5092 314.008C41.4885 313.59 41.7848 313.082 42.3773 312.066L45.2251 307.18C45.8101 306.176 46.1027 305.674 46.473 305.486C46.8733 305.283 47.3466 305.283 47.7471 305.485C48.1178 305.673 48.411 306.174 48.9973 307.177L48.9975 307.177L51.8548 312.063C52.4495 313.08 52.7469 313.589 52.7266 314.006C52.7046 314.457 52.4672 314.871 52.0884 315.117C51.7379 315.345 51.1484 315.345 49.9693 315.345Z" fill="#D74F4A"/>
<path d="M279.034 608.472C279.956 608.472 280.69 608.661 281.236 609.038C281.781 609.407 282.054 609.96 282.054 610.698C282.054 611.147 281.957 611.536 281.765 611.865C281.58 612.193 281.324 612.458 280.995 612.658C281.452 612.875 281.813 613.16 282.078 613.513C282.342 613.857 282.475 614.258 282.475 614.715C282.475 615.197 282.386 615.606 282.21 615.942C282.041 616.271 281.809 616.54 281.512 616.748C281.224 616.949 280.895 617.097 280.526 617.193C280.157 617.282 279.776 617.326 279.383 617.326H276.436V608.472H279.034ZM279.239 612.093C279.584 612.093 279.836 611.989 279.997 611.78C280.165 611.572 280.249 611.335 280.249 611.071C280.249 610.766 280.145 610.537 279.936 610.385C279.736 610.233 279.463 610.156 279.118 610.156H278.18V612.093H279.239ZM279.299 615.702C279.684 615.702 280.009 615.626 280.273 615.473C280.538 615.313 280.67 615.06 280.67 614.715C280.67 614.459 280.598 614.266 280.454 614.138C280.309 614.002 280.121 613.909 279.888 613.861C279.664 613.805 279.427 613.777 279.179 613.777H278.18V615.702H279.299ZM284.224 608.472H285.969V617.326H284.224V608.472ZM296.181 617.687L289.986 612.093L290.022 617.326H288.254V608.123H288.326L294.509 613.801L294.473 608.472H296.229V617.687H296.181ZM297.511 617.326L301.504 608.123H301.601L305.594 617.326H303.573L302.888 615.594H299.953L299.231 617.326H297.511ZM300.566 614.126H302.31L301.456 611.973L300.566 614.126ZM314.812 617.687L308.617 612.093L308.653 617.326H306.885V608.123H306.957L313.14 613.801L313.104 608.472H314.86V617.687H314.812ZM323.781 616.592C323.684 616.672 323.504 616.78 323.239 616.917C322.983 617.053 322.666 617.173 322.289 617.278C321.912 617.382 321.495 617.43 321.038 617.422C320.34 617.406 319.715 617.282 319.161 617.049C318.616 616.809 318.151 616.484 317.766 616.075C317.389 615.666 317.1 615.197 316.9 614.667C316.699 614.138 316.599 613.573 316.599 612.971C316.599 612.073 316.779 611.279 317.14 610.589C317.501 609.9 318.002 609.358 318.644 608.965C319.294 608.573 320.047 608.376 320.906 608.376C321.499 608.376 322.024 608.456 322.481 608.617C322.938 608.777 323.311 608.949 323.6 609.134L322.914 610.782C322.714 610.63 322.445 610.473 322.108 610.313C321.78 610.144 321.399 610.06 320.966 610.06C320.517 610.06 320.096 610.184 319.703 610.433C319.318 610.682 319.005 611.018 318.764 611.443C318.532 611.861 318.415 612.338 318.415 612.875C318.415 613.444 318.524 613.946 318.74 614.379C318.957 614.804 319.266 615.136 319.667 615.377C320.067 615.618 320.537 615.738 321.074 615.738C321.547 615.738 321.952 615.662 322.289 615.509C322.626 615.357 322.882 615.197 323.059 615.028L323.781 616.592ZM325.528 608.472H331.567V610.156H327.272V612.045H331.073V613.729H327.272V615.642H331.735V617.326H325.528V608.472ZM266.415 627.613C266.078 627.429 265.733 627.277 265.38 627.156C265.035 627.036 264.71 626.976 264.406 626.976C264.029 626.976 263.732 627.052 263.516 627.204C263.299 627.357 263.191 627.585 263.191 627.89C263.191 628.099 263.271 628.287 263.431 628.456C263.6 628.616 263.812 628.76 264.069 628.889C264.334 629.017 264.606 629.133 264.887 629.237C265.232 629.366 265.565 629.53 265.885 629.731C266.206 629.923 266.471 630.192 266.679 630.537C266.888 630.873 266.992 631.322 266.992 631.884C266.992 632.333 266.876 632.75 266.643 633.135C266.411 633.52 266.07 633.833 265.621 634.073C265.172 634.306 264.618 634.422 263.961 634.422C263.455 634.422 262.938 634.346 262.409 634.193C261.888 634.041 261.394 633.801 260.929 633.472L261.699 632.112C262.004 632.337 262.353 632.521 262.746 632.666C263.139 632.81 263.491 632.882 263.804 632.882C264.013 632.882 264.221 632.854 264.43 632.798C264.646 632.734 264.823 632.63 264.959 632.485C265.103 632.341 265.176 632.14 265.176 631.884C265.176 631.619 265.047 631.391 264.791 631.198C264.542 630.998 264.241 630.829 263.888 630.693C263.616 630.589 263.335 630.468 263.046 630.332C262.758 630.196 262.485 630.031 262.228 629.839C261.98 629.638 261.775 629.394 261.615 629.105C261.463 628.808 261.386 628.448 261.386 628.022C261.386 627.509 261.499 627.064 261.723 626.687C261.956 626.31 262.281 626.014 262.698 625.797C263.115 625.573 263.596 625.448 264.141 625.424C264.855 625.424 265.432 625.508 265.873 625.677C266.322 625.845 266.723 626.046 267.076 626.278L266.415 627.613ZM268.7 634.326V625.111H268.712L273.199 631.475L277.794 625.111H277.818V634.326H276.074V630.104L273.187 634.206H273.163L270.384 630.368V634.326H268.7ZM279.108 634.326L283.102 625.123H283.198L287.192 634.326H285.171L284.486 632.594H281.55L280.829 634.326H279.108ZM282.164 631.126H283.908L283.054 628.973L282.164 631.126ZM291.165 625.472C292.28 625.472 293.134 625.745 293.728 626.29C294.329 626.828 294.63 627.549 294.63 628.456C294.63 628.961 294.521 629.458 294.305 629.947C294.096 630.436 293.74 630.825 293.234 631.114L295.291 634.326H293.258L291.394 631.511H290.227V634.326H288.483V625.472H291.165ZM291.466 629.827C291.819 629.827 292.092 629.755 292.284 629.61C292.484 629.458 292.625 629.282 292.705 629.081C292.785 628.873 292.825 628.684 292.825 628.516C292.825 628.419 292.809 628.299 292.777 628.155C292.753 628.002 292.697 627.85 292.609 627.698C292.521 627.545 292.384 627.417 292.2 627.313C292.023 627.208 291.783 627.156 291.478 627.156H290.227V629.827H291.466ZM295.952 625.472H301.918V627.156H299.765V634.326H298.021V627.156H295.952V625.472ZM314.154 633.592C314.057 633.672 313.877 633.78 313.612 633.917C313.356 634.053 313.039 634.173 312.662 634.278C312.285 634.382 311.868 634.43 311.411 634.422C310.713 634.406 310.088 634.282 309.534 634.049C308.989 633.809 308.524 633.484 308.139 633.075C307.762 632.666 307.473 632.197 307.273 631.667C307.072 631.138 306.972 630.573 306.972 629.971C306.972 629.073 307.153 628.279 307.513 627.589C307.874 626.9 308.376 626.358 309.017 625.965C309.667 625.573 310.42 625.376 311.279 625.376C311.872 625.376 312.397 625.456 312.854 625.617C313.312 625.777 313.684 625.949 313.973 626.134L313.287 627.782C313.087 627.63 312.818 627.473 312.482 627.313C312.153 627.144 311.772 627.06 311.339 627.06C310.89 627.06 310.469 627.184 310.076 627.433C309.691 627.682 309.378 628.018 309.137 628.443C308.905 628.861 308.789 629.338 308.789 629.875C308.789 630.444 308.897 630.946 309.113 631.379C309.33 631.804 309.639 632.136 310.04 632.377C310.441 632.618 310.91 632.738 311.447 632.738C311.92 632.738 312.325 632.662 312.662 632.509C312.999 632.357 313.255 632.197 313.432 632.028L314.154 633.592ZM323.347 625.472V634.326H321.603V630.729H317.645V634.326H315.901V625.472H317.645V629.045H321.603V625.472H323.347ZM324.629 634.326L328.623 625.123H328.719L332.713 634.326H330.692L330.006 632.594H327.071L326.35 634.326H324.629ZM327.685 631.126H329.429L328.575 628.973L327.685 631.126ZM334.004 625.472H335.748V634.326H334.004V625.472ZM345.96 634.687L339.765 629.093L339.801 634.326H338.033V625.123H338.105L344.288 630.801L344.252 625.472H346.008V634.687H345.96Z" fill="white"/>
<g filter="url(#filter4_b_766_1235)">
<circle cx="304.291" cy="570.17" r="28.9325" fill="black" fill-opacity="0.4"/>
</g>
<path d="M305.226 560.875L297.976 568.124L293.757 563.906L305.226 552.437L316.698 563.909L312.479 568.128L305.226 560.875Z" fill="#F0B90A"/>
<path d="M294.997 571.102L290.778 566.884L286.56 571.103L290.778 575.321L294.997 571.102Z" fill="#F0B90A"/>
<path d="M305.226 581.331L297.976 574.082L293.751 578.295L293.757 578.301L305.226 589.769L316.698 578.297L316.7 578.294L312.479 574.078L305.226 581.331Z" fill="#F0B90A"/>
<path d="M319.674 575.323L323.892 571.104L319.673 566.886L315.455 571.105L319.674 575.323Z" fill="#F0B90A"/>
<path d="M309.506 571.101H309.508L305.227 566.82L300.95 571.109L305.227 575.386L309.508 571.105L309.51 571.103L309.506 571.101Z" fill="#F0B90A"/>
<path d="M142.636 124.155V114.941H142.648L147.135 121.304L151.73 114.941H151.754V124.155H150.01V119.933L147.123 124.035H147.099L144.32 120.197V124.155H142.636ZM153.501 119.74C153.501 119.131 153.618 118.553 153.85 118.008C154.083 117.463 154.404 116.982 154.813 116.565C155.23 116.14 155.711 115.807 156.256 115.566C156.801 115.326 157.387 115.205 158.012 115.205C158.63 115.205 159.211 115.326 159.757 115.566C160.302 115.807 160.783 116.14 161.2 116.565C161.625 116.982 161.954 117.463 162.186 118.008C162.427 118.553 162.547 119.131 162.547 119.74C162.547 120.366 162.427 120.951 162.186 121.497C161.954 122.042 161.625 122.523 161.2 122.94C160.783 123.349 160.302 123.67 159.757 123.902C159.211 124.135 158.63 124.251 158.012 124.251C157.387 124.251 156.801 124.135 156.256 123.902C155.711 123.67 155.23 123.349 154.813 122.94C154.404 122.523 154.083 122.042 153.85 121.497C153.618 120.951 153.501 120.366 153.501 119.74ZM155.306 119.74C155.306 120.262 155.426 120.739 155.667 121.172C155.915 121.597 156.248 121.938 156.665 122.194C157.082 122.443 157.551 122.567 158.072 122.567C158.578 122.567 159.031 122.443 159.432 122.194C159.841 121.938 160.162 121.597 160.394 121.172C160.627 120.739 160.743 120.262 160.743 119.74C160.743 119.203 160.623 118.722 160.382 118.297C160.141 117.864 159.817 117.523 159.408 117.274C158.999 117.018 158.538 116.889 158.024 116.889C157.511 116.889 157.05 117.018 156.641 117.274C156.232 117.523 155.907 117.864 155.667 118.297C155.426 118.722 155.306 119.203 155.306 119.74ZM163.745 119.74C163.745 119.131 163.861 118.553 164.094 118.008C164.326 117.463 164.647 116.982 165.056 116.565C165.473 116.14 165.954 115.807 166.5 115.566C167.045 115.326 167.63 115.205 168.256 115.205C168.873 115.205 169.455 115.326 170 115.566C170.546 115.807 171.027 116.14 171.444 116.565C171.869 116.982 172.198 117.463 172.43 118.008C172.671 118.553 172.791 119.131 172.791 119.74C172.791 120.366 172.671 120.951 172.43 121.497C172.198 122.042 171.869 122.523 171.444 122.94C171.027 123.349 170.546 123.67 170 123.902C169.455 124.135 168.873 124.251 168.256 124.251C167.63 124.251 167.045 124.135 166.5 123.902C165.954 123.67 165.473 123.349 165.056 122.94C164.647 122.523 164.326 122.042 164.094 121.497C163.861 120.951 163.745 120.366 163.745 119.74ZM165.549 119.74C165.549 120.262 165.67 120.739 165.91 121.172C166.159 121.597 166.492 121.938 166.909 122.194C167.326 122.443 167.795 122.567 168.316 122.567C168.821 122.567 169.274 122.443 169.675 122.194C170.084 121.938 170.405 121.597 170.638 121.172C170.87 120.739 170.987 120.262 170.987 119.74C170.987 119.203 170.866 118.722 170.626 118.297C170.385 117.864 170.06 117.523 169.651 117.274C169.242 117.018 168.781 116.889 168.268 116.889C167.755 116.889 167.294 117.018 166.885 117.274C166.476 117.523 166.151 117.864 165.91 118.297C165.67 118.722 165.549 119.203 165.549 119.74ZM182.457 124.516L176.262 118.922L176.298 124.155H174.53V114.953H174.602L180.785 120.63L180.749 115.301H182.505V124.516H182.457ZM187.468 115.301C188.583 115.301 189.437 115.574 190.03 116.119C190.632 116.657 190.932 117.379 190.932 118.285C190.932 118.79 190.824 119.287 190.608 119.776C190.399 120.266 190.042 120.655 189.537 120.943L191.594 124.155H189.561L187.696 121.34H186.53V124.155H184.785V115.301H187.468ZM187.769 119.656C188.122 119.656 188.394 119.584 188.587 119.44C188.787 119.287 188.927 119.111 189.008 118.91C189.088 118.702 189.128 118.513 189.128 118.345C189.128 118.249 189.112 118.128 189.08 117.984C189.056 117.832 189 117.679 188.911 117.527C188.823 117.375 188.687 117.246 188.502 117.142C188.326 117.038 188.085 116.986 187.781 116.986H186.53V119.656H187.769ZM193.032 115.301H194.776V124.155H193.032V115.301ZM198.397 115.301L200.418 120.294L202.318 115.301H204.387L200.345 124.564L196.304 115.301H198.397ZM205.919 115.301H211.958V116.986H207.663V118.874H211.464V120.558H207.663V122.471H212.126V124.155H205.919V115.301ZM216.613 115.301C217.728 115.301 218.582 115.574 219.175 116.119C219.777 116.657 220.077 117.379 220.077 118.285C220.077 118.79 219.969 119.287 219.753 119.776C219.544 120.266 219.187 120.655 218.682 120.943L220.739 124.155H218.706L216.842 121.34H215.675V124.155H213.931V115.301H216.613ZM216.914 119.656C217.267 119.656 217.539 119.584 217.732 119.44C217.932 119.287 218.073 119.111 218.153 118.91C218.233 118.702 218.273 118.513 218.273 118.345C218.273 118.249 218.257 118.128 218.225 117.984C218.201 117.832 218.145 117.679 218.057 117.527C217.968 117.375 217.832 117.246 217.648 117.142C217.471 117.038 217.231 116.986 216.926 116.986H215.675V119.656H216.914Z" fill="white"/>
<g filter="url(#filter5_b_766_1235)">
<circle cx="181.376" cy="443.898" r="28.9325" fill="black" fill-opacity="0.4"/>
</g>
<path opacity="0.5" d="M160.935 483.749C160.598 483.565 160.253 483.413 159.901 483.292C159.556 483.172 159.231 483.112 158.926 483.112C158.549 483.112 158.253 483.188 158.036 483.34C157.82 483.493 157.711 483.721 157.711 484.026C157.711 484.235 157.791 484.423 157.952 484.591C158.12 484.752 158.333 484.896 158.589 485.024C158.854 485.153 159.127 485.269 159.407 485.373C159.752 485.502 160.085 485.666 160.406 485.866C160.727 486.059 160.991 486.328 161.2 486.672C161.408 487.009 161.513 487.458 161.513 488.02C161.513 488.469 161.396 488.886 161.164 489.271C160.931 489.656 160.59 489.968 160.141 490.209C159.692 490.442 159.139 490.558 158.481 490.558C157.976 490.558 157.459 490.482 156.929 490.329C156.408 490.177 155.915 489.936 155.45 489.608L156.22 488.248C156.524 488.473 156.873 488.657 157.266 488.802C157.659 488.946 158.012 489.018 158.325 489.018C158.533 489.018 158.742 488.99 158.95 488.934C159.167 488.87 159.343 488.766 159.48 488.621C159.624 488.477 159.696 488.276 159.696 488.02C159.696 487.755 159.568 487.527 159.311 487.334C159.063 487.134 158.762 486.965 158.409 486.829C158.136 486.725 157.856 486.604 157.567 486.468C157.278 486.332 157.006 486.167 156.749 485.975C156.5 485.774 156.296 485.53 156.135 485.241C155.983 484.944 155.907 484.583 155.907 484.158C155.907 483.645 156.019 483.2 156.244 482.823C156.476 482.446 156.801 482.149 157.218 481.933C157.635 481.708 158.116 481.584 158.662 481.56C159.375 481.56 159.953 481.644 160.394 481.813C160.843 481.981 161.244 482.182 161.597 482.414L160.935 483.749ZM162.679 486.047C162.679 485.437 162.796 484.86 163.028 484.315C163.261 483.769 163.582 483.288 163.991 482.871C164.408 482.446 164.889 482.113 165.434 481.873C165.979 481.632 166.565 481.512 167.19 481.512C167.808 481.512 168.389 481.632 168.935 481.873C169.48 482.113 169.961 482.446 170.378 482.871C170.803 483.288 171.132 483.769 171.365 484.315C171.605 484.86 171.725 485.437 171.725 486.047C171.725 486.672 171.605 487.258 171.365 487.803C171.132 488.349 170.803 488.83 170.378 489.247C169.961 489.656 169.48 489.976 168.935 490.209C168.389 490.442 167.808 490.558 167.19 490.558C166.565 490.558 165.979 490.442 165.434 490.209C164.889 489.976 164.408 489.656 163.991 489.247C163.582 488.83 163.261 488.349 163.028 487.803C162.796 487.258 162.679 486.672 162.679 486.047ZM164.484 486.047C164.484 486.568 164.604 487.045 164.845 487.478C165.093 487.903 165.426 488.244 165.843 488.501C166.26 488.75 166.729 488.874 167.251 488.874C167.756 488.874 168.209 488.75 168.61 488.501C169.019 488.244 169.34 487.903 169.572 487.478C169.805 487.045 169.921 486.568 169.921 486.047C169.921 485.51 169.801 485.028 169.56 484.603C169.32 484.17 168.995 483.83 168.586 483.581C168.177 483.324 167.716 483.196 167.202 483.196C166.689 483.196 166.228 483.324 165.819 483.581C165.41 483.83 165.085 484.17 164.845 484.603C164.604 485.028 164.484 485.51 164.484 486.047ZM173.464 481.608H175.209V488.778H179.371V490.462H173.464V481.608ZM180.172 490.462L184.166 481.259H184.262L188.256 490.462H186.235L185.549 488.729H182.614L181.892 490.462H180.172ZM183.228 487.262H184.972L184.118 485.109L183.228 487.262ZM197.474 490.823L191.279 485.229L191.315 490.462H189.547V481.259H189.619L195.802 486.937L195.766 481.608H197.522V490.823H197.474ZM198.804 490.462L202.797 481.259H202.893L206.887 490.462H204.866L204.181 488.729H201.245L200.524 490.462H198.804ZM201.859 487.262H203.603L202.749 485.109L201.859 487.262Z" fill="white"/>
<g filter="url(#filter6_b_766_1235)">
<circle cx="182.105" cy="159.605" r="28.9325" fill="black" fill-opacity="0.4"/>
</g>
<path d="M170.396 169.489C169.91 169.489 169.518 169.092 169.518 168.6V162.852C169.518 162.361 169.91 161.964 170.396 161.964C170.882 161.964 171.274 162.361 171.274 162.852V168.6C171.274 169.092 170.882 169.489 170.396 169.489Z" fill="#65C7C7"/>
<path d="M173.747 170.112C173.262 170.112 172.869 169.715 172.869 169.223V161.112C172.869 160.62 173.262 160.223 173.747 160.223C174.233 160.223 174.626 160.62 174.626 161.112V169.223C174.644 169.715 174.233 170.112 173.747 170.112Z" fill="#65C7C7"/>
<path d="M180.446 169.055C179.96 169.055 179.568 168.658 179.568 168.166V162.229C179.568 161.738 179.96 161.341 180.446 161.341C180.932 161.341 181.324 161.738 181.324 162.229V168.166C181.324 168.658 180.932 169.055 180.446 169.055Z" fill="#65C7C7"/>
<path d="M183.797 166.674C183.312 166.674 182.919 166.277 182.919 165.785V164.443C182.919 163.951 183.312 163.554 183.797 163.554C184.283 163.554 184.676 163.951 184.676 164.443V165.785C184.676 166.258 184.283 166.674 183.797 166.674Z" fill="#65C7C7"/>
<path d="M177.107 178.205C176.621 178.205 176.229 177.808 176.229 177.316V161.113C176.229 160.621 176.621 160.224 177.107 160.224C177.593 160.224 177.985 160.621 177.985 161.113V177.316C177.985 177.808 177.593 178.205 177.107 178.205Z" fill="#65C7C7"/>
<path d="M187.14 174.766C186.655 174.766 186.262 174.369 186.262 173.878V165.634C186.262 165.142 186.655 164.745 187.14 164.745C187.626 164.745 188.019 165.142 188.019 165.634V173.878C188.037 174.369 187.626 174.766 187.14 174.766Z" fill="#65C7C7"/>
<path d="M190.496 173.862C190.01 173.862 189.617 173.465 189.617 172.973V166.11C189.617 165.618 190.01 165.221 190.496 165.221C190.981 165.221 191.374 165.618 191.374 166.11V172.973C191.374 173.465 190.981 173.862 190.496 173.862Z" fill="#65C7C7"/>
<path d="M193.851 169.003C193.365 169.003 192.973 168.606 192.973 168.114V165.24C192.973 164.749 193.365 164.352 193.851 164.352C194.337 164.352 194.729 164.749 194.729 165.24V168.114C194.729 168.606 194.337 169.003 193.851 169.003Z" fill="#65C7C7"/>
<path d="M189.386 163.382C185.873 163.382 184.098 162.153 182.398 160.962C180.828 159.865 179.352 158.844 176.363 158.844C173.373 158.844 171.897 159.865 170.327 160.962C170.028 161.17 169.73 161.378 169.412 161.586C169.02 161.832 168.496 161.718 168.253 161.34C168.011 160.943 168.123 160.414 168.496 160.168C168.795 159.979 169.076 159.79 169.375 159.582C171.075 158.391 172.85 157.162 176.363 157.162C179.875 157.162 181.65 158.391 183.351 159.582C184.92 160.678 186.396 161.699 189.386 161.699C192.151 161.699 193.571 160.867 195.141 159.79C195.533 159.525 196.056 159.62 196.318 160.017C196.58 160.414 196.486 160.943 196.094 161.208C194.394 162.342 192.618 163.382 189.386 163.382Z" fill="#65C7C7"/>
<path d="M176.339 154.8C182.86 154.8 182.86 159.338 189.362 159.338C192.426 159.338 194.052 158.336 195.584 157.277L195.64 157.239C195.752 156.54 195.808 155.802 195.808 155.065C195.827 147.445 189.717 141.281 182.206 141.281C174.676 141.281 168.584 147.445 168.584 155.065C168.584 155.954 168.678 156.823 168.827 157.674C170.696 156.407 172.77 154.8 176.339 154.8Z" fill="#F1B71C"/>
<path opacity="0.3" d="M74.5298 308.19C74.1393 308.58 74.1393 309.214 74.5298 309.604L80.8938 315.968C81.2843 316.359 81.9175 316.359 82.308 315.968C82.6985 315.578 82.6985 314.944 82.308 314.554L76.6512 308.897L82.308 303.24C82.6985 302.85 82.6985 302.216 82.308 301.826C81.9175 301.435 81.2843 301.435 80.8938 301.826L74.5298 308.19ZM182.734 309.604C183.124 309.214 183.124 308.58 182.734 308.19L176.37 301.826C175.979 301.435 175.346 301.435 174.956 301.826C174.565 302.216 174.565 302.85 174.956 303.24L180.612 308.897L174.956 314.554C174.565 314.944 174.565 315.578 174.956 315.968C175.346 316.359 175.979 316.359 176.37 315.968L182.734 309.604ZM75.2369 309.897H182.027V307.897H75.2369V309.897Z" fill="#25C452"/>
<path opacity="0.3" d="M420.151 308.19C419.761 308.58 419.761 309.214 420.151 309.604L426.515 315.968C426.906 316.359 427.539 316.359 427.929 315.968C428.32 315.578 428.32 314.944 427.929 314.554L422.272 308.897L427.929 303.24C428.32 302.85 428.32 302.216 427.929 301.826C427.539 301.435 426.906 301.435 426.515 301.826L420.151 308.19ZM538.457 309.604C538.847 309.214 538.847 308.58 538.457 308.19L532.093 301.826C531.702 301.435 531.069 301.435 530.679 301.826C530.288 302.216 530.288 302.85 530.679 303.24L536.336 308.897L530.679 314.554C530.288 314.944 530.288 315.578 530.679 315.968C531.069 316.359 531.702 316.359 532.093 315.968L538.457 309.604ZM420.858 309.897H537.75V307.897H420.858V309.897Z" fill="#25C452"/>
<path opacity="0.3" d="M303.981 188.385C304.371 188.775 305.005 188.775 305.395 188.385L311.759 182.021C312.15 181.63 312.15 180.997 311.759 180.606C311.369 180.216 310.735 180.216 310.345 180.606L304.688 186.263L299.031 180.606C298.641 180.216 298.007 180.216 297.617 180.606C297.226 180.997 297.226 181.63 297.617 182.021L303.981 188.385ZM305.688 187.677L305.688 59.2412L303.688 59.2412L303.688 187.677L305.688 187.677Z" fill="#25C452"/>
<path opacity="0.3" d="M254.856 239.183C255.407 239.211 255.877 238.787 255.905 238.236L256.365 229.247C256.393 228.696 255.969 228.226 255.417 228.198C254.865 228.169 254.395 228.594 254.367 229.145L253.959 237.135L245.969 236.727C245.418 236.698 244.948 237.123 244.92 237.674C244.892 238.226 245.316 238.696 245.867 238.724L254.856 239.183ZM208.057 185.234C207.505 185.206 207.035 185.63 207.007 186.182L206.548 195.17C206.52 195.722 206.944 196.192 207.496 196.22C208.047 196.248 208.517 195.824 208.545 195.272L208.954 187.283L216.943 187.691C217.495 187.719 217.965 187.295 217.993 186.743C218.021 186.192 217.597 185.722 217.045 185.693L208.057 185.234ZM255.649 237.514L208.748 185.563L207.264 186.903L254.164 238.855L255.649 237.514Z" fill="#25C452"/>
<path opacity="0.3" d="M364.627 239.183C364.076 239.211 363.606 238.787 363.577 238.236L363.118 229.247C363.09 228.696 363.514 228.226 364.066 228.198C364.617 228.169 365.087 228.594 365.115 229.145L365.524 237.135L373.513 236.727C374.065 236.698 374.535 237.123 374.563 237.674C374.591 238.226 374.167 238.696 373.615 238.724L364.627 239.183ZM411.426 185.234C411.977 185.206 412.447 185.63 412.476 186.182L412.935 195.17C412.963 195.722 412.539 196.192 411.987 196.22C411.436 196.248 410.966 195.824 410.937 195.272L410.529 187.283L402.54 187.691C401.988 187.719 401.518 187.295 401.49 186.743C401.462 186.192 401.886 185.722 402.438 185.693L411.426 185.234ZM363.834 237.514L410.735 185.563L412.219 186.903L365.318 238.855L363.834 237.514Z" fill="#25C452"/>
<path opacity="0.3" d="M249.41 370.951C249.41 370.399 248.962 369.951 248.41 369.951L239.41 369.951C238.857 369.951 238.41 370.399 238.41 370.951C238.41 371.504 238.857 371.951 239.41 371.951L247.41 371.951L247.41 379.951C247.41 380.504 247.857 380.951 248.41 380.951C248.962 380.951 249.41 380.504 249.41 379.951L249.41 370.951ZM204.116 414.244C204.116 414.797 204.564 415.244 205.116 415.244L214.116 415.244C214.669 415.244 215.116 414.797 215.116 414.244C215.116 413.692 214.669 413.244 214.116 413.244L206.116 413.244L206.116 405.244C206.116 404.692 205.669 404.244 205.116 404.244C204.564 404.244 204.116 404.692 204.116 405.244L204.116 414.244ZM247.702 370.244L204.409 413.537L205.824 414.951L249.117 371.658L247.702 370.244Z" fill="#25C452"/>
<path opacity="0.3" d="M368.63 369.516C368.625 368.964 369.07 368.513 369.622 368.508L378.622 368.436C379.174 368.432 379.625 368.876 379.63 369.428C379.634 369.98 379.19 370.432 378.638 370.436L370.638 370.5L370.702 378.5C370.706 379.052 370.262 379.503 369.71 379.508C369.158 379.512 368.706 379.068 368.702 378.516L368.63 369.516ZM416.088 414.236C416.092 414.789 415.648 415.24 415.096 415.244L406.096 415.316C405.544 415.321 405.092 414.877 405.088 414.324C405.084 413.772 405.528 413.321 406.08 413.316L414.08 413.252L414.016 405.253C414.011 404.7 414.455 404.249 415.008 404.245C415.56 404.24 416.011 404.684 416.016 405.237L416.088 414.236ZM370.331 368.795L415.789 413.532L414.386 414.957L368.928 370.221L370.331 368.795Z" fill="#25C452"/>
<path opacity="0.3" d="M304.706 530.399C305.097 530.79 305.73 530.79 306.12 530.399L312.484 524.035C312.875 523.645 312.875 523.012 312.484 522.621C312.094 522.231 311.461 522.231 311.07 522.621L305.413 528.278L299.756 522.621C299.366 522.231 298.733 522.231 298.342 522.621C297.952 523.012 297.952 523.645 298.342 524.035L304.706 530.399ZM306.12 430.133C305.73 429.742 305.097 429.742 304.706 430.133L298.342 436.496C297.952 436.887 297.952 437.52 298.342 437.911C298.733 438.301 299.366 438.301 299.756 437.911L305.413 432.254L311.07 437.911C311.461 438.301 312.094 438.301 312.484 437.911C312.875 437.52 312.875 436.887 312.484 436.496L306.12 430.133ZM306.413 529.692L306.413 430.84L304.413 430.84L304.413 529.692H306.413Z" fill="#25C452"/>
<path d="M167.874 199.218C167.872 198.666 167.422 198.22 166.87 198.222L157.87 198.258C157.318 198.26 156.872 198.709 156.874 199.261C156.876 199.814 157.326 200.26 157.878 200.257L165.878 200.226L165.909 208.226C165.912 208.778 166.361 209.224 166.913 209.222C167.466 209.22 167.912 208.77 167.909 208.218L167.874 199.218ZM74.9583 290.863C74.9604 291.415 75.4099 291.861 75.9622 291.859L84.9621 291.823C85.5144 291.821 85.9604 291.372 85.9582 290.82C85.956 290.267 85.5065 289.821 84.9542 289.823L76.9543 289.855L76.9227 281.855C76.9205 281.303 76.471 280.857 75.9187 280.859C75.3664 280.861 74.9205 281.311 74.9227 281.863L74.9583 290.863ZM166.164 198.518L75.2484 290.155L76.6681 291.563L167.584 199.926L166.164 198.518Z" fill="#25C452"/>
<path d="M304.869 58.5193L305.577 57.8129L304.884 57.119L304.177 57.7976L304.869 58.5193ZM219.273 139.637C219.261 140.189 219.699 140.646 220.252 140.657L229.25 140.845C229.802 140.857 230.259 140.418 230.27 139.866C230.282 139.314 229.844 138.857 229.291 138.846L221.293 138.679L221.46 130.68C221.472 130.128 221.033 129.671 220.481 129.66C219.929 129.648 219.472 130.087 219.46 130.639L219.273 139.637ZM394.887 149.713C395.439 149.714 395.888 149.267 395.888 148.714L395.897 139.714C395.897 139.162 395.45 138.714 394.898 138.713C394.345 138.713 393.897 139.16 393.897 139.712L393.889 147.712L385.889 147.705C385.337 147.704 384.889 148.151 384.888 148.704C384.888 149.256 385.335 149.704 385.887 149.705L394.887 149.713ZM304.177 57.7976L219.58 138.936L220.965 140.379L305.561 59.241L304.177 57.7976ZM304.161 59.2257L394.18 149.42L395.596 148.007L305.577 57.8129L304.161 59.2257Z" fill="#25C452"/>
<path d="M73.6326 323.051C73.0804 323.041 72.6247 323.481 72.6147 324.033L72.4518 333.031C72.4418 333.583 72.8813 334.039 73.4335 334.049C73.9857 334.059 74.4414 333.62 74.4514 333.068L74.5963 325.069L82.5949 325.214C83.1471 325.224 83.6029 324.784 83.6129 324.232C83.6229 323.68 83.1833 323.224 82.6312 323.214L73.6326 323.051ZM161.087 415.768C161.639 415.778 162.095 415.338 162.105 414.786L162.268 405.787C162.278 405.235 161.838 404.78 161.286 404.77C160.734 404.76 160.278 405.199 160.268 405.751L160.123 413.75L152.124 413.605C151.572 413.595 151.116 414.035 151.106 414.587C151.096 415.139 151.536 415.595 152.088 415.605L161.087 415.768ZM72.8947 324.745L160.385 415.462L161.825 414.074L74.3343 323.357L72.8947 324.745Z" fill="#25C452"/>
<path d="M450.164 203.534C450.173 202.982 450.628 202.542 451.18 202.551L460.179 202.7C460.731 202.709 461.172 203.164 461.162 203.716C461.153 204.268 460.698 204.709 460.146 204.699L452.147 204.567L452.015 212.566C452.006 213.118 451.551 213.559 450.999 213.549C450.446 213.54 450.006 213.085 450.015 212.533L450.164 203.534ZM538.028 292.318C538.019 292.87 537.564 293.311 537.012 293.302L528.013 293.153C527.461 293.144 527.021 292.689 527.03 292.136C527.039 291.584 527.494 291.144 528.046 291.153L536.045 291.285L536.177 283.286C536.187 282.734 536.642 282.294 537.194 282.303C537.746 282.312 538.186 282.767 538.177 283.319L538.028 292.318ZM451.883 202.855L537.747 291.606L536.31 292.997L450.445 204.246L451.883 202.855Z" fill="#25C452"/>
<path d="M209.892 463.299C209.897 462.747 210.349 462.304 210.901 462.309L219.901 462.393C220.453 462.398 220.896 462.85 220.891 463.402C220.886 463.955 220.434 464.398 219.882 464.393L211.882 464.318L211.808 472.318C211.802 472.87 211.351 473.314 210.798 473.308C210.246 473.303 209.802 472.851 209.808 472.299L209.892 463.299ZM288.376 541.246C288.371 541.798 287.919 542.242 287.367 542.236L278.367 542.152C277.815 542.147 277.371 541.695 277.377 541.143C277.382 540.591 277.834 540.147 278.386 540.152L286.386 540.227L286.46 532.228C286.466 531.675 286.917 531.232 287.47 531.237C288.022 531.242 288.465 531.694 288.46 532.246L288.376 541.246ZM211.605 462.608L288.09 540.536L286.663 541.937L210.178 464.009L211.605 462.608Z" fill="#25C452"/>
<path d="M539.715 323.05C540.267 323.04 540.723 323.48 540.733 324.032L540.896 333.03C540.906 333.583 540.466 334.038 539.914 334.048C539.362 334.058 538.906 333.619 538.896 333.067L538.751 325.068L530.752 325.213C530.2 325.223 529.745 324.783 529.735 324.231C529.725 323.679 530.164 323.223 530.716 323.213L539.715 323.05ZM452.261 415.767C451.708 415.777 451.253 415.337 451.243 414.785L451.08 405.787C451.07 405.234 451.509 404.779 452.062 404.769C452.614 404.759 453.07 405.198 453.079 405.75L453.224 413.749L461.223 413.604C461.775 413.594 462.231 414.034 462.241 414.586C462.251 415.138 461.811 415.594 461.259 415.604L452.261 415.767ZM540.453 324.744L452.962 415.461L451.523 414.073L539.013 323.356L540.453 324.744Z" fill="#25C452"/>
<path d="M403.812 463.302C403.808 462.75 403.358 462.305 402.805 462.309L393.806 462.372C393.253 462.376 392.809 462.827 392.813 463.379C392.817 463.931 393.267 464.376 393.82 464.372L401.819 464.316L401.876 472.316C401.88 472.868 402.33 473.313 402.883 473.309C403.435 473.305 403.879 472.854 403.876 472.302L403.812 463.302ZM325.328 540.883C325.332 541.435 325.783 541.88 326.335 541.876L335.335 541.813C335.887 541.809 336.332 541.358 336.328 540.806C336.324 540.253 335.873 539.809 335.321 539.813L327.321 539.869L327.265 531.869C327.261 531.317 326.81 530.872 326.258 530.876C325.705 530.88 325.261 531.331 325.265 531.883L325.328 540.883ZM402.1 462.607L325.616 540.174L327.04 541.578L403.524 464.011L402.1 462.607Z" fill="#25C452"/>
<path d="M270.204 11.8779H276.243V13.562H271.949V15.4506H275.75V17.1347H271.949V19.0473H276.412V20.7314H270.204V11.8779ZM277.615 11.8779H283.581V13.562H281.428V20.7314H279.684V13.562H277.615V11.8779ZM292.711 11.8779V20.7314H290.966V17.1347H287.009V20.7314H285.265V11.8779H287.009V15.4506L290.966 15.4506V11.8779H292.711ZM294.991 11.8779H301.03V13.562H296.736V15.4506H300.537V17.1347H296.736V19.0473H301.198V20.7314H294.991V11.8779ZM305.686 11.8779C306.8 11.8779 307.654 12.1506 308.248 12.6959C308.849 13.2332 309.15 13.955 309.15 14.8612C309.15 15.3664 309.042 15.8636 308.825 16.3528C308.617 16.842 308.26 17.2309 307.755 17.5196L309.812 20.7314H307.779L305.914 17.9166H304.747V20.7314H303.003V11.8779H305.686ZM305.986 16.2325C306.339 16.2325 306.612 16.1603 306.804 16.016C307.005 15.8636 307.145 15.6872 307.225 15.4867C307.305 15.2782 307.346 15.0897 307.346 14.9213C307.346 14.8251 307.33 14.7048 307.297 14.5604C307.273 14.4081 307.217 14.2557 307.129 14.1033C307.041 13.9509 306.904 13.8226 306.72 13.7184C306.544 13.6141 306.303 13.562 305.998 13.562H304.747V16.2325H305.986ZM311.25 11.8779H317.288V13.562H312.994V15.4506H316.795V17.1347H312.994V19.0473H317.457V20.7314L311.25 20.7314V11.8779ZM320.825 17.4595C320.825 17.7402 320.909 18.0088 321.078 18.2654C321.246 18.5221 321.467 18.7306 321.739 18.891C322.02 19.0514 322.325 19.1316 322.654 19.1316C323.014 19.1316 323.335 19.0514 323.616 18.891C323.897 18.7306 324.117 18.5221 324.277 18.2654C324.446 18.0088 324.53 17.7402 324.53 17.4595V11.8779H326.25V17.4956C326.25 18.1452 326.09 18.7226 325.769 19.2278C325.448 19.725 325.015 20.118 324.47 20.4067C323.925 20.6873 323.319 20.8277 322.654 20.8277C321.996 20.8277 321.394 20.6873 320.849 20.4067C320.312 20.118 319.883 19.725 319.562 19.2278C319.241 18.7226 319.081 18.1452 319.081 17.4956V11.8779H320.825V17.4595ZM328.354 20.7314V11.517H328.366L332.853 17.8805L337.448 11.517H337.472V20.7314H335.728V16.5092L332.841 20.6112H332.817L330.038 16.7738V20.7314H328.354Z" fill="white"/>
<g filter="url(#filter7_b_766_1235)">
<circle cx="304.042" cy="55.7054" r="28.9325" fill="black" fill-opacity="0.4"/>
</g>
<g opacity="0.3">
<path d="M169.993 450.751C170.129 450.614 170.4 450.476 170.806 450.476H196.957C197.499 450.476 197.634 451.026 197.363 451.438L192.214 456.655C192.079 456.793 191.808 456.93 191.401 456.93H165.251C164.709 456.93 164.573 456.381 164.844 455.969L169.993 450.751Z" fill="url(#paint2_linear_766_1235)"/>
<path d="M169.993 431.114C170.129 430.977 170.4 430.839 170.806 430.839H196.957C197.499 430.839 197.634 431.389 197.363 431.801L192.214 437.018C192.079 437.156 191.808 437.293 191.401 437.293H165.251C164.709 437.293 164.573 436.744 164.844 436.332L169.993 431.114Z" fill="url(#paint3_linear_766_1235)"/>
<path d="M192.079 440.864C191.943 440.727 191.672 440.589 191.266 440.589H165.251C164.709 440.589 164.573 441.139 164.844 441.551L169.993 446.769C170.129 446.906 170.4 447.043 170.806 447.043H196.957C197.499 447.043 197.634 446.494 197.363 446.082L192.079 440.864Z" fill="url(#paint4_linear_766_1235)"/>
</g>
<path d="M304.048 64.9414V74.3136L315.669 58.1465L304.048 64.9414Z" fill="#7B79EC"/>
<path d="M304.048 50.7427V62.786L315.669 55.9911L304.048 50.7427Z" fill="#7B79EC"/>
<path d="M304.048 36.8713V50.7423L315.669 55.9908L304.048 36.8713Z" fill="#7B79EC"/>
<path d="M304.047 64.9414V74.3136L292.425 58.1465L304.047 64.9414Z" fill="#7B79EC"/>
<path d="M304.047 50.7427V62.786L292.425 55.9911L304.047 50.7427Z" fill="#7B79EC"/>
<path d="M304.047 36.8716V50.7425L292.426 55.991L304.047 36.8716Z" fill="#7B79EC"/>
<defs>
<filter id="filter0_b_766_1235" x="520.395" y="250.419" width="111.328" height="111.328" filterUnits="userSpaceOnUse" color-interpolation-filters="sRGB">
<feFlood flood-opacity="0" result="BackgroundImageFix"/>
<feGaussianBlur in="BackgroundImage" stdDeviation="13.3659"/>
<feComposite in2="SourceAlpha" operator="in" result="effect1_backgroundBlur_766_1235"/>
<feBlend mode="normal" in="SourceGraphic" in2="effect1_backgroundBlur_766_1235" result="shape"/>
</filter>
<filter id="filter1_b_766_1235" x="380.425" y="103.943" width="111.328" height="111.188" filterUnits="userSpaceOnUse" color-interpolation-filters="sRGB">
<feFlood flood-opacity="0" result="BackgroundImageFix"/>
<feGaussianBlur in="BackgroundImage" stdDeviation="13.3659"/>
<feComposite in2="SourceAlpha" operator="in" result="effect1_backgroundBlur_766_1235"/>
<feBlend mode="normal" in="SourceGraphic" in2="effect1_backgroundBlur_766_1235" result="shape"/>
</filter>
<filter id="filter2_b_766_1235" x="380.421" y="388.234" width="111.328" height="111.328" filterUnits="userSpaceOnUse" color-interpolation-filters="sRGB">
<feFlood flood-opacity="0" result="BackgroundImageFix"/>
<feGaussianBlur in="BackgroundImage" stdDeviation="13.3659"/>
<feComposite in2="SourceAlpha" operator="in" result="effect1_backgroundBlur_766_1235"/>
<feBlend mode="normal" in="SourceGraphic" in2="effect1_backgroundBlur_766_1235" result="shape"/>
</filter>
<filter id="filter3_b_766_1235" x="-17.1543" y="250.419" width="111.328" height="111.328" filterUnits="userSpaceOnUse" color-interpolation-filters="sRGB">
<feFlood flood-opacity="0" result="BackgroundImageFix"/>
<feGaussianBlur in="BackgroundImage" stdDeviation="13.3659"/>
<feComposite in2="SourceAlpha" operator="in" result="effect1_backgroundBlur_766_1235"/>
<feBlend mode="normal" in="SourceGraphic" in2="effect1_backgroundBlur_766_1235" result="shape"/>
</filter>
<filter id="filter4_b_766_1235" x="248.627" y="514.505" width="111.328" height="111.328" filterUnits="userSpaceOnUse" color-interpolation-filters="sRGB">
<feFlood flood-opacity="0" result="BackgroundImageFix"/>
<feGaussianBlur in="BackgroundImage" stdDeviation="13.3659"/>
<feComposite in2="SourceAlpha" operator="in" result="effect1_backgroundBlur_766_1235"/>
<feBlend mode="normal" in="SourceGraphic" in2="effect1_backgroundBlur_766_1235" result="shape"/>
</filter>
<filter id="filter5_b_766_1235" x="125.712" y="388.234" width="111.328" height="111.328" filterUnits="userSpaceOnUse" color-interpolation-filters="sRGB">
<feFlood flood-opacity="0" result="BackgroundImageFix"/>
<feGaussianBlur in="BackgroundImage" stdDeviation="13.3659"/>
<feComposite in2="SourceAlpha" operator="in" result="effect1_backgroundBlur_766_1235"/>
<feBlend mode="normal" in="SourceGraphic" in2="effect1_backgroundBlur_766_1235" result="shape"/>
</filter>
<filter id="filter6_b_766_1235" x="126.441" y="103.941" width="111.328" height="111.328" filterUnits="userSpaceOnUse" color-interpolation-filters="sRGB">
<feFlood flood-opacity="0" result="BackgroundImageFix"/>
<feGaussianBlur in="BackgroundImage" stdDeviation="13.3659"/>
<feComposite in2="SourceAlpha" operator="in" result="effect1_backgroundBlur_766_1235"/>
<feBlend mode="normal" in="SourceGraphic" in2="effect1_backgroundBlur_766_1235" result="shape"/>
</filter>
<filter id="filter7_b_766_1235" x="248.378" y="0.0412407" width="111.328" height="111.328" filterUnits="userSpaceOnUse" color-interpolation-filters="sRGB">
<feFlood flood-opacity="0" result="BackgroundImageFix"/>
<feGaussianBlur in="BackgroundImage" stdDeviation="13.3659"/>
<feComposite in2="SourceAlpha" operator="in" result="effect1_backgroundBlur_766_1235"/>
<feBlend mode="normal" in="SourceGraphic" in2="effect1_backgroundBlur_766_1235" result="shape"/>
</filter>
<linearGradient id="paint0_linear_766_1235" x1="382.616" y1="199.222" x2="382.616" y2="355.077" gradientUnits="userSpaceOnUse">
<stop stop-color="#4AA956"/>
</linearGradient>
<linearGradient id="paint1_linear_766_1235" x1="562.087" y1="319.586" x2="589.644" y2="293.65" gradientUnits="userSpaceOnUse">
<stop stop-color="#00AEE9"/>
<stop offset="1" stop-color="#69FABD"/>
</linearGradient>
<linearGradient id="paint2_linear_766_1235" x1="194.393" y1="427.714" x2="175.915" y2="462.639" gradientUnits="userSpaceOnUse">
<stop stop-color="#00FFA3"/>
<stop offset="1" stop-color="#DC1FFF"/>
</linearGradient>
<linearGradient id="paint3_linear_766_1235" x1="186.48" y1="423.526" x2="168.002" y2="458.451" gradientUnits="userSpaceOnUse">
<stop stop-color="#00FFA3"/>
<stop offset="1" stop-color="#DC1FFF"/>
</linearGradient>
<linearGradient id="paint4_linear_766_1235" x1="190.411" y1="425.607" x2="171.933" y2="460.532" gradientUnits="userSpaceOnUse">
<stop stop-color="#00FFA3"/>
<stop offset="1" stop-color="#DC1FFF"/>
</linearGradient>
</defs>
</svg>
