<svg width="100" height="32" viewBox="0 0 100 32" fill="none" xmlns="http://www.w3.org/2000/svg">
<path d="M42.2455 5.00024C44.5241 5.00024 46.27 5.55762 47.4832 6.67237C48.7127 7.77073 49.3274 9.24614 49.3274 11.0986C49.3274 12.1314 49.1061 13.1478 48.6635 14.1478C48.2373 15.1478 47.5078 15.9429 46.475 16.533L50.6799 23.0986H46.5241L42.7127 17.3445H40.3274V23.0986H36.7618V5.00024H42.2455ZM42.8602 13.9019C43.5815 13.9019 44.1389 13.7543 44.5323 13.4593C44.9422 13.1478 45.2291 12.7871 45.393 12.3773C45.5569 11.9511 45.6389 11.5658 45.6389 11.2216C45.6389 11.0248 45.6061 10.7789 45.5405 10.4838C45.4914 10.1724 45.3766 9.8609 45.1963 9.54942C45.0159 9.23794 44.7373 8.97565 44.3602 8.76254C43.9996 8.54942 43.5077 8.44286 42.8848 8.44286H40.3274V13.9019H42.8602ZM56.5212 23.615C55.554 23.615 54.7425 23.3199 54.0868 22.7297C53.431 22.1232 53.0868 21.3445 53.054 20.3937V12.3527H56.4966V19.115C56.5294 19.5904 56.6523 19.9757 56.8655 20.2707C57.0786 20.5494 57.4392 20.6888 57.9474 20.6888C58.7179 20.6888 59.3245 20.3199 59.7671 19.5822C60.2097 18.8281 60.431 17.8773 60.431 16.7297V12.3527H63.8737V23.0986H60.7507L60.5048 21.3773C60.1442 22.0494 59.6278 22.5904 58.9556 23.0002C58.2835 23.4101 57.472 23.615 56.5212 23.615ZM74.4716 23.3937C73.652 23.3937 72.947 23.2707 72.3569 23.0248C71.7831 22.7789 71.2831 22.4429 70.8569 22.0166V23.0986H67.4143V3.69696H70.8323V13.0904C71.2585 12.7297 71.8241 12.4265 72.529 12.1806C73.2339 11.9347 74.0372 11.8117 74.9388 11.8117C75.8733 11.8117 76.7257 12.033 77.4962 12.4757C78.2667 12.9183 78.8815 13.5658 79.3405 14.4183C79.8159 15.2543 80.0536 16.2789 80.0536 17.492C80.0536 18.7052 79.7913 19.7543 79.2667 20.6396C78.7585 21.5248 78.0782 22.2052 77.2257 22.6806C76.3733 23.156 75.4552 23.3937 74.4716 23.3937ZM73.7093 20.492C74.2175 20.492 74.6847 20.3609 75.111 20.0986C75.5536 19.8363 75.9061 19.4757 76.1684 19.0166C76.4307 18.5576 76.5618 18.0412 76.5618 17.4675C76.5618 16.8937 76.4307 16.3855 76.1684 15.9429C75.9061 15.5002 75.5536 15.156 75.111 14.9101C74.6847 14.6478 74.2175 14.5166 73.7093 14.5166C73.0372 14.5166 72.447 14.6724 71.9388 14.9838C71.4307 15.2953 71.07 15.7134 70.8569 16.2379V18.8691C71.447 19.9511 72.3979 20.492 73.7093 20.492ZM82.7591 12.3527H86.2017V23.0986H82.7591V12.3527ZM82.6853 8.54122C82.6853 8.03303 82.882 7.61499 83.2755 7.28713C83.6853 6.95926 84.1198 6.79532 84.5788 6.79532C85.0378 6.79532 85.4558 6.95926 85.8329 7.28713C86.2263 7.61499 86.423 8.03303 86.423 8.54122C86.423 9.04942 86.2263 9.46745 85.8329 9.79532C85.4558 10.1068 85.0378 10.2625 84.5788 10.2625C84.1198 10.2625 83.6853 10.1068 83.2755 9.79532C82.882 9.46745 82.6853 9.04942 82.6853 8.54122ZM98.8701 22.1396C98.3947 22.5166 97.7963 22.8199 97.075 23.0494C96.3701 23.2789 95.6734 23.3937 94.9848 23.3937C93.1488 23.3937 91.6734 22.8937 90.5586 21.8937C89.4602 20.8937 88.9111 19.5002 88.9111 17.7134C88.9111 16.5166 89.1815 15.5002 89.7225 14.6642C90.2635 13.8117 90.9684 13.1642 91.8373 12.7216C92.7225 12.2789 93.6488 12.0576 94.616 12.0576C95.5832 12.0576 96.4193 12.1888 97.1242 12.4511C97.8455 12.7134 98.4602 13.0576 98.9684 13.4838L97.2963 15.697C97.0668 15.5166 96.7471 15.3363 96.3373 15.156C95.9438 14.9593 95.4766 14.8609 94.9356 14.8609C94.2307 14.8609 93.6242 15.1314 93.116 15.6724C92.6078 16.197 92.3537 16.8773 92.3537 17.7134C92.3537 18.5166 92.616 19.197 93.1406 19.7543C93.6816 20.3117 94.3947 20.5904 95.2799 20.5904C96.034 20.5904 96.657 20.3855 97.1488 19.9757L98.8701 22.1396Z" fill="#161616"/>
<path d="M27.0492 7.96829L13.3685 0.00012207L0.0283832 7.82498L0 23.5893L13.4536 31.5575L27.0492 23.7613V7.96829ZM13.3969 2.40777L23.5013 8.31224L13.4536 14.2167L3.34922 8.31224L13.3969 2.40777ZM12.2332 28.29L2.07197 22.4142V10.6626L12.2048 16.567V28.29H12.2332ZM14.8444 16.739L24.9772 10.8345V22.5575L14.8444 28.4906V16.739Z" fill="#4AA956"/>
</svg>
