<svg width="28" height="28" viewBox="0 0 28 28" fill="none" xmlns="http://www.w3.org/2000/svg">
<path fill-rule="evenodd" clip-rule="evenodd" d="M19.8817 5.61319C19.8817 13.4748 13.5086 19.8479 5.64699 19.8479C5.06964 19.8479 4.49979 19.8134 3.93949 19.7464C5.96427 23.061 9.61634 25.2713 13.7811 25.2713C20.1453 25.2713 25.3045 20.1121 25.3045 13.748C25.3045 9.58354 23.0945 5.93172 19.7803 3.90685C19.8473 4.46677 19.8817 5.03624 19.8817 5.61319ZM17.5337 2.84887C17.7394 3.73707 17.8482 4.66243 17.8482 5.61319C17.8482 12.3517 12.3855 17.8144 5.64699 17.8144C4.69588 17.8144 3.7702 17.7056 2.8817 17.4997C2.87937 17.4991 2.87704 17.4986 2.87471 17.4981C2.79833 17.4803 2.72224 17.4618 2.64642 17.4427C2.36633 17.3719 2.09011 17.2913 1.81811 17.2015C1.28568 17.0257 0.734018 17.4861 0.910509 18.0183C1.01258 18.3261 1.12537 18.629 1.24846 18.9266C1.28316 19.0105 1.31869 19.0939 1.35502 19.177C1.35703 19.1816 1.35906 19.1862 1.36108 19.1908C3.45763 23.9681 8.2297 27.3049 13.7811 27.3049C21.2684 27.3049 27.338 21.2352 27.338 13.748C27.338 8.19695 24.0017 3.42516 19.2249 1.32839C19.2203 1.32636 19.2157 1.32434 19.2111 1.32232C19.1281 1.28599 19.0446 1.25046 18.9607 1.21574C18.6632 1.09263 18.3603 0.979811 18.0525 0.87772C17.5203 0.701184 17.0599 1.25281 17.2356 1.78526C17.3254 2.05726 17.4059 2.33349 17.4767 2.61358C17.4959 2.6894 17.5143 2.7655 17.5321 2.84188C17.5326 2.84421 17.5332 2.84654 17.5337 2.84887Z" fill="#4AA956"/>
</svg>
