<svg width="35" height="31" viewBox="0 0 35 31" fill="none" xmlns="http://www.w3.org/2000/svg">
<path d="M32.5867 22.2533V8.54467L33.9262 8.04449C34.3141 7.89955 34.5713 7.52896 34.5713 7.11485C34.5713 6.70073 34.3141 6.33014 33.9262 6.18527L17.9834 0.231536C17.7595 0.147919 17.513 0.147919 17.2891 0.231536L1.34636 6.18527C0.958373 6.33014 0.701172 6.70073 0.701172 7.11485C0.701172 7.52896 0.958373 7.89955 1.34629 8.04442L7.95282 10.5116C6.38877 14.9247 6.78337 17.2461 6.72106 18.03C6.72106 18.3593 6.88439 18.6671 7.157 18.8517C7.42968 19.0363 7.77606 19.0736 8.08182 18.9513C8.1049 18.9421 10.4114 18.03 12.6748 18.03C14.7686 18.03 16.9953 19.7805 17.0163 19.7972C17.3788 20.087 17.8937 20.087 18.2561 19.7972C18.8705 19.3056 20.8482 18.03 22.5977 18.03C24.8486 18.03 27.1683 18.9425 27.1906 18.9513C27.4963 19.0736 27.8428 19.0363 28.1154 18.8517C28.3881 18.6671 28.5514 18.3593 28.5514 18.03C28.4938 17.3057 28.8755 14.9015 27.3196 10.5116L30.6021 9.28578V22.2533C30.092 22.5289 29.647 23.0234 29.3036 23.7102C28.8612 24.595 28.6176 25.7494 28.6176 26.9606V28.9452C28.6176 29.4932 29.0618 29.9375 29.6099 29.9375H33.579C34.127 29.9375 34.5713 29.4932 34.5713 28.9452V26.9606C34.5713 25.7494 34.3277 24.595 33.8853 23.7102C33.5419 23.0234 33.0969 22.5289 32.5867 22.2533ZM17.6362 2.22035L30.7427 7.11485C29.3906 7.61979 18.9447 11.5207 17.6362 12.0093C16.3277 11.5207 5.88191 7.61979 4.52982 7.11485L17.6362 2.22035ZM26.5587 16.6556C25.5411 16.3662 24.079 16.0454 22.5977 16.0454C20.5679 16.0454 18.6038 17.1579 17.6362 17.8025C16.6686 17.1579 14.7045 16.0454 12.6748 16.0454C11.1935 16.0454 9.7314 16.3662 8.71377 16.6556C8.77086 14.6382 9.12914 13.1357 9.8121 11.2059L17.2891 13.9982C17.5129 14.0818 17.7595 14.0818 17.9834 13.9982L25.4604 11.2059C26.1433 13.1357 26.5015 14.6382 26.5587 16.6556ZM32.5867 27.9529H30.6021V26.9606C30.6021 26.0647 30.7759 25.2034 31.0786 24.5978C31.3323 24.0905 31.56 23.9838 31.5944 23.9838C31.6288 23.9838 31.8566 24.0905 32.1102 24.5978C32.413 25.2034 32.5867 26.0647 32.5867 26.9606V27.9529Z" fill="#4AA956" stroke="#0E1411" stroke-width="0.211688"/>
</svg>
